SplineFontDB: 3.2
FontName: Titillium-Light
FullName: Titillium Light
FamilyName: Titillium Light
Weight: Light
Copyright: Copyright (c) 2008-2011 by Accademia di Belle Arti di Urbino and others. All rights reserved.
Version: 57.000
ItalicAngle: 0
UnderlinePosition: -110
UnderlineWidth: 30
Ascent: 750
Descent: 250
InvalidEm: 0
sfntRevision: 0x00010000
LayerCount: 2
Layer: 0 0 "Zur+APwA-ck" 1
Layer: 1 0 "Zeichen" 0
XUID: [1021 1010 -703601740 9663]
StyleMap: 0x0040
FSType: 0
OS2Version: 3
OS2_WeightWidthSlopeOnly: 1
OS2_UseTypoMetrics: 0
CreationTime: 1339467516
ModificationTime: 1577963210
PfmFamily: 33
TTFWeight: 300
TTFWidth: 5
LineGap: 200
VLineGap: 0
Panose: 2 11 3 0 0 0 0 0 0 0
OS2TypoAscent: 750
OS2TypoAOffset: 0
OS2TypoDescent: -250
OS2TypoDOffset: 0
OS2TypoLinegap: 200
OS2WinAscent: 1075
OS2WinAOffset: 0
OS2WinDescent: 278
OS2WinDOffset: 0
HheadAscent: 750
HheadAOffset: 0
HheadDescent: -250
HheadDOffset: 0
OS2SubXSize: 650
OS2SubYSize: 600
OS2SubXOff: 0
OS2SubYOff: 75
OS2SupXSize: 650
OS2SupYSize: 600
OS2SupXOff: 0
OS2SupYOff: 350
OS2StrikeYSize: 30
OS2StrikeYPos: 300
OS2CapHeight: 695
OS2XHeight: 500
OS2Vendor: 'UKWN'
OS2CodePages: 20000093.00000000
OS2UnicodeRanges: 00000007.00000001.00000000.00000000
Lookup: 1 0 0 "'locl' Localized Forms in Lateinisch lookup 0" { "'locl' Localized Forms in Lateinisch lookup 0 subtable"  } ['locl' ('DFLT' <'dflt' > 'latn' <'dflt' > ) ]
Lookup: 1 0 0 "'frac' Diagonal Fractions in Lateinisch lookup 1" { "'frac' Diagonal Fractions in Lateinisch lookup 1 subtable"  } ['frac' ('DFLT' <'dflt' > 'latn' <'dflt' > ) ]
Lookup: 6 0 0 "'frac' Diagonal Fractions in Lateinisch lookup 2" { "'frac' Diagonal Fractions in Lateinisch lookup 2 subtable"  } ['frac' ('DFLT' <'dflt' > 'latn' <'dflt' > ) ]
Lookup: 1 0 0 "'frac' Diagonal Fractions in Lateinisch lookup 3" { "'frac' Diagonal Fractions in Lateinisch lookup 3 subtable"  } ['frac' ('DFLT' <'dflt' > 'latn' <'dflt' > ) ]

StartChar: acute
Encoding: 180 180 2
Width: 268
Flags: MW
HStem: 598 139
VStem: 31 229<640 685>
LayerCount: 2
Fore
SplineSet
31 640 m 1
 238 737 l 1
 260 685 l 1
 50 598 l 1
 31 640 l 1
EndSplineSet
EndChar

StartChar: breve
Encoding: 728 728 3
Width: 228
Flags: MW
HStem: 589 47<99 157 99 172> 705 20G<-16 35 35 35 221 273 273 273>
VStem: -16 289<725 725>
LayerCount: 2
Fore
SplineSet
-16 725 m 1
 35 725 l 1
 36 673 70 636 128 636 c 0
 186 636 220 674 221 725 c 1
 273 725 l 1
 270 649 216 589 128 589 c 0
 40 589 -14 649 -16 725 c 1
EndSplineSet
EndChar

StartChar: caron
Encoding: 711 711 4
Width: 228
Flags: MW
HStem: 595 46<106 128 128 128 128 148> 595 137<-16 106 -16 148>
VStem: -16 287<732 732>
LayerCount: 2
Fore
SplineSet
106 595 m 1x60
 -16 732 l 1
 46 732 l 1x60
 128 641 l 1xa0
 209 732 l 1
 271 732 l 1
 148 595 l 1
 106 595 l 1x60
EndSplineSet
EndChar

StartChar: cedilla
Encoding: 184 184 5
Width: 263
Flags: MW
HStem: -211 43<107 132 103 155.5> -90 38<109 118>
VStem: 71 38<-52 1 -52 1 -52 1> 163 55<-142.5 -113.5>
LayerCount: 2
Fore
SplineSet
218 -127 m 0
 218 -186 182 -211 129 -211 c 0
 85 -211 45 -205 45 -205 c 1
 47 -165 l 1
 47 -165 88 -168 118 -168 c 0
 146 -168 163 -158 163 -127 c 0
 163 -100 146 -90 118 -90 c 2
 71 -90 l 1
 71 1 l 1
 109 1 l 1
 109 -52 l 1
 182 -52 218 -66 218 -127 c 0
EndSplineSet
EndChar

StartChar: circumflex
Encoding: 710 710 6
Width: 228
Flags: MW
HStem: 595 137<-17 147 -17 147 105 207 105 270> 687 45<127 127>
VStem: -17 287<595 595>
LayerCount: 2
Fore
SplineSet
-17 595 m 1xa0
 105 732 l 1
 147 732 l 1
 270 595 l 1
 207 595 l 1xa0
 127 687 l 1x60
 46 595 l 1
 -17 595 l 1xa0
EndSplineSet
EndChar

StartChar: commaaccent
Encoding: 63171 63171 7
Width: 170
Flags: MW
HStem: -278 200<30 130 69 81>
VStem: 30 100
LayerCount: 2
Fore
SplineSet
30 -278 m 1
 69 -78 l 1
 130 -78 l 1
 81 -278 l 1
 30 -278 l 1
EndSplineSet
EndChar

StartChar: dieresis
Encoding: 168 168 8
Width: 228
Flags: MW
HStem: 627 80<-8 51 -8 51 189 247>
VStem: -8 59<627 707 627 707> 189 58<627 707 627 707>
LayerCount: 2
Fore
SplineSet
-8 627 m 1
 -8 707 l 1
 51 707 l 1
 51 627 l 1
 -8 627 l 1
189 627 m 1
 189 707 l 1
 247 707 l 1
 247 627 l 1
 189 627 l 1
EndSplineSet
EndChar

StartChar: dotaccent
Encoding: 729 729 9
Width: 228
Flags: MW
HStem: 623 75<84 144 84 144>
VStem: 84 60<623 698 623 698>
LayerCount: 2
Fore
SplineSet
84 623 m 1
 84 698 l 1
 144 698 l 1
 144 623 l 1
 84 623 l 1
EndSplineSet
EndChar

StartChar: hungarumlaut
Encoding: 733 733 10
Width: 228
Flags: MW
HStem: 587 162<-12 101 101 178>
VStem: -51 382<623 712>
LayerCount: 2
Fore
SplineSet
139 623 m 1
 290 749 l 1
 331 712 l 1
 178 587 l 1
 139 623 l 1
-51 623 m 1
 101 749 l 1
 141 712 l 1
 -12 587 l 1
 -51 623 l 1
EndSplineSet
EndChar

StartChar: grave
Encoding: 96 96 11
Width: 228
Flags: MW
HStem: 598 139
VStem: 3 229<640 685>
LayerCount: 2
Fore
SplineSet
25 737 m 1
 232 640 l 1
 213 598 l 1
 3 685 l 1
 25 737 l 1
EndSplineSet
EndChar

StartChar: macron
Encoding: 175 175 12
Width: 228
Flags: MW
HStem: 631 49<-16 256 -16 256>
VStem: -16 272<631 680 631 680>
LayerCount: 2
Fore
SplineSet
-16 631 m 1
 -16 680 l 1
 256 680 l 1
 256 631 l 1
 -16 631 l 1
EndSplineSet
EndChar

StartChar: ogonek
Encoding: 731 731 13
Width: 444
Flags: MW
HStem: -204 51<270 284>
VStem: 181 59<-120 -92>
LayerCount: 2
Fore
SplineSet
315 1 m 1
 315 1 240 -75 240 -107 c 0
 240 -133 257 -153 283 -153 c 0
 299 -153 335 -147 335 -147 c 1
 341 -195 l 1
 341 -195 300 -204 268 -204 c 0
 218 -204 181 -172 181 -119 c 0
 181 -65 263 7 263 7 c 1
 315 1 l 1
EndSplineSet
EndChar

StartChar: ring
Encoding: 730 730 14
Width: 228
Flags: MW
HStem: 546 41<101.5 134 101.5 146> 705 42<101.5 134>
VStem: 17 43<630.5 663 630.5 675> 175 43<630.5 663>
LayerCount: 2
Fore
SplineSet
17 647 m 0
 17 703 61 747 118 747 c 0
 174 747 218 703 218 647 c 0
 218 590 174 546 118 546 c 0
 61 546 17 590 17 647 c 0
60 647 m 0
 60 614 85 587 118 587 c 0
 150 587 175 614 175 647 c 0
 175 679 150 705 118 705 c 0
 85 705 60 679 60 647 c 0
EndSplineSet
EndChar

StartChar: tilde
Encoding: 732 732 15
Width: 228
Flags: MW
HStem: 619 50<182.5 208 182.5 215> 668 49<43.5 71>
VStem: -32 310<666 667>
LayerCount: 2
Fore
SplineSet
264 708 m 1xa0
 278 666 l 1
 278 666 233 619 197 619 c 0xa0
 157 619 87 668 55 668 c 0
 32 668 -17 627 -17 627 c 1
 -32 667 l 1
 -32 667 18 717 56 717 c 0x60
 96 717 167 669 198 669 c 0
 218 669 264 708 264 708 c 1xa0
EndSplineSet
EndChar

StartChar: A
Encoding: 65 65 16
Width: 594
Flags: MW
HStem: 0 21G<25 25 25 87 508 508 508 569> 192 55<157 437 157 452 142 437> 641 54<270 270 270 324>
VStem: 25 544<0 0>
LayerCount: 2
Fore
SplineSet
25 0 m 1
 225 695 l 1
 370 695 l 1
 569 0 l 1
 508 0 l 1
 452 192 l 1
 142 192 l 1
 87 0 l 1
 25 0 l 1
270 641 m 1
 157 247 l 1
 437 247 l 1
 324 641 l 1
 270 641 l 1
EndSplineSet
Position2: "'cpsp' Capital Spacing in Lateinisch lookup 0 subtable" dx=5 dy=0 dh=10 dv=0
EndChar

StartChar: Aacute
Encoding: 193 193 17
Width: 594
Flags: MW
HStem: 0 21G<25 25 25 87 508 508 508 569> 192 55<157 437 157 452 142 437> 641 54<270 270 270 324>
VStem: 25 544<0 0>
LayerCount: 2
Fore
SplineSet
25 0 m 1
 225 695 l 1
 370 695 l 1
 569 0 l 1
 508 0 l 1
 452 192 l 1
 142 192 l 1
 87 0 l 1
 25 0 l 1
270 641 m 1
 157 247 l 1
 437 247 l 1
 324 641 l 1
 270 641 l 1
192 829 m 1
 399 928 l 1
 421 874 l 1
 212 786 l 1
 192 829 l 1
EndSplineSet
Position2: "'cpsp' Capital Spacing in Lateinisch lookup 0 subtable" dx=5 dy=0 dh=10 dv=0
EndChar

StartChar: Abreve
Encoding: 258 258 18
Width: 594
Flags: MW
HStem: 0 21G<25 25 25 87 508 508 508 569> 192 55<157 437 157 452 142 437> 641 54<270 270 270 324> 793 48<270 320.5 270 338>
VStem: 25 544<0 0>
LayerCount: 2
Fore
SplineSet
25 0 m 1
 225 695 l 1
 370 695 l 1
 569 0 l 1
 508 0 l 1
 452 192 l 1
 142 192 l 1
 87 0 l 1
 25 0 l 1
270 641 m 1
 157 247 l 1
 437 247 l 1
 324 641 l 1
 270 641 l 1
145 920 m 1
 202 920 l 1
 203 871 245 841 295 841 c 0
 346 841 388 871 389 920 c 1
 445 920 l 1
 443 844 381 793 295 793 c 0
 209 793 148 844 145 920 c 1
EndSplineSet
Position2: "'cpsp' Capital Spacing in Lateinisch lookup 0 subtable" dx=5 dy=0 dh=10 dv=0
EndChar

StartChar: Acircumflex
Encoding: 194 194 19
Width: 594
Flags: MW
HStem: 0 21G<25 25 25 87 508 508 508 569> 192 55<157 437 157 452 142 437> 641 54<270 270 270 324> 798 131<136 322 270 387 270 456>
VStem: 25 544<0 0>
LayerCount: 2
Fore
SplineSet
25 0 m 1
 225 695 l 1
 370 695 l 1
 569 0 l 1
 508 0 l 1
 452 192 l 1
 142 192 l 1
 87 0 l 1
 25 0 l 1
270 641 m 1
 157 247 l 1
 437 247 l 1
 324 641 l 1
 270 641 l 1
136 798 m 1
 270 929 l 1
 322 929 l 1
 456 798 l 1
 387 798 l 1
 297 884 l 1
 206 798 l 1
 136 798 l 1
EndSplineSet
Position2: "'cpsp' Capital Spacing in Lateinisch lookup 0 subtable" dx=5 dy=0 dh=10 dv=0
EndChar

StartChar: Agrave
Encoding: 192 192 20
Width: 594
Flags: MW
HStem: 0 21G<25 25 25 87 508 508 508 569> 192 55<157 437 157 452 142 437> 641 54<270 270 270 324>
VStem: 25 544<0 0>
LayerCount: 2
Fore
SplineSet
25 0 m 1
 225 695 l 1
 370 695 l 1
 569 0 l 1
 508 0 l 1
 452 192 l 1
 142 192 l 1
 87 0 l 1
 25 0 l 1
270 641 m 1
 157 247 l 1
 437 247 l 1
 324 641 l 1
 270 641 l 1
190 928 m 1
 397 829 l 1
 377 786 l 1
 168 874 l 1
 190 928 l 1
EndSplineSet
Position2: "'cpsp' Capital Spacing in Lateinisch lookup 0 subtable" dx=5 dy=0 dh=10 dv=0
EndChar

StartChar: Adieresis
Encoding: 196 196 21
Width: 594
Flags: MW
HStem: 0 21G<25 25 25 87 508 508 508 569> 192 55<157 437 157 452 142 437> 641 54<270 270 270 324> 819 80<167 226 167 226 368 426>
VStem: 167 59<819 899 819 899> 368 58<819 899 819 899>
LayerCount: 2
Fore
SplineSet
25 0 m 1
 225 695 l 1
 370 695 l 1
 569 0 l 1
 508 0 l 1
 452 192 l 1
 142 192 l 1
 87 0 l 1
 25 0 l 1
270 641 m 1
 157 247 l 1
 437 247 l 1
 324 641 l 1
 270 641 l 1
167 819 m 1
 167 899 l 1
 226 899 l 1
 226 819 l 1
 167 819 l 1
368 819 m 1
 368 899 l 1
 426 899 l 1
 426 819 l 1
 368 819 l 1
EndSplineSet
Position2: "'cpsp' Capital Spacing in Lateinisch lookup 0 subtable" dx=5 dy=0 dh=10 dv=0
EndChar

StartChar: Amacron
Encoding: 256 256 22
Width: 594
Flags: MW
HStem: 0 21G<25 25 25 87 508 508 508 569> 192 55<157 437 157 452 142 437> 641 54<270 270 270 324> 819 49<146 448 146 448>
VStem: 25 544<0 0>
LayerCount: 2
Fore
SplineSet
25 0 m 1
 225 695 l 1
 370 695 l 1
 569 0 l 1
 508 0 l 1
 452 192 l 1
 142 192 l 1
 87 0 l 1
 25 0 l 1
270 641 m 1
 157 247 l 1
 437 247 l 1
 324 641 l 1
 270 641 l 1
146 819 m 1
 146 868 l 1
 448 868 l 1
 448 819 l 1
 146 819 l 1
EndSplineSet
Position2: "'cpsp' Capital Spacing in Lateinisch lookup 0 subtable" dx=5 dy=0 dh=10 dv=0
EndChar

StartChar: Aogonek
Encoding: 260 260 23
Width: 594
Flags: MW
HStem: -204 51<519 533> 0 21G<25 25 25 87 563 563 563 569> 192 55<157 437 157 452 142 437> 641 54<270 270 270 324>
VStem: 430 59<-120 -95.5>
LayerCount: 2
Fore
SplineSet
25 0 m 1
 225 695 l 1
 370 695 l 1
 569 0 l 1
 563 0 l 1
 559 -4 489 -76 489 -107 c 0
 489 -133 506 -153 532 -153 c 0
 548 -153 584 -147 584 -147 c 1
 590 -195 l 1
 590 -195 549 -204 517 -204 c 0
 467 -204 430 -172 430 -119 c 0
 430 -72 491 -11 507 3 c 1
 452 192 l 1
 142 192 l 1
 87 0 l 1
 25 0 l 1
270 641 m 1
 157 247 l 1
 437 247 l 1
 324 641 l 1
 270 641 l 1
EndSplineSet
Position2: "'cpsp' Capital Spacing in Lateinisch lookup 0 subtable" dx=5 dy=0 dh=10 dv=0
EndChar

StartChar: Aring
Encoding: 197 197 24
Width: 594
Flags: MW
HStem: 0 21G<25 87 25 25 508 569 508 508> 192 55<157 437 157 452 142 437> 641 54<270 314 276 314 276 324> 806 44<275.5 314.5>
VStem: 185 47<734.5 768 734.5 781.5> 358 47<734.5 768>
LayerCount: 2
Fore
SplineSet
405 750 m 0
 405 718 394 693 375 676 c 1
 569 0 l 1
 508 0 l 1
 452 192 l 1
 142 192 l 1
 87 0 l 1
 25 0 l 1
 218 673 l 1
 197 690 185 716 185 750 c 0
 185 813 231 850 295 850 c 0
 359 850 405 813 405 750 c 0
270 641 m 1
 157 247 l 1
 437 247 l 1
 324 641 l 1
 270 641 l 1
232 750 m 0
 232 719 248 700 276 695 c 1
 314 695 l 1
 341 700 358 719 358 750 c 0
 358 786 334 806 295 806 c 0
 256 806 232 786 232 750 c 0
EndSplineSet
Position2: "'cpsp' Capital Spacing in Lateinisch lookup 0 subtable" dx=5 dy=0 dh=10 dv=0
EndChar

StartChar: Atilde
Encoding: 195 195 25
Width: 594
Flags: MW
HStem: 0 21G<25 25 25 87 508 508 508 569> 192 55<157 437 157 452 142 437> 641 54<270 270 270 324> 814 54<360.5 386 360.5 395.5> 871 52<204 231.5>
VStem: 25 544<0 0>
LayerCount: 2
Fore
SplineSet
25 0 m 1
 225 695 l 1
 370 695 l 1
 569 0 l 1
 508 0 l 1
 452 192 l 1
 142 192 l 1
 87 0 l 1
 25 0 l 1
270 641 m 1
 157 247 l 1
 437 247 l 1
 324 641 l 1
 270 641 l 1
441 914 m 1xf4
 456 869 l 1
 456 869 414 814 377 814 c 0xf4
 332 814 248 871 215 871 c 0
 193 871 145 821 145 821 c 1
 130 867 l 1
 130 867 177 923 215 923 c 0xec
 262 923 345 868 376 868 c 0
 396 868 441 914 441 914 c 1xf4
EndSplineSet
Position2: "'cpsp' Capital Spacing in Lateinisch lookup 0 subtable" dx=5 dy=0 dh=10 dv=0
EndChar

StartChar: AE
Encoding: 198 198 26
Width: 877
Flags: MW
HStem: 0 58<473 828 473 828> 190 59<169 412 169 412 152 412> 329 58<473 768 473 768> 639 58<301 301 301 412 473 828 473 473>
VStem: 412 61<58 190 190 190 249 329 387 639>
LayerCount: 2
Fore
SplineSet
412 0 m 1
 412 190 l 1
 152 190 l 1
 86 0 l 1
 22 0 l 1
 256 697 l 1
 828 697 l 1
 828 639 l 1
 473 639 l 1
 473 387 l 1
 768 387 l 1
 768 329 l 1
 473 329 l 1
 473 58 l 1
 828 58 l 1
 828 0 l 1
 412 0 l 1
301 639 m 1
 169 249 l 1
 412 249 l 1
 412 639 l 1
 301 639 l 1
EndSplineSet
Position2: "'cpsp' Capital Spacing in Lateinisch lookup 0 subtable" dx=5 dy=0 dh=10 dv=0
EndChar

StartChar: AEacute
Encoding: 508 508 27
Width: 877
Flags: MW
HStem: 0 58<473 828 473 828> 190 59<169 412 169 412 152 412> 329 58<473 768 473 768> 639 58<301 301 301 412 473 828 473 473>
VStem: 412 61<58 190 190 190 249 329 387 639>
LayerCount: 2
Fore
SplineSet
412 0 m 1
 412 190 l 1
 152 190 l 1
 86 0 l 1
 22 0 l 1
 256 697 l 1
 828 697 l 1
 828 639 l 1
 473 639 l 1
 473 387 l 1
 768 387 l 1
 768 329 l 1
 473 329 l 1
 473 58 l 1
 828 58 l 1
 828 0 l 1
 412 0 l 1
301 639 m 1
 169 249 l 1
 412 249 l 1
 412 639 l 1
 301 639 l 1
425 829 m 1
 632 928 l 1
 654 874 l 1
 445 786 l 1
 425 829 l 1
EndSplineSet
Position2: "'cpsp' Capital Spacing in Lateinisch lookup 0 subtable" dx=5 dy=0 dh=10 dv=0
EndChar

StartChar: B
Encoding: 66 66 28
Width: 617
Flags: MW
HStem: 0 55<149 348 348 349> 327 54<149 341 341 342 149 341> 640 55<149 332 149 149>
VStem: 87 62<55 327 55 381 381 640> 476 63<473.5 559> 499 63<140 244.5 119 255.5>
LayerCount: 2
Fore
SplineSet
87 695 m 1xf4
 334 695 l 2
 469 695 539 641 539 520 c 0xf8
 539 427 503 382 447 358 c 1
 508 339 562 296 562 193 c 0
 562 45 478 0 349 0 c 2
 87 0 l 1
 87 695 l 1xf4
342 327 m 2
 149 327 l 1
 149 55 l 1
 348 55 l 2
 438 55 499 85 499 195 c 0xf4
 499 316 394 327 342 327 c 2
332 640 m 2
 149 640 l 1
 149 381 l 1
 341 381 l 2
 436 381 476 426 476 516 c 0xf8
 476 602 429 640 332 640 c 2
EndSplineSet
Position2: "'cpsp' Capital Spacing in Lateinisch lookup 0 subtable" dx=5 dy=0 dh=10 dv=0
EndChar

StartChar: C
Encoding: 67 67 29
Width: 544
Flags: MW
HStem: -10 56<236 347> 649 56<235 347>
VStem: 62 64<247 444 247 459>
LayerCount: 2
Fore
SplineSet
499 65 m 1
 502 11 l 1
 453 1 380 -10 314 -10 c 0
 107 -10 62 119 62 345 c 0
 62 573 103 705 314 705 c 0
 384 705 457 693 502 684 c 1
 499 630 l 1
 455 638 375 649 319 649 c 0
 151 649 126 543 126 345 c 0
 126 149 152 46 320 46 c 0
 378 46 450 56 499 65 c 1
EndSplineSet
Position2: "'cpsp' Capital Spacing in Lateinisch lookup 0 subtable" dx=5 dy=0 dh=10 dv=0
EndChar

StartChar: Cacute
Encoding: 262 262 30
Width: 544
Flags: MW
HStem: -10 56<236 347> 649 56<235 347>
VStem: 62 64<247 444 247 459>
LayerCount: 2
Fore
SplineSet
499 65 m 1
 502 11 l 1
 453 1 380 -10 314 -10 c 0
 107 -10 62 119 62 345 c 0
 62 573 103 705 314 705 c 0
 384 705 457 693 502 684 c 1
 499 630 l 1
 455 638 375 649 319 649 c 0
 151 649 126 543 126 345 c 0
 126 149 152 46 320 46 c 0
 378 46 450 56 499 65 c 1
190 829 m 1
 397 928 l 1
 419 874 l 1
 210 786 l 1
 190 829 l 1
EndSplineSet
Position2: "'cpsp' Capital Spacing in Lateinisch lookup 0 subtable" dx=5 dy=0 dh=10 dv=0
EndChar

StartChar: Ccaron
Encoding: 268 268 31
Width: 544
Flags: MW
HStem: -10 56<236 347> 649 56<235 347> 798 131<142 276 142 328>
VStem: 62 64<247 444 247 459>
LayerCount: 2
Fore
SplineSet
499 65 m 1
 502 11 l 1
 453 1 380 -10 314 -10 c 0
 107 -10 62 119 62 345 c 0
 62 573 103 705 314 705 c 0
 384 705 457 693 502 684 c 1
 499 630 l 1
 455 638 375 649 319 649 c 0
 151 649 126 543 126 345 c 0
 126 149 152 46 320 46 c 0
 378 46 450 56 499 65 c 1
276 798 m 1
 142 929 l 1
 211 929 l 1
 302 843 l 1
 392 929 l 1
 462 929 l 1
 328 798 l 1
 276 798 l 1
EndSplineSet
Position2: "'cpsp' Capital Spacing in Lateinisch lookup 0 subtable" dx=5 dy=0 dh=10 dv=0
EndChar

StartChar: Ccedilla
Encoding: 199 199 32
Width: 544
Flags: MW
HStem: -211 43<321 346 317 369.5> -90 38<323 332> -10 56<323 323> 649 56<235 347>
VStem: 62 64<247 444 247 459> 285 38<-52 -10 -52 -9 -52 -9> 377 55<-142.5 -113.5>
LayerCount: 2
Fore
SplineSet
432 -127 m 0
 432 -186 396 -211 343 -211 c 0
 299 -211 259 -205 259 -205 c 1
 261 -165 l 1
 261 -165 302 -168 332 -168 c 0
 360 -168 377 -158 377 -127 c 0
 377 -100 360 -90 332 -90 c 2
 285 -90 l 1
 285 -9 l 1
 102 3 62 130 62 345 c 0
 62 573 103 705 314 705 c 0
 384 705 457 693 502 684 c 1
 499 630 l 1
 455 638 375 649 319 649 c 0
 151 649 126 543 126 345 c 0
 126 149 152 46 320 46 c 0
 378 46 450 56 499 65 c 1
 502 11 l 1
 455 1 386 -9 323 -10 c 1
 323 -52 l 1
 396 -52 432 -66 432 -127 c 0
EndSplineSet
Position2: "'cpsp' Capital Spacing in Lateinisch lookup 0 subtable" dx=5 dy=0 dh=10 dv=0
EndChar

StartChar: Ccircumflex
Encoding: 264 264 33
Width: 544
Flags: MW
HStem: -10 56<236 347> 649 56<235 347> 798 131<153 339 287 404 287 473>
VStem: 62 64<247 444 247 459>
LayerCount: 2
Fore
SplineSet
499 65 m 1
 502 11 l 1
 453 1 380 -10 314 -10 c 0
 107 -10 62 119 62 345 c 0
 62 573 103 705 314 705 c 0
 384 705 457 693 502 684 c 1
 499 630 l 1
 455 638 375 649 319 649 c 0
 151 649 126 543 126 345 c 0
 126 149 152 46 320 46 c 0
 378 46 450 56 499 65 c 1
153 798 m 1
 287 929 l 1
 339 929 l 1
 473 798 l 1
 404 798 l 1
 314 884 l 1
 223 798 l 1
 153 798 l 1
EndSplineSet
Position2: "'cpsp' Capital Spacing in Lateinisch lookup 0 subtable" dx=5 dy=0 dh=10 dv=0
EndChar

StartChar: Cdotaccent
Encoding: 266 266 34
Width: 544
Flags: MW
HStem: -10 56<236 347> 649 56<235 347> 807 75<264 324 264 324>
VStem: 62 64<247 444 247 459> 264 60<807 882 807 882>
LayerCount: 2
Fore
SplineSet
499 65 m 1
 502 11 l 1
 453 1 380 -10 314 -10 c 0
 107 -10 62 119 62 345 c 0
 62 573 103 705 314 705 c 0
 384 705 457 693 502 684 c 1
 499 630 l 1
 455 638 375 649 319 649 c 0
 151 649 126 543 126 345 c 0
 126 149 152 46 320 46 c 0
 378 46 450 56 499 65 c 1
264 807 m 1
 264 882 l 1
 324 882 l 1
 324 807 l 1
 264 807 l 1
EndSplineSet
Position2: "'cpsp' Capital Spacing in Lateinisch lookup 0 subtable" dx=5 dy=0 dh=10 dv=0
EndChar

StartChar: D
Encoding: 68 68 35
Width: 646
Flags: MW
HStem: 0 55<149 340 149 340> 639 56<149 340 149 149>
VStem: 87 62<55 639 55 695 55 695> 523 64<281.5 431.5>
LayerCount: 2
Fore
SplineSet
340 0 m 2
 87 0 l 1
 87 695 l 1
 340 695 l 2
 531 695 587 545 587 357 c 0
 587 167 533 0 340 0 c 2
523 357 m 0
 523 506 486 639 340 639 c 2
 149 639 l 1
 149 55 l 1
 340 55 l 2
 486 55 523 206 523 357 c 0
EndSplineSet
Position2: "'cpsp' Capital Spacing in Lateinisch lookup 0 subtable" dx=5 dy=0 dh=10 dv=0
EndChar

StartChar: Dcaron
Encoding: 270 270 36
Width: 646
Flags: MW
HStem: 0 55<149 340 149 340> 639 56<149 340 149 149> 798 131<132 266 132 318>
VStem: 87 62<55 639 55 695 55 695> 523 64<281.5 431.5>
LayerCount: 2
Fore
SplineSet
340 0 m 2
 87 0 l 1
 87 695 l 1
 340 695 l 2
 531 695 587 545 587 357 c 0
 587 167 533 0 340 0 c 2
523 357 m 0
 523 506 486 639 340 639 c 2
 149 639 l 1
 149 55 l 1
 340 55 l 2
 486 55 523 206 523 357 c 0
266 798 m 1
 132 929 l 1
 201 929 l 1
 292 843 l 1
 382 929 l 1
 452 929 l 1
 318 798 l 1
 266 798 l 1
EndSplineSet
Position2: "'cpsp' Capital Spacing in Lateinisch lookup 0 subtable" dx=5 dy=0 dh=10 dv=0
EndChar

StartChar: Dcroat
Encoding: 272 272 37
Width: 649
Flags: MW
HStem: 0 58<151 342 151 342> 320 58<19 90 19 90 151 316> 639 58<151 342 151 151>
VStem: 90 61<58 320 58 320 58 320 378 639> 526 64<285 433>
LayerCount: 2
Fore
SplineSet
19 320 m 1
 19 378 l 1
 90 378 l 1
 90 697 l 1
 342 697 l 2
 533 697 590 548 590 359 c 0
 590 169 535 0 342 0 c 2
 90 0 l 1
 90 320 l 1
 19 320 l 1
526 359 m 0
 526 507 488 639 342 639 c 2
 151 639 l 1
 151 378 l 1
 316 378 l 1
 316 320 l 1
 151 320 l 1
 151 58 l 1
 342 58 l 2
 488 58 526 211 526 359 c 0
EndSplineSet
Position2: "'cpsp' Capital Spacing in Lateinisch lookup 0 subtable" dx=5 dy=0 dh=10 dv=0
EndChar

StartChar: E
Encoding: 69 69 38
Width: 552
Flags: MW
HStem: 0 55<149 504 149 504> 326 55<149 444 149 444> 639 56<149 504 149 149>
VStem: 87 62<55 326 381 639>
LayerCount: 2
Fore
SplineSet
87 0 m 1
 87 695 l 1
 504 695 l 1
 504 639 l 1
 149 639 l 1
 149 381 l 1
 444 381 l 1
 444 326 l 1
 149 326 l 1
 149 55 l 1
 504 55 l 1
 504 0 l 1
 87 0 l 1
EndSplineSet
Position2: "'cpsp' Capital Spacing in Lateinisch lookup 0 subtable" dx=5 dy=0 dh=10 dv=0
EndChar

StartChar: Eacute
Encoding: 201 201 39
Width: 552
Flags: MW
HStem: 0 55<149 504 149 504> 326 55<149 444 149 444> 639 56<149 504 149 149>
VStem: 87 62<55 326 381 639>
LayerCount: 2
Fore
SplineSet
87 0 m 1
 87 695 l 1
 504 695 l 1
 504 639 l 1
 149 639 l 1
 149 381 l 1
 444 381 l 1
 444 326 l 1
 149 326 l 1
 149 55 l 1
 504 55 l 1
 504 0 l 1
 87 0 l 1
182 829 m 1
 389 928 l 1
 411 874 l 1
 202 786 l 1
 182 829 l 1
EndSplineSet
Position2: "'cpsp' Capital Spacing in Lateinisch lookup 0 subtable" dx=5 dy=0 dh=10 dv=0
EndChar

StartChar: Ebreve
Encoding: 276 276 40
Width: 552
Flags: MW
HStem: 0 55<149 504 149 504> 326 55<149 444 149 444> 639 56<149 504 149 149> 793 48<280 330.5 280 348>
VStem: 87 62<55 326 381 639>
LayerCount: 2
Fore
SplineSet
87 0 m 1
 87 695 l 1
 504 695 l 1
 504 639 l 1
 149 639 l 1
 149 381 l 1
 444 381 l 1
 444 326 l 1
 149 326 l 1
 149 55 l 1
 504 55 l 1
 504 0 l 1
 87 0 l 1
155 920 m 1
 212 920 l 1
 213 871 255 841 305 841 c 0
 356 841 398 871 399 920 c 1
 455 920 l 1
 453 844 391 793 305 793 c 0
 219 793 158 844 155 920 c 1
EndSplineSet
Position2: "'cpsp' Capital Spacing in Lateinisch lookup 0 subtable" dx=5 dy=0 dh=10 dv=0
EndChar

StartChar: Ecaron
Encoding: 282 282 41
Width: 552
Flags: MW
HStem: 0 55<149 504 149 504> 326 55<149 444 149 444> 639 56<149 504 149 149> 798 131<133 267 133 319>
VStem: 87 62<55 326 381 639>
LayerCount: 2
Fore
SplineSet
87 0 m 1
 87 695 l 1
 504 695 l 1
 504 639 l 1
 149 639 l 1
 149 381 l 1
 444 381 l 1
 444 326 l 1
 149 326 l 1
 149 55 l 1
 504 55 l 1
 504 0 l 1
 87 0 l 1
267 798 m 1
 133 929 l 1
 202 929 l 1
 293 843 l 1
 383 929 l 1
 453 929 l 1
 319 798 l 1
 267 798 l 1
EndSplineSet
Position2: "'cpsp' Capital Spacing in Lateinisch lookup 0 subtable" dx=5 dy=0 dh=10 dv=0
EndChar

StartChar: Ecircumflex
Encoding: 202 202 42
Width: 552
Flags: MW
HStem: 0 55<149 504 149 504> 326 55<149 444 149 444> 639 56<149 504 149 149> 798 131<132 318 266 383 266 452>
VStem: 87 62<55 326 381 639>
LayerCount: 2
Fore
SplineSet
87 0 m 1
 87 695 l 1
 504 695 l 1
 504 639 l 1
 149 639 l 1
 149 381 l 1
 444 381 l 1
 444 326 l 1
 149 326 l 1
 149 55 l 1
 504 55 l 1
 504 0 l 1
 87 0 l 1
132 798 m 1
 266 929 l 1
 318 929 l 1
 452 798 l 1
 383 798 l 1
 293 884 l 1
 202 798 l 1
 132 798 l 1
EndSplineSet
Position2: "'cpsp' Capital Spacing in Lateinisch lookup 0 subtable" dx=5 dy=0 dh=10 dv=0
EndChar

StartChar: Edieresis
Encoding: 203 203 43
Width: 552
Flags: MW
HStem: 0 55<149 504 149 504> 326 55<149 444 149 444> 639 56<149 504 149 149> 819 80<165 224 165 224 366 424>
VStem: 87 62<55 326 381 639> 165 59<819 899 819 899> 366 58<819 899 819 899>
LayerCount: 2
Fore
SplineSet
87 0 m 1
 87 695 l 1
 504 695 l 1
 504 639 l 1
 149 639 l 1
 149 381 l 1
 444 381 l 1
 444 326 l 1
 149 326 l 1
 149 55 l 1
 504 55 l 1
 504 0 l 1
 87 0 l 1
165 819 m 1xfe
 165 899 l 1
 224 899 l 1
 224 819 l 1
 165 819 l 1xfe
366 819 m 1
 366 899 l 1
 424 899 l 1
 424 819 l 1
 366 819 l 1
EndSplineSet
Position2: "'cpsp' Capital Spacing in Lateinisch lookup 0 subtable" dx=5 dy=0 dh=10 dv=0
EndChar

StartChar: Edotaccent
Encoding: 278 278 44
Width: 552
Flags: MW
HStem: 0 55<149 504 149 504> 326 55<149 444 149 444> 639 56<149 504 149 149> 809 75<266 326 266 326>
VStem: 87 62<55 326 381 639> 266 60<809 884 809 884>
LayerCount: 2
Fore
SplineSet
87 0 m 1
 87 695 l 1
 504 695 l 1
 504 639 l 1
 149 639 l 1
 149 381 l 1
 444 381 l 1
 444 326 l 1
 149 326 l 1
 149 55 l 1
 504 55 l 1
 504 0 l 1
 87 0 l 1
266 809 m 1
 266 884 l 1
 326 884 l 1
 326 809 l 1
 266 809 l 1
EndSplineSet
Position2: "'cpsp' Capital Spacing in Lateinisch lookup 0 subtable" dx=5 dy=0 dh=10 dv=0
EndChar

StartChar: Egrave
Encoding: 200 200 45
Width: 552
Flags: MW
HStem: 0 55<149 504 149 504> 326 55<149 444 149 444> 639 56<149 504 149 149>
VStem: 87 62<55 326 381 639>
LayerCount: 2
Fore
SplineSet
87 0 m 1
 87 695 l 1
 504 695 l 1
 504 639 l 1
 149 639 l 1
 149 381 l 1
 444 381 l 1
 444 326 l 1
 149 326 l 1
 149 55 l 1
 504 55 l 1
 504 0 l 1
 87 0 l 1
199 928 m 1
 406 829 l 1
 386 786 l 1
 177 874 l 1
 199 928 l 1
EndSplineSet
Position2: "'cpsp' Capital Spacing in Lateinisch lookup 0 subtable" dx=5 dy=0 dh=10 dv=0
EndChar

StartChar: Emacron
Encoding: 274 274 46
Width: 552
Flags: MW
HStem: 0 55<149 504 149 504> 326 55<149 444 149 444> 639 56<149 504 149 149> 819 49<143 445 143 445>
VStem: 87 62<55 326 381 639>
LayerCount: 2
Fore
SplineSet
87 0 m 1
 87 695 l 1
 504 695 l 1
 504 639 l 1
 149 639 l 1
 149 381 l 1
 444 381 l 1
 444 326 l 1
 149 326 l 1
 149 55 l 1
 504 55 l 1
 504 0 l 1
 87 0 l 1
143 819 m 1
 143 868 l 1
 445 868 l 1
 445 819 l 1
 143 819 l 1
EndSplineSet
Position2: "'cpsp' Capital Spacing in Lateinisch lookup 0 subtable" dx=5 dy=0 dh=10 dv=0
EndChar

StartChar: Eogonek
Encoding: 280 280 47
Width: 552
Flags: MW
HStem: -204 51<431 445> 0 55<149 416 475 475 475 504> 326 55<149 444 149 444> 639 56<149 504 149 149>
VStem: 87 62<55 326 381 639> 342 59<-120 -96.5>
LayerCount: 2
Fore
SplineSet
87 0 m 1
 87 695 l 1
 504 695 l 1
 504 639 l 1
 149 639 l 1
 149 381 l 1
 444 381 l 1
 444 326 l 1
 149 326 l 1
 149 55 l 1
 504 55 l 1
 504 0 l 1
 475 0 l 1
 471 -4 401 -76 401 -107 c 0
 401 -133 418 -153 444 -153 c 0
 460 -153 496 -147 496 -147 c 1
 502 -195 l 1
 502 -195 461 -204 429 -204 c 0
 379 -204 342 -172 342 -119 c 0
 342 -74 396 -18 416 0 c 1
 87 0 l 1
EndSplineSet
Position2: "'cpsp' Capital Spacing in Lateinisch lookup 0 subtable" dx=5 dy=0 dh=10 dv=0
EndChar

StartChar: F
Encoding: 70 70 48
Width: 525
Flags: MW
HStem: 0 21G<87 87 87 149> 297 55<149 445 149 445> 639 56<149 497 149 149>
VStem: 87 62<0 297 352 639>
LayerCount: 2
Fore
SplineSet
87 0 m 1
 87 695 l 1
 497 695 l 1
 497 639 l 1
 149 639 l 1
 149 352 l 1
 445 352 l 1
 445 297 l 1
 149 297 l 1
 149 0 l 1
 87 0 l 1
EndSplineSet
Position2: "'cpsp' Capital Spacing in Lateinisch lookup 0 subtable" dx=5 dy=0 dh=10 dv=0
EndChar

StartChar: G
Encoding: 71 71 49
Width: 617
Flags: MW
HStem: -10 56<244.5 355 244.5 362> 296 55<360 549 360 488> 649 56<245 375.5>
VStem: 60 64<247.5 443.5 247.5 458> 488 61<62 296 296 296>
LayerCount: 2
Fore
SplineSet
360 296 m 1
 360 351 l 1
 549 351 l 1
 549 15 l 1
 522 9 398 -10 326 -10 c 0
 116 -10 60 122 60 345 c 0
 60 571 115 705 325 705 c 0
 430 705 549 679 549 679 c 1
 546 626 l 1
 546 626 421 649 330 649 c 0
 160 649 124 542 124 345 c 0
 124 150 160 46 329 46 c 0
 381 46 455 56 488 62 c 1
 488 296 l 1
 360 296 l 1
EndSplineSet
Position2: "'cpsp' Capital Spacing in Lateinisch lookup 0 subtable" dx=5 dy=0 dh=10 dv=0
EndChar

StartChar: Gbreve
Encoding: 286 286 50
Width: 617
Flags: MW
HStem: -10 56<244.5 355 244.5 362> 296 55<360 549 360 488> 649 56<245 375.5> 793 48<305 355.5 305 373>
VStem: 60 64<247.5 443.5 247.5 458> 488 61<62 296 296 296>
LayerCount: 2
Fore
SplineSet
360 296 m 1
 360 351 l 1
 549 351 l 1
 549 15 l 1
 522 9 398 -10 326 -10 c 0
 116 -10 60 122 60 345 c 0
 60 571 115 705 325 705 c 0
 430 705 549 679 549 679 c 1
 546 626 l 1
 546 626 421 649 330 649 c 0
 160 649 124 542 124 345 c 0
 124 150 160 46 329 46 c 0
 381 46 455 56 488 62 c 1
 488 296 l 1
 360 296 l 1
180 920 m 1
 237 920 l 1
 238 871 280 841 330 841 c 0
 381 841 423 871 424 920 c 1
 480 920 l 1
 478 844 416 793 330 793 c 0
 244 793 183 844 180 920 c 1
EndSplineSet
Position2: "'cpsp' Capital Spacing in Lateinisch lookup 0 subtable" dx=5 dy=0 dh=10 dv=0
EndChar

StartChar: Gcircumflex
Encoding: 284 284 51
Width: 617
Flags: MW
HStem: -7 56<244.5 355 244.5 362> 299 55<360 549 360 488> 652 56<245 375.5> 794 131<160 346 294 411 294 480>
VStem: 60 64<250.5 446.5 250.5 461> 488 61<65 299 299 299>
LayerCount: 2
Fore
SplineSet
360 299 m 1
 360 354 l 1
 549 354 l 1
 549 18 l 1
 522 12 398 -7 326 -7 c 0
 116 -7 60 125 60 348 c 0
 60 574 115 708 325 708 c 0
 430 708 549 682 549 682 c 1
 546 629 l 1
 546 629 421 652 330 652 c 0
 160 652 124 545 124 348 c 0
 124 153 160 49 329 49 c 0
 381 49 455 59 488 65 c 1
 488 299 l 1
 360 299 l 1
160 794 m 1
 294 925 l 1
 346 925 l 1
 480 794 l 1
 411 794 l 1
 321 880 l 1
 230 794 l 1
 160 794 l 1
EndSplineSet
Position2: "'cpsp' Capital Spacing in Lateinisch lookup 0 subtable" dx=5 dy=0 dh=10 dv=0
EndChar

StartChar: Gcommaaccent
Encoding: 290 290 52
Width: 617
Flags: MW
HStem: -10 56<244.5 355 244.5 362> 296 55<360 549 360 488> 649 56<245 375.5>
VStem: 60 64<247.5 443.5 247.5 458> 488 61<62 296 296 296>
LayerCount: 2
Fore
SplineSet
360 296 m 1
 360 351 l 1
 549 351 l 1
 549 15 l 1
 522 9 398 -10 326 -10 c 0
 116 -10 60 122 60 345 c 0
 60 571 115 705 325 705 c 0
 430 705 549 679 549 679 c 1
 546 626 l 1
 546 626 421 649 330 649 c 0
 160 649 124 542 124 345 c 0
 124 150 160 46 329 46 c 0
 381 46 455 56 488 62 c 1
 488 296 l 1
 360 296 l 1
309 -78 m 1
 270 -278 l 1
 321 -278 l 1
 370 -78 l 1
 309 -78 l 1
EndSplineSet
Position2: "'cpsp' Capital Spacing in Lateinisch lookup 0 subtable" dx=5 dy=0 dh=10 dv=0
EndChar

StartChar: Gdotaccent
Encoding: 288 288 53
Width: 617
Flags: MW
HStem: -10 56<244.5 355 244.5 362> 296 55<360 549 360 488> 649 56<245 375.5> 809 75<283 343 283 343>
VStem: 60 64<247.5 443.5 247.5 458> 283 60<809 884 809 884> 488 61<62 296 296 296>
LayerCount: 2
Fore
SplineSet
360 296 m 1
 360 351 l 1
 549 351 l 1
 549 15 l 1
 522 9 398 -10 326 -10 c 0
 116 -10 60 122 60 345 c 0
 60 571 115 705 325 705 c 0
 430 705 549 679 549 679 c 1
 546 626 l 1
 546 626 421 649 330 649 c 0
 160 649 124 542 124 345 c 0
 124 150 160 46 329 46 c 0
 381 46 455 56 488 62 c 1
 488 296 l 1
 360 296 l 1
283 809 m 1
 283 884 l 1
 343 884 l 1
 343 809 l 1
 283 809 l 1
EndSplineSet
Position2: "'cpsp' Capital Spacing in Lateinisch lookup 0 subtable" dx=5 dy=0 dh=10 dv=0
EndChar

StartChar: H
Encoding: 72 72 54
Width: 675
Flags: MW
HStem: 0 21G<87 149 87 87 526 587 526 526> 321 55<149 526 149 526>
VStem: 87 62<0 321 0 376 376 695> 526 61<0 321 321 321 376 695 0 695>
LayerCount: 2
Fore
SplineSet
526 0 m 1
 526 321 l 1
 149 321 l 1
 149 0 l 1
 87 0 l 1
 87 695 l 1
 149 695 l 1
 149 376 l 1
 526 376 l 1
 526 695 l 1
 587 695 l 1
 587 0 l 1
 526 0 l 1
EndSplineSet
Position2: "'cpsp' Capital Spacing in Lateinisch lookup 0 subtable" dx=5 dy=0 dh=10 dv=0
EndChar

StartChar: Hbar
Encoding: 294 294 55
Width: 686
Flags: MW
HStem: 0 21G<91 153 91 91 530 591 530 530> 321 55<153 530 153 530> 513 53<14 91 14 91 153 530 591 677>
VStem: 91 62<0 321 376 513 566 695> 530 61<0 321 321 321 376 513 0 513 566 695>
LayerCount: 2
Fore
SplineSet
14 513 m 1
 14 566 l 1
 91 566 l 1
 91 695 l 1
 153 695 l 1
 153 566 l 1
 530 566 l 1
 530 695 l 1
 591 695 l 1
 591 566 l 1
 677 566 l 1
 677 513 l 1
 591 513 l 1
 591 0 l 1
 530 0 l 1
 530 321 l 1
 153 321 l 1
 153 0 l 1
 91 0 l 1
 91 513 l 1
 14 513 l 1
153 376 m 1
 530 376 l 1
 530 513 l 1
 153 513 l 1
 153 376 l 1
EndSplineSet
Position2: "'cpsp' Capital Spacing in Lateinisch lookup 0 subtable" dx=5 dy=0 dh=10 dv=0
EndChar

StartChar: Hcircumflex
Encoding: 292 292 56
Width: 675
Flags: MW
HStem: 0 21G<87 149 87 87 526 587 526 526> 321 55<149 526 149 526> 798 131<178 364 312 429 312 498>
VStem: 87 62<0 321 0 376 376 695> 526 61<0 321 321 321 376 695 0 695>
LayerCount: 2
Fore
SplineSet
526 0 m 1
 526 321 l 1
 149 321 l 1
 149 0 l 1
 87 0 l 1
 87 695 l 1
 149 695 l 1
 149 376 l 1
 526 376 l 1
 526 695 l 1
 587 695 l 1
 587 0 l 1
 526 0 l 1
178 798 m 1
 312 929 l 1
 364 929 l 1
 498 798 l 1
 429 798 l 1
 339 884 l 1
 248 798 l 1
 178 798 l 1
EndSplineSet
Position2: "'cpsp' Capital Spacing in Lateinisch lookup 0 subtable" dx=5 dy=0 dh=10 dv=0
EndChar

StartChar: I
Encoding: 73 73 57
Width: 236
Flags: MW
HStem: 0 21G<87 87 87 149>
VStem: 87 62<0 695 0 695>
LayerCount: 2
Fore
SplineSet
87 0 m 1
 87 695 l 1
 149 695 l 1
 149 0 l 1
 87 0 l 1
EndSplineSet
Position2: "'cpsp' Capital Spacing in Lateinisch lookup 0 subtable" dx=5 dy=0 dh=10 dv=0
EndChar

StartChar: Iacute
Encoding: 205 205 58
Width: 236
Flags: MW
HStem: 0 21G<87 87 87 149>
VStem: 87 62<0 695 0 695>
LayerCount: 2
Fore
SplineSet
87 0 m 1
 87 695 l 1
 149 695 l 1
 149 0 l 1
 87 0 l 1
14 829 m 1
 221 928 l 1
 243 874 l 1
 34 786 l 1
 14 829 l 1
EndSplineSet
Position2: "'cpsp' Capital Spacing in Lateinisch lookup 0 subtable" dx=5 dy=0 dh=10 dv=0
EndChar

StartChar: Ibreve
Encoding: 300 300 59
Width: 236
Flags: MW
HStem: 0 21G<87 87 87 149> 793 48<99 149.5 99 167>
VStem: 87 62<0 695 0 695>
LayerCount: 2
Fore
SplineSet
87 0 m 1
 87 695 l 1
 149 695 l 1
 149 0 l 1
 87 0 l 1
-26 920 m 1
 31 920 l 1
 32 871 74 841 124 841 c 0
 175 841 217 871 218 920 c 1
 274 920 l 1
 272 844 210 793 124 793 c 0
 38 793 -23 844 -26 920 c 1
EndSplineSet
Position2: "'cpsp' Capital Spacing in Lateinisch lookup 0 subtable" dx=5 dy=0 dh=10 dv=0
EndChar

StartChar: Icircumflex
Encoding: 206 206 60
Width: 236
Flags: MW
HStem: 0 21G<87 87 87 149> 798 131<-47 139 87 204 87 273>
VStem: 87 62<0 695 0 695>
LayerCount: 2
Fore
SplineSet
87 0 m 1
 87 695 l 1
 149 695 l 1
 149 0 l 1
 87 0 l 1
-47 798 m 1
 87 929 l 1
 139 929 l 1
 273 798 l 1
 204 798 l 1
 114 884 l 1
 23 798 l 1
 -47 798 l 1
EndSplineSet
Position2: "'cpsp' Capital Spacing in Lateinisch lookup 0 subtable" dx=5 dy=0 dh=10 dv=0
EndChar

StartChar: Idieresis
Encoding: 207 207 61
Width: 236
Flags: MW
HStem: 0 21G<87 87 87 149> 819 80<-12 47 -12 47 189 247>
VStem: -12 59<819 899 819 899> 87 62<0 695 0 695> 189 58<819 899 819 899>
LayerCount: 2
Fore
SplineSet
87 0 m 1
 87 695 l 1
 149 695 l 1
 149 0 l 1
 87 0 l 1
-12 819 m 1
 -12 899 l 1
 47 899 l 1
 47 819 l 1
 -12 819 l 1
189 819 m 1
 189 899 l 1
 247 899 l 1
 247 819 l 1
 189 819 l 1
EndSplineSet
Position2: "'cpsp' Capital Spacing in Lateinisch lookup 0 subtable" dx=5 dy=0 dh=10 dv=0
EndChar

StartChar: Idotaccent
Encoding: 304 304 62
Width: 236
Flags: MW
HStem: 0 21G<87 87 87 149> 809 75<88 148 88 148>
VStem: 87 62<0 695 0 695>
LayerCount: 2
Fore
SplineSet
87 0 m 1
 87 695 l 1
 149 695 l 1
 149 0 l 1
 87 0 l 1
88 809 m 1
 88 884 l 1
 148 884 l 1
 148 809 l 1
 88 809 l 1
EndSplineSet
Position2: "'cpsp' Capital Spacing in Lateinisch lookup 0 subtable" dx=5 dy=0 dh=10 dv=0
EndChar

StartChar: Igrave
Encoding: 204 204 63
Width: 236
Flags: MW
HStem: 0 21G<87 87 87 149>
VStem: 87 62<0 695 0 695>
LayerCount: 2
Fore
SplineSet
87 0 m 1
 87 695 l 1
 149 695 l 1
 149 0 l 1
 87 0 l 1
3 928 m 1
 210 829 l 1
 190 786 l 1
 -19 874 l 1
 3 928 l 1
EndSplineSet
Position2: "'cpsp' Capital Spacing in Lateinisch lookup 0 subtable" dx=5 dy=0 dh=10 dv=0
EndChar

StartChar: Imacron
Encoding: 298 298 64
Width: 236
Flags: MW
HStem: 0 21G<87 87 87 149> 819 49<-31 271 -31 271>
VStem: 87 62<0 695 0 695>
LayerCount: 2
Fore
SplineSet
87 0 m 1
 87 695 l 1
 149 695 l 1
 149 0 l 1
 87 0 l 1
-31 819 m 1
 -31 868 l 1
 271 868 l 1
 271 819 l 1
 -31 819 l 1
EndSplineSet
Position2: "'cpsp' Capital Spacing in Lateinisch lookup 0 subtable" dx=5 dy=0 dh=10 dv=0
EndChar

StartChar: Iogonek
Encoding: 302 302 65
Width: 236
Flags: MW
HStem: -204 51<102 115.5> 0 21G<87 87 87 88 149 149>
VStem: 12 59<-120 -97> 87 62<0 695 0 695>
LayerCount: 2
Fore
SplineSet
87 0 m 1
 87 695 l 1
 149 695 l 1
 149 0 l 1xd0
 149 0 71 -75 71 -107 c 0
 71 -133 89 -153 115 -153 c 0
 131 -153 167 -147 167 -147 c 1
 173 -195 l 1
 173 -195 131 -204 100 -204 c 0
 50 -204 12 -172 12 -119 c 0xf0
 12 -75 67 -19 88 0 c 1
 87 0 l 1
EndSplineSet
Position2: "'cpsp' Capital Spacing in Lateinisch lookup 0 subtable" dx=5 dy=0 dh=10 dv=0
EndChar

StartChar: Itilde
Encoding: 296 296 66
Width: 236
Flags: MW
HStem: 0 21G<87 87 87 149> 814 54<179.5 205 179.5 214.5> 871 52<23 50.5>
VStem: 87 62<0 695 0 695>
LayerCount: 2
Fore
SplineSet
87 0 m 1
 87 695 l 1
 149 695 l 1
 149 0 l 1
 87 0 l 1
260 914 m 1xd0
 275 869 l 1
 275 869 233 814 196 814 c 0xd0
 151 814 67 871 34 871 c 0
 12 871 -36 821 -36 821 c 1
 -51 867 l 1
 -51 867 -4 923 34 923 c 0xb0
 81 923 164 868 195 868 c 0
 215 868 260 914 260 914 c 1xd0
EndSplineSet
Position2: "'cpsp' Capital Spacing in Lateinisch lookup 0 subtable" dx=5 dy=0 dh=10 dv=0
EndChar

StartChar: J
Encoding: 74 74 67
Width: 285
Flags: MW
HStem: -72 55<18 68 18 82>
VStem: 140 61<102 695>
LayerCount: 2
Fore
SplineSet
201 695 m 1
 201 89 l 2
 201 -61 146 -72 18 -72 c 1
 18 -17 l 1
 118 -17 140 -12 140 102 c 2
 140 695 l 1
 201 695 l 1
EndSplineSet
Position2: "'cpsp' Capital Spacing in Lateinisch lookup 0 subtable" dx=5 dy=0 dh=10 dv=0
EndChar

StartChar: Jcircumflex
Encoding: 308 308 68
Width: 285
Flags: MW
HStem: -72 55<18 68 18 82> 794 131<9 195 143 260 143 329>
VStem: 140 61<102 695>
LayerCount: 2
Fore
SplineSet
201 695 m 1
 201 89 l 2
 201 -61 146 -72 18 -72 c 1
 18 -17 l 1
 118 -17 140 -12 140 102 c 2
 140 695 l 1
 201 695 l 1
9 794 m 1
 143 925 l 1
 195 925 l 1
 329 794 l 1
 260 794 l 1
 170 880 l 1
 79 794 l 1
 9 794 l 1
EndSplineSet
Position2: "'cpsp' Capital Spacing in Lateinisch lookup 0 subtable" dx=5 dy=0 dh=10 dv=0
EndChar

StartChar: K
Encoding: 75 75 69
Width: 563
Flags: MW
HStem: 0 21G<87 149 87 87 472 546 472 472> 313 55.5
VStem: 87 62<0 312 0 367 367 695>
LayerCount: 2
Fore
SplineSet
472 0 m 1
 270 314 l 1
 149 312 l 1
 149 0 l 1
 87 0 l 1
 87 695 l 1
 149 695 l 1
 149 367 l 1
 269 370 l 1
 462 695 l 1
 533 695 l 1
 323 346 l 1
 546 0 l 1
 472 0 l 1
EndSplineSet
Position2: "'cpsp' Capital Spacing in Lateinisch lookup 0 subtable" dx=5 dy=0 dh=10 dv=0
EndChar

StartChar: Kcommaaccent
Encoding: 310 310 70
Width: 562
Flags: MW
HStem: 0 21G<87 149 87 87 472 546 472 472> 313 59
VStem: 87 62<0 312 0 371 371 697>
LayerCount: 2
Fore
SplineSet
472 0 m 1
 270 314 l 1
 149 312 l 1
 149 0 l 1
 87 0 l 1
 87 697 l 1
 149 697 l 1
 149 371 l 1
 268 373 l 1
 461 697 l 1
 533 697 l 1
 323 348 l 1
 546 0 l 1
 472 0 l 1
269 -78 m 1
 230 -278 l 1
 281 -278 l 1
 329 -78 l 1
 269 -78 l 1
EndSplineSet
Position2: "'cpsp' Capital Spacing in Lateinisch lookup 0 subtable" dx=5 dy=0 dh=10 dv=0
EndChar

StartChar: L
Encoding: 76 76 71
Width: 480
Flags: MW
HStem: 0 56<149 467 149 467>
VStem: 87 62<56 695 56 695 56 695>
LayerCount: 2
Fore
SplineSet
467 0 m 1
 87 0 l 1
 87 695 l 1
 149 695 l 1
 149 56 l 1
 467 56 l 1
 467 0 l 1
EndSplineSet
Position2: "'cpsp' Capital Spacing in Lateinisch lookup 0 subtable" dx=5 dy=0 dh=10 dv=0
EndChar

StartChar: Lacute
Encoding: 313 313 72
Width: 480
Flags: MW
HStem: 0 59<149 467 149 467>
VStem: 87 62<59 697 59 697 59 697>
LayerCount: 2
Fore
SplineSet
467 0 m 1
 87 0 l 1
 87 697 l 1
 149 697 l 1
 149 59 l 1
 467 59 l 1
 467 0 l 1
140 829 m 1
 347 928 l 1
 369 874 l 1
 160 786 l 1
 140 829 l 1
EndSplineSet
Position2: "'cpsp' Capital Spacing in Lateinisch lookup 0 subtable" dx=5 dy=0 dh=10 dv=0
EndChar

StartChar: Lcaron
Encoding: 317 317 73
Width: 493
Flags: MW
HStem: 0 56<149 467 149 467> 470 227<375 433 375 433>
VStem: 87 62<56 695 56 695 56 695> 375 58<470 697 470 697>
LayerCount: 2
Fore
SplineSet
433 697 m 1
 433 470 l 1
 375 470 l 1
 375 697 l 1
 433 697 l 1
467 0 m 1
 87 0 l 1
 87 695 l 1
 149 695 l 1
 149 56 l 1
 467 56 l 1
 467 0 l 1
EndSplineSet
Position2: "'cpsp' Capital Spacing in Lateinisch lookup 0 subtable" dx=5 dy=0 dh=10 dv=0
EndChar

StartChar: Lcommaaccent
Encoding: 315 315 74
Width: 480
Flags: MW
HStem: -78 134<250 250 250 310> 0 56<149 467 149 467>
VStem: 87 62<56 695 56 695 56 695>
LayerCount: 2
Fore
SplineSet
250 -78 m 1xa0
 210 -278 l 1
 262 -278 l 1
 310 -78 l 1
 250 -78 l 1xa0
467 0 m 1x60
 87 0 l 1
 87 695 l 1
 149 695 l 1
 149 56 l 1
 467 56 l 1
 467 0 l 1x60
EndSplineSet
Position2: "'cpsp' Capital Spacing in Lateinisch lookup 0 subtable" dx=5 dy=0 dh=10 dv=0
EndChar

StartChar: Lslash
Encoding: 321 321 75
Width: 484
Flags: MW
HStem: 0 56<153 471 153 471>
VStem: 91 62<56 285 285 285 391 695>
LayerCount: 2
Fore
SplineSet
471 0 m 1
 91 0 l 1
 91 285 l 1
 31 243 l 1
 1 285 l 1
 91 348 l 1
 91 695 l 1
 153 695 l 1
 153 391 l 1
 306 499 l 1
 336 457 l 1
 153 328 l 1
 153 56 l 1
 471 56 l 1
 471 0 l 1
EndSplineSet
Position2: "'cpsp' Capital Spacing in Lateinisch lookup 0 subtable" dx=5 dy=0 dh=10 dv=0
EndChar

StartChar: M
Encoding: 77 77 76
Width: 835
Flags: MW
HStem: 0 21G<87 87 87 149 686 686 686 748> 23 64<418 418 418 454 381 418> 631 64<149 163 149 149 672 686 672 672>
VStem: 87 62<0 631 0 695> 686 62<0 631 631 631>
LayerCount: 2
Fore
SplineSet
87 0 m 1
 87 695 l 1
 203 695 l 1
 418 87 l 1x78
 632 695 l 1
 748 695 l 1
 748 0 l 1
 686 0 l 1xb8
 686 631 l 1
 672 631 l 1
 454 23 l 1
 381 23 l 1x78
 163 631 l 1
 149 631 l 1
 149 0 l 1
 87 0 l 1
EndSplineSet
Position2: "'cpsp' Capital Spacing in Lateinisch lookup 0 subtable" dx=5 dy=0 dh=10 dv=0
EndChar

StartChar: N
Encoding: 78 78 77
Width: 672
Flags: MW
HStem: 0 55<464 523 500 523 500 584> 639 56<149 171 149 149>
VStem: 87 62<0 639 0 695 0 695> 523 61<55 695 0 695>
LayerCount: 2
Fore
SplineSet
87 0 m 1
 87 695 l 1
 209 695 l 1
 500 55 l 1
 523 55 l 1
 523 695 l 1
 584 695 l 1
 584 0 l 1
 464 0 l 1
 171 639 l 1
 149 639 l 1
 149 0 l 1
 87 0 l 1
EndSplineSet
Position2: "'cpsp' Capital Spacing in Lateinisch lookup 0 subtable" dx=5 dy=0 dh=10 dv=0
EndChar

StartChar: Nacute
Encoding: 323 323 78
Width: 672
Flags: MW
HStem: 0 55<464 523 500 523 500 584> 639 56<149 171 149 149>
VStem: 87 62<0 639 0 695 0 695> 523 61<55 695 0 695>
LayerCount: 2
Fore
SplineSet
87 0 m 1
 87 695 l 1
 209 695 l 1
 500 55 l 1
 523 55 l 1
 523 695 l 1
 584 695 l 1
 584 0 l 1
 464 0 l 1
 171 639 l 1
 149 639 l 1
 149 0 l 1
 87 0 l 1
224 829 m 1
 431 928 l 1
 453 874 l 1
 244 786 l 1
 224 829 l 1
EndSplineSet
Position2: "'cpsp' Capital Spacing in Lateinisch lookup 0 subtable" dx=5 dy=0 dh=10 dv=0
EndChar

StartChar: Ncaron
Encoding: 327 327 79
Width: 672
Flags: MW
HStem: 0 55<464 523 500 523 500 584> 639 56<149 171 149 149> 794 131<176 310 176 362>
VStem: 87 62<0 639 0 695 0 695> 523 61<55 695 0 695>
LayerCount: 2
Fore
SplineSet
87 0 m 1
 87 695 l 1
 209 695 l 1
 500 55 l 1
 523 55 l 1
 523 695 l 1
 584 695 l 1
 584 0 l 1
 464 0 l 1
 171 639 l 1
 149 639 l 1
 149 0 l 1
 87 0 l 1
310 794 m 1
 176 925 l 1
 245 925 l 1
 336 839 l 1
 426 925 l 1
 496 925 l 1
 362 794 l 1
 310 794 l 1
EndSplineSet
Position2: "'cpsp' Capital Spacing in Lateinisch lookup 0 subtable" dx=5 dy=0 dh=10 dv=0
EndChar

StartChar: Ncommaaccent
Encoding: 325 325 80
Width: 672
Flags: MW
HStem: 0 55<464 523 500 523 500 584> 639 56<149 171 149 149>
VStem: 87 62<0 639 0 695 0 695> 523 61<55 695 0 695>
LayerCount: 2
Fore
SplineSet
330 -78 m 1
 290 -278 l 1
 342 -278 l 1
 390 -78 l 1
 330 -78 l 1
87 0 m 1
 87 695 l 1
 209 695 l 1
 500 55 l 1
 523 55 l 1
 523 695 l 1
 584 695 l 1
 584 0 l 1
 464 0 l 1
 171 639 l 1
 149 639 l 1
 149 0 l 1
 87 0 l 1
EndSplineSet
Position2: "'cpsp' Capital Spacing in Lateinisch lookup 0 subtable" dx=5 dy=0 dh=10 dv=0
EndChar

StartChar: Ntilde
Encoding: 209 209 81
Width: 672
Flags: MW
HStem: 0 55<464 523 500 523 500 584> 639 56<149 171 149 149> 814 54<401.5 427 401.5 436.5> 871 52<245 272.5>
VStem: 87 62<0 639 0 695 0 695> 523 61<55 695 0 695>
LayerCount: 2
Fore
SplineSet
87 0 m 1
 87 695 l 1
 209 695 l 1
 500 55 l 1
 523 55 l 1
 523 695 l 1
 584 695 l 1
 584 0 l 1
 464 0 l 1
 171 639 l 1
 149 639 l 1
 149 0 l 1
 87 0 l 1
482 914 m 1xec
 497 869 l 1
 497 869 455 814 418 814 c 0xec
 373 814 289 871 256 871 c 0
 234 871 186 821 186 821 c 1
 171 867 l 1
 171 867 218 923 256 923 c 0xdc
 303 923 386 868 417 868 c 0
 437 868 482 914 482 914 c 1xec
EndSplineSet
Position2: "'cpsp' Capital Spacing in Lateinisch lookup 0 subtable" dx=5 dy=0 dh=10 dv=0
EndChar

StartChar: O
Encoding: 79 79 82
Width: 662
Flags: MW
HStem: -10 56<244.5 417.5 244.5 438.5> 649 56<246 415.5>
VStem: 60 64<245.5 442 245.5 458.5> 539 64<242 441.5>
LayerCount: 2
Fore
SplineSet
331 46 m 0
 504 46 539 140 539 344 c 0
 539 539 500 649 331 649 c 0
 161 649 124 540 124 344 c 0
 124 147 158 46 331 46 c 0
331 -10 m 0
 116 -10 60 113 60 344 c 0
 60 573 117 705 331 705 c 0
 545 705 603 574 603 344 c 0
 603 105 546 -10 331 -10 c 0
EndSplineSet
Position2: "'cpsp' Capital Spacing in Lateinisch lookup 0 subtable" dx=5 dy=0 dh=10 dv=0
EndChar

StartChar: Oacute
Encoding: 211 211 83
Width: 662
Flags: MW
HStem: -10 56<244.5 417.5 244.5 438.5> 649 56<246 415.5>
VStem: 60 64<245.5 442 245.5 458.5> 539 64<242 441.5>
LayerCount: 2
Fore
SplineSet
331 46 m 0
 504 46 539 140 539 344 c 0
 539 539 500 649 331 649 c 0
 161 649 124 540 124 344 c 0
 124 147 158 46 331 46 c 0
331 -10 m 0
 116 -10 60 113 60 344 c 0
 60 573 117 705 331 705 c 0
 545 705 603 574 603 344 c 0
 603 105 546 -10 331 -10 c 0
206 829 m 1
 413 928 l 1
 435 874 l 1
 226 786 l 1
 206 829 l 1
EndSplineSet
Position2: "'cpsp' Capital Spacing in Lateinisch lookup 0 subtable" dx=5 dy=0 dh=10 dv=0
EndChar

StartChar: Obreve
Encoding: 334 334 84
Width: 662
Flags: MW
HStem: -10 56<244.5 417.5 244.5 438.5> 649 56<246 415.5> 793 48<307 357.5 307 375>
VStem: 60 64<245.5 442 245.5 458.5> 539 64<242 441.5>
LayerCount: 2
Fore
SplineSet
331 46 m 0
 504 46 539 140 539 344 c 0
 539 539 500 649 331 649 c 0
 161 649 124 540 124 344 c 0
 124 147 158 46 331 46 c 0
331 -10 m 0
 116 -10 60 113 60 344 c 0
 60 573 117 705 331 705 c 0
 545 705 603 574 603 344 c 0
 603 105 546 -10 331 -10 c 0
182 920 m 1
 239 920 l 1
 240 871 282 841 332 841 c 0
 383 841 425 871 426 920 c 1
 482 920 l 1
 480 844 418 793 332 793 c 0
 246 793 185 844 182 920 c 1
EndSplineSet
Position2: "'cpsp' Capital Spacing in Lateinisch lookup 0 subtable" dx=5 dy=0 dh=10 dv=0
EndChar

StartChar: Ocircumflex
Encoding: 212 212 85
Width: 662
Flags: MW
HStem: -10 56<244.5 417.5 244.5 438.5> 649 56<246 415.5> 798 131<171 357 305 422 305 491>
VStem: 60 64<245.5 442 245.5 458.5> 539 64<242 441.5>
LayerCount: 2
Fore
SplineSet
331 46 m 0
 504 46 539 140 539 344 c 0
 539 539 500 649 331 649 c 0
 161 649 124 540 124 344 c 0
 124 147 158 46 331 46 c 0
331 -10 m 0
 116 -10 60 113 60 344 c 0
 60 573 117 705 331 705 c 0
 545 705 603 574 603 344 c 0
 603 105 546 -10 331 -10 c 0
171 798 m 1
 305 929 l 1
 357 929 l 1
 491 798 l 1
 422 798 l 1
 332 884 l 1
 241 798 l 1
 171 798 l 1
EndSplineSet
Position2: "'cpsp' Capital Spacing in Lateinisch lookup 0 subtable" dx=5 dy=0 dh=10 dv=0
EndChar

StartChar: Odieresis
Encoding: 214 214 86
Width: 662
Flags: MW
HStem: -10 56<244.5 417.5 244.5 438.5> 649 56<246 415.5> 819 80<202 261 202 261 403 461>
VStem: 60 64<245.5 442 245.5 458.5> 202 59<819 899 819 899> 403 58<819 899 819 899> 539 64<242 441.5>
LayerCount: 2
Fore
SplineSet
331 46 m 0
 504 46 539 140 539 344 c 0
 539 539 500 649 331 649 c 0
 161 649 124 540 124 344 c 0
 124 147 158 46 331 46 c 0
331 -10 m 0
 116 -10 60 113 60 344 c 0
 60 573 117 705 331 705 c 0
 545 705 603 574 603 344 c 0
 603 105 546 -10 331 -10 c 0
202 819 m 1
 202 899 l 1
 261 899 l 1
 261 819 l 1
 202 819 l 1
403 819 m 1
 403 899 l 1
 461 899 l 1
 461 819 l 1
 403 819 l 1
EndSplineSet
Position2: "'cpsp' Capital Spacing in Lateinisch lookup 0 subtable" dx=5 dy=0 dh=10 dv=0
EndChar

StartChar: Ograve
Encoding: 210 210 87
Width: 662
Flags: MW
HStem: -10 56<244.5 417.5 244.5 438.5> 649 56<246 415.5>
VStem: 60 64<245.5 442 245.5 458.5> 539 64<242 441.5>
LayerCount: 2
Fore
SplineSet
331 46 m 0
 504 46 539 140 539 344 c 0
 539 539 500 649 331 649 c 0
 161 649 124 540 124 344 c 0
 124 147 158 46 331 46 c 0
331 -10 m 0
 116 -10 60 113 60 344 c 0
 60 573 117 705 331 705 c 0
 545 705 603 574 603 344 c 0
 603 105 546 -10 331 -10 c 0
232 928 m 1
 439 829 l 1
 419 786 l 1
 210 874 l 1
 232 928 l 1
EndSplineSet
Position2: "'cpsp' Capital Spacing in Lateinisch lookup 0 subtable" dx=5 dy=0 dh=10 dv=0
EndChar

StartChar: Ohungarumlaut
Encoding: 336 336 88
Width: 662
Flags: MW
HStem: -10 56<244.5 417.5 244.5 438.5> 649 56<246 415.5>
VStem: 60 64<245.5 442 245.5 458.5> 539 64<242 441.5>
LayerCount: 2
Fore
SplineSet
331 46 m 0
 504 46 539 140 539 344 c 0
 539 539 500 649 331 649 c 0
 161 649 124 540 124 344 c 0
 124 147 158 46 331 46 c 0
331 -10 m 0
 116 -10 60 113 60 344 c 0
 60 573 117 705 331 705 c 0
 545 705 603 574 603 344 c 0
 603 105 546 -10 331 -10 c 0
344 787 m 1
 504 901 l 1
 545 869 l 1
 381 755 l 1
 344 787 l 1
149 787 m 1
 310 902 l 1
 349 869 l 1
 187 756 l 1
 149 787 l 1
EndSplineSet
Position2: "'cpsp' Capital Spacing in Lateinisch lookup 0 subtable" dx=5 dy=0 dh=10 dv=0
EndChar

StartChar: Omacron
Encoding: 332 332 89
Width: 662
Flags: MW
HStem: -10 56<244.5 417.5 244.5 438.5> 649 56<246 415.5> 819 49<180 482 180 482>
VStem: 60 64<245.5 442 245.5 458.5> 539 64<242 441.5>
LayerCount: 2
Fore
SplineSet
331 46 m 0
 504 46 539 140 539 344 c 0
 539 539 500 649 331 649 c 0
 161 649 124 540 124 344 c 0
 124 147 158 46 331 46 c 0
331 -10 m 0
 116 -10 60 113 60 344 c 0
 60 573 117 705 331 705 c 0
 545 705 603 574 603 344 c 0
 603 105 546 -10 331 -10 c 0
180 819 m 1
 180 868 l 1
 482 868 l 1
 482 819 l 1
 180 819 l 1
EndSplineSet
Position2: "'cpsp' Capital Spacing in Lateinisch lookup 0 subtable" dx=5 dy=0 dh=10 dv=0
EndChar

StartChar: Oslash
Encoding: 216 216 90
Width: 662
Flags: MW
HStem: -10 56<311 417.5 311 438.5> 649 56<246 353>
VStem: 60 64<283 442 283 458.5> 539 64<242 401>
LayerCount: 2
Fore
SplineSet
331 -10 m 0
 281 -10 240 -3 206 9 c 1
 149 -114 l 1
 102 -93 l 1
 161 33 l 1
 84 88 60 193 60 344 c 0
 60 573 117 705 331 705 c 0
 384 705 428 697 464 681 c 1
 518 796 l 1
 565 777 l 1
 507 654 l 1
 579 596 603 490 603 344 c 0
 603 105 546 -10 331 -10 c 0
124 344 m 0
 124 222 137 138 187 90 c 1
 439 627 l 1
 411 641 375 649 331 649 c 0
 161 649 124 540 124 344 c 0
331 46 m 0
 504 46 539 140 539 344 c 0
 539 458 525 544 480 595 c 1
 231 62 l 1
 258 51 291 46 331 46 c 0
EndSplineSet
Position2: "'cpsp' Capital Spacing in Lateinisch lookup 0 subtable" dx=5 dy=0 dh=10 dv=0
EndChar

StartChar: Oslashacute
Encoding: 510 510 91
Width: 664
Flags: MW
HStem: -10 56<312 418.5 312 439.5> 649 56<247 354>
VStem: 61 64<283 442 283 458.5> 540 64<242 401>
LayerCount: 2
Fore
SplineSet
332 -10 m 0
 282 -10 241 -3 207 9 c 1
 150 -114 l 1
 103 -93 l 1
 162 33 l 1
 85 88 61 193 61 344 c 0
 61 573 118 705 332 705 c 0
 385 705 429 697 465 681 c 1
 519 796 l 1
 566 777 l 1
 508 654 l 1
 580 596 604 490 604 344 c 0
 604 105 547 -10 332 -10 c 0
125 344 m 0
 125 222 138 138 188 90 c 1
 440 627 l 1
 412 641 376 649 332 649 c 0
 162 649 125 540 125 344 c 0
332 46 m 0
 505 46 540 140 540 344 c 0
 540 458 526 544 481 595 c 1
 232 62 l 1
 259 51 292 46 332 46 c 0
219 829 m 1
 426 928 l 1
 448 874 l 1
 239 786 l 1
 219 829 l 1
EndSplineSet
Position2: "'cpsp' Capital Spacing in Lateinisch lookup 0 subtable" dx=5 dy=0 dh=10 dv=0
EndChar

StartChar: Otilde
Encoding: 213 213 92
Width: 662
Flags: MW
HStem: -10 56<244.5 417.5 244.5 438.5> 649 56<246 415.5> 814 54<395.5 421 395.5 430.5> 871 52<239 266.5>
VStem: 60 64<245.5 442 245.5 458.5> 539 64<242 441.5>
LayerCount: 2
Fore
SplineSet
331 46 m 0
 504 46 539 140 539 344 c 0
 539 539 500 649 331 649 c 0
 161 649 124 540 124 344 c 0
 124 147 158 46 331 46 c 0
331 -10 m 0
 116 -10 60 113 60 344 c 0
 60 573 117 705 331 705 c 0
 545 705 603 574 603 344 c 0
 603 105 546 -10 331 -10 c 0
476 914 m 1xec
 491 869 l 1
 491 869 449 814 412 814 c 0xec
 367 814 283 871 250 871 c 0
 228 871 180 821 180 821 c 1
 165 867 l 1
 165 867 212 923 250 923 c 0xdc
 297 923 380 868 411 868 c 0
 431 868 476 914 476 914 c 1xec
EndSplineSet
Position2: "'cpsp' Capital Spacing in Lateinisch lookup 0 subtable" dx=5 dy=0 dh=10 dv=0
EndChar

StartChar: OE
Encoding: 338 338 93
Width: 930
Flags: MW
HStem: -10 60<245 343 245 344.5> -1 61<534 882 534 882 474 882> 327 60<534 822 534 822> 637 60<473 882 534 882 534 534> 648 59<246.5 343.5>
VStem: 60 64<246 447 246 463.5> 473 61<60 327 387 637>
LayerCount: 2
Fore
SplineSet
882 -1 m 1x76
 474 -1 l 1x76
 433 -5 363 -10 326 -10 c 0
 112 -10 60 112 60 345 c 0
 60 582 118 707 326 707 c 0xae
 363 707 436 703 473 697 c 1
 882 697 l 1
 882 637 l 1
 534 637 l 1
 534 387 l 1
 822 387 l 1
 822 327 l 1
 534 327 l 1
 534 60 l 1
 882 60 l 1
 882 -1 l 1x76
332 50 m 0xae
 354 50 438 55 473 58 c 1
 473 637 l 1xb6
 438 640 356 648 331 648 c 0
 162 648 124 548 124 346 c 0
 124 146 158 50 332 50 c 0xae
EndSplineSet
Position2: "'cpsp' Capital Spacing in Lateinisch lookup 0 subtable" dx=5 dy=0 dh=10 dv=0
EndChar

StartChar: P
Encoding: 80 80 94
Width: 593
Flags: MW
HStem: 0 21G<87 149 87 87> 242 55<149 341 149 341> 640 55<149 341 149 149>
VStem: 87 62<0 242 297 640> 493 64<418.5 531>
LayerCount: 2
Fore
SplineSet
341 242 m 2
 149 242 l 1
 149 0 l 1
 87 0 l 1
 87 695 l 1
 341 695 l 2
 490 695 557 623 557 475 c 0
 557 326 490 242 341 242 c 2
149 297 m 1
 341 297 l 2
 449 297 493 362 493 475 c 0
 493 587 449 640 341 640 c 2
 149 640 l 1
 149 297 l 1
EndSplineSet
Position2: "'cpsp' Capital Spacing in Lateinisch lookup 0 subtable" dx=5 dy=0 dh=10 dv=0
EndChar

StartChar: Q
Encoding: 81 81 95
Width: 662
Flags: MW
HStem: -10 56<244.5 349> 649 56<246 415.5>
VStem: 60 64<245.5 442 245.5 458.5> 539 64<260.5 441.5>
LayerCount: 2
Fore
SplineSet
512 -143 m 1
 425 1 l 1
 400 -6 367 -10 331 -10 c 0
 116 -10 60 112 60 344 c 0
 60 573 117 705 331 705 c 0
 545 705 603 574 603 344 c 0
 603 177 575 73 486 23 c 1
 571 -115 l 1
 512 -143 l 1
331 46 m 0
 504 46 539 139 539 344 c 0
 539 539 500 649 331 649 c 0
 161 649 124 540 124 344 c 0
 124 147 158 46 331 46 c 0
EndSplineSet
Position2: "'cpsp' Capital Spacing in Lateinisch lookup 0 subtable" dx=5 dy=0 dh=10 dv=0
EndChar

StartChar: R
Encoding: 82 82 96
Width: 615
Flags: MW
HStem: 0 21G<87 149 87 87 498 498 498 567> 274 55<149 342 342 361 149 342> 640 55<149 342 149 149>
VStem: 87 62<0 274 0 329 329 640> 494 64<441.5 540>
LayerCount: 2
Fore
SplineSet
361 274 m 1
 149 274 l 1
 149 0 l 1
 87 0 l 1
 87 695 l 1
 342 695 l 2
 485 695 558 633 558 489 c 0
 558 384 517 311 424 286 c 1
 567 0 l 1
 498 0 l 1
 361 274 l 1
494 488 m 0
 494 592 446 640 342 640 c 2
 149 640 l 1
 149 329 l 1
 342 329 l 2
 455 329 494 395 494 488 c 0
EndSplineSet
Position2: "'cpsp' Capital Spacing in Lateinisch lookup 0 subtable" dx=5 dy=0 dh=10 dv=0
EndChar

StartChar: Racute
Encoding: 340 340 97
Width: 615
Flags: MW
HStem: 329 311<149 342 149 342> 695 21G<87 342 87 87>
VStem: 87 480<0 695 0 0>
LayerCount: 2
Fore
SplineSet
149 274 m 1
 361 274 l 1
 498 0 l 1
 567 0 l 1
 424 286 l 1
 517 311 558 384 558 489 c 0
 558 633 485 695 342 695 c 2
 87 695 l 1
 87 0 l 1
 149 0 l 1
 149 274 l 1
494 488 m 0
 494 395 455 329 342 329 c 2
 149 329 l 1
 149 640 l 1
 342 640 l 2
 446 640 494 592 494 488 c 0
191 829 m 1
 398 928 l 1
 420 874 l 1
 211 786 l 1
 191 829 l 1
EndSplineSet
Position2: "'cpsp' Capital Spacing in Lateinisch lookup 0 subtable" dx=5 dy=0 dh=10 dv=0
EndChar

StartChar: Rcaron
Encoding: 344 344 98
Width: 615
Flags: MW
HStem: 0 21G<87 149 87 87 498 498 498 567> 274 55<149 342 342 361 149 342> 640 55<149 342 149 149> 798 131<140 274 140 326>
VStem: 87 62<0 274 0 329 329 640> 494 64<441.5 540>
LayerCount: 2
Fore
SplineSet
361 274 m 1
 149 274 l 1
 149 0 l 1
 87 0 l 1
 87 695 l 1
 342 695 l 2
 485 695 558 633 558 489 c 0
 558 384 517 311 424 286 c 1
 567 0 l 1
 498 0 l 1
 361 274 l 1
494 488 m 0
 494 592 446 640 342 640 c 2
 149 640 l 1
 149 329 l 1
 342 329 l 2
 455 329 494 395 494 488 c 0
274 798 m 1
 140 929 l 1
 209 929 l 1
 300 843 l 1
 390 929 l 1
 460 929 l 1
 326 798 l 1
 274 798 l 1
EndSplineSet
Position2: "'cpsp' Capital Spacing in Lateinisch lookup 0 subtable" dx=5 dy=0 dh=10 dv=0
EndChar

StartChar: Rcommaaccent
Encoding: 342 342 99
Width: 615
Flags: MW
HStem: -278 200<254 353 293 305> 0 21G<87 149 87 87 498 498 498 567> 274 55<149 342 342 361 149 342> 640 55<149 342 149 149>
VStem: 87 62<0 274 0 329 329 640> 494 64<441.5 540>
LayerCount: 2
Fore
SplineSet
254 -278 m 1
 293 -78 l 1
 353 -78 l 1
 305 -278 l 1
 254 -278 l 1
361 274 m 1
 149 274 l 1
 149 0 l 1
 87 0 l 1
 87 695 l 1
 342 695 l 2
 485 695 558 633 558 489 c 0
 558 384 517 311 424 286 c 1
 567 0 l 1
 498 0 l 1
 361 274 l 1
494 488 m 0
 494 592 446 640 342 640 c 2
 149 640 l 1
 149 329 l 1
 342 329 l 2
 455 329 494 395 494 488 c 0
EndSplineSet
Position2: "'cpsp' Capital Spacing in Lateinisch lookup 0 subtable" dx=5 dy=0 dh=10 dv=0
EndChar

StartChar: S
Encoding: 83 83 100
Width: 541
Flags: MW
HStem: -8 21G<233.5 341.5> -8 55<235.5 323 235.5 341.5> 651 55<223 304>
VStem: 51 63<476.5 571 476.5 590> 428 63<145.5 242.5>
LayerCount: 2
Fore
SplineSet
476 687 m 1x78
 471 634 l 1
 471 634 333 651 275 651 c 0
 171 651 114 614 114 528 c 0
 114 425 167 410 290 386 c 0
 426 359 491 326 491 203 c 0
 491 49 410 -8 273 -8 c 0x78
 194 -8 56 11 56 11 c 1xb8
 63 64 l 1
 63 64 200 47 271 47 c 0
 375 47 428 92 428 199 c 0
 428 286 383 308 267 329 c 0
 126 356 51 386 51 524 c 0
 51 656 137 706 271 706 c 0
 352 706 476 687 476 687 c 1x78
EndSplineSet
Position2: "'cpsp' Capital Spacing in Lateinisch lookup 0 subtable" dx=5 dy=0 dh=10 dv=0
EndChar

StartChar: Sacute
Encoding: 346 346 101
Width: 541
Flags: MW
HStem: -8 21G<233.5 341.5> -8 55<235.5 323 235.5 341.5> 651 55<223 304>
VStem: 51 63<476.5 571 476.5 590> 428 63<145.5 242.5>
LayerCount: 2
Fore
SplineSet
476 687 m 1x78
 471 634 l 1
 471 634 333 651 275 651 c 0
 171 651 114 614 114 528 c 0
 114 425 167 410 290 386 c 0
 426 359 491 326 491 203 c 0
 491 49 410 -8 273 -8 c 0x78
 194 -8 56 11 56 11 c 1xb8
 63 64 l 1
 63 64 200 47 271 47 c 0
 375 47 428 92 428 199 c 0
 428 286 383 308 267 329 c 0
 126 356 51 386 51 524 c 0
 51 656 137 706 271 706 c 0
 352 706 476 687 476 687 c 1x78
168 829 m 1
 375 928 l 1
 397 874 l 1
 188 786 l 1
 168 829 l 1
EndSplineSet
Position2: "'cpsp' Capital Spacing in Lateinisch lookup 0 subtable" dx=5 dy=0 dh=10 dv=0
EndChar

StartChar: Scaron
Encoding: 352 352 102
Width: 541
Flags: MW
HStem: -8 21G<233.5 341.5> -8 55<235.5 323 235.5 341.5> 651 55<223 304> 798 131<119 253 119 305>
VStem: 51 63<476.5 571 476.5 590> 428 63<145.5 242.5>
LayerCount: 2
Fore
SplineSet
476 687 m 1x6c
 471 634 l 1
 471 634 333 651 275 651 c 0
 171 651 114 614 114 528 c 0
 114 425 167 410 290 386 c 0
 426 359 491 326 491 203 c 0
 491 49 410 -8 273 -8 c 0x7c
 194 -8 56 11 56 11 c 1xac
 63 64 l 1
 63 64 200 47 271 47 c 0
 375 47 428 92 428 199 c 0
 428 286 383 308 267 329 c 0
 126 356 51 386 51 524 c 0
 51 656 137 706 271 706 c 0
 352 706 476 687 476 687 c 1x6c
253 798 m 1
 119 929 l 1
 188 929 l 1
 279 843 l 1
 369 929 l 1
 439 929 l 1
 305 798 l 1
 253 798 l 1
EndSplineSet
Position2: "'cpsp' Capital Spacing in Lateinisch lookup 0 subtable" dx=5 dy=0 dh=10 dv=0
EndChar

StartChar: Scedilla
Encoding: 350 350 103
Width: 541
Flags: MW
HStem: -211 43<293 318 289 341.5> -90 38<295 304> -7 21G<295 295> -7 54<295 295> 651 55<223 304>
VStem: 51 63<476.5 571 476.5 590> 257 38<-52 -8 -8 -8> 349 55<-142.5 -113.5> 428 63<145.5 242.5>
LayerCount: 2
Fore
SplineSet
404 -127 m 0xdf80
 404 -186 368 -211 315 -211 c 0
 271 -211 231 -205 231 -205 c 1
 233 -165 l 1
 233 -165 274 -168 304 -168 c 0
 332 -168 349 -158 349 -127 c 0
 349 -100 332 -90 304 -90 c 2
 257 -90 l 1
 257 -8 l 1xdf80
 176 -6 56 11 56 11 c 1xee80
 63 64 l 1
 63 64 200 47 271 47 c 0
 375 47 428 92 428 199 c 0
 428 286 383 308 267 329 c 0
 126 356 51 386 51 524 c 0
 51 656 137 706 271 706 c 0
 352 706 476 687 476 687 c 1
 471 634 l 1
 471 634 333 651 275 651 c 0
 171 651 114 614 114 528 c 0
 114 425 167 410 290 386 c 0
 426 359 491 326 491 203 c 0xde80
 491 57 418 -1 295 -7 c 1
 295 -52 l 1
 368 -52 404 -66 404 -127 c 0xdf80
EndSplineSet
Substitution2: "'locl' Localized Forms in Lateinisch lookup 0 subtable" Scommaaccent
Position2: "'cpsp' Capital Spacing in Lateinisch lookup 0 subtable" dx=5 dy=0 dh=10 dv=0
EndChar

StartChar: Scircumflex
Encoding: 348 348 104
Width: 541
Flags: MW
HStem: -8 21G<233.5 341.5> -8 55<235.5 323 235.5 341.5> 651 55<223 304> 794 131<113 299 247 364 247 433>
VStem: 51 63<476.5 571 476.5 590> 428 63<145.5 242.5>
LayerCount: 2
Fore
SplineSet
476 687 m 1x6c
 471 634 l 1
 471 634 333 651 275 651 c 0
 171 651 114 614 114 528 c 0
 114 425 167 410 290 386 c 0
 426 359 491 326 491 203 c 0
 491 49 410 -8 273 -8 c 0x7c
 194 -8 56 11 56 11 c 1xac
 63 64 l 1
 63 64 200 47 271 47 c 0
 375 47 428 92 428 199 c 0
 428 286 383 308 267 329 c 0
 126 356 51 386 51 524 c 0
 51 656 137 706 271 706 c 0
 352 706 476 687 476 687 c 1x6c
113 794 m 1
 247 925 l 1
 299 925 l 1
 433 794 l 1
 364 794 l 1
 274 880 l 1
 183 794 l 1
 113 794 l 1
EndSplineSet
Position2: "'cpsp' Capital Spacing in Lateinisch lookup 0 subtable" dx=5 dy=0 dh=10 dv=0
EndChar

StartChar: Scommaaccent
Encoding: 536 536 105
Width: 541
Flags: MW
HStem: -8 21G<233.5 341.5> -8 55<235.5 323 235.5 341.5> 651 55<223 304>
VStem: 51 63<476.5 571 476.5 590> 428 63<145.5 242.5>
LayerCount: 2
Fore
SplineSet
258 -78 m 1x78
 218 -278 l 1
 270 -278 l 1
 318 -78 l 1
 258 -78 l 1x78
476 687 m 1
 471 634 l 1
 471 634 333 651 275 651 c 0
 171 651 114 614 114 528 c 0
 114 425 167 410 290 386 c 0
 426 359 491 326 491 203 c 0
 491 49 410 -8 273 -8 c 0x78
 194 -8 56 11 56 11 c 1xb8
 63 64 l 1
 63 64 200 47 271 47 c 0
 375 47 428 92 428 199 c 0
 428 286 383 308 267 329 c 0
 126 356 51 386 51 524 c 0
 51 656 137 706 271 706 c 0
 352 706 476 687 476 687 c 1
EndSplineSet
Position2: "'cpsp' Capital Spacing in Lateinisch lookup 0 subtable" dx=5 dy=0 dh=10 dv=0
EndChar

StartChar: T
Encoding: 84 84 106
Width: 526
Flags: MW
HStem: 0 21G<233 295 233 233> 639 56<13 513 13 233 295 295 295 513>
VStem: 233 62<0 639 0 639>
LayerCount: 2
Fore
SplineSet
13 639 m 1
 13 695 l 1
 513 695 l 1
 513 639 l 1
 295 639 l 1
 295 0 l 1
 233 0 l 1
 233 639 l 1
 13 639 l 1
EndSplineSet
Position2: "'cpsp' Capital Spacing in Lateinisch lookup 0 subtable" dx=5 dy=0 dh=10 dv=0
EndChar

StartChar: Tbar
Encoding: 358 358 107
Width: 529
Flags: MW
HStem: 0 21G<235 297 235 235> 312 53<65 235 65 235 297 467> 639 56<15 515 15 235 297 297 297 515>
VStem: 235 62<0 312 0 312 365 639>
LayerCount: 2
Fore
SplineSet
15 639 m 1
 15 695 l 1
 515 695 l 1
 515 639 l 1
 297 639 l 1
 297 365 l 1
 467 365 l 1
 467 312 l 1
 297 312 l 1
 297 0 l 1
 235 0 l 1
 235 312 l 1
 65 312 l 1
 65 365 l 1
 235 365 l 1
 235 639 l 1
 15 639 l 1
EndSplineSet
Position2: "'cpsp' Capital Spacing in Lateinisch lookup 0 subtable" dx=5 dy=0 dh=10 dv=0
EndChar

StartChar: Tcaron
Encoding: 356 356 108
Width: 526
Flags: MW
HStem: 0 21G<233 295 233 233> 639 56<13 513 13 233 295 295 295 513> 798 131<104 238 104 290>
VStem: 233 62<0 639 0 639>
LayerCount: 2
Fore
SplineSet
13 639 m 1
 13 695 l 1
 513 695 l 1
 513 639 l 1
 295 639 l 1
 295 0 l 1
 233 0 l 1
 233 639 l 1
 13 639 l 1
238 798 m 1
 104 929 l 1
 173 929 l 1
 264 843 l 1
 354 929 l 1
 424 929 l 1
 290 798 l 1
 238 798 l 1
EndSplineSet
Position2: "'cpsp' Capital Spacing in Lateinisch lookup 0 subtable" dx=5 dy=0 dh=10 dv=0
EndChar

StartChar: Tcommaaccent
Encoding: 538 538 109
Width: 526
Flags: MW
HStem: 0 21G<233 295 233 233> 639 56<13 513 13 233 295 295 295 513>
VStem: 233 62<0 639 0 639>
LayerCount: 2
Fore
SplineSet
252 -78 m 1
 213 -278 l 1
 264 -278 l 1
 312 -78 l 1
 252 -78 l 1
13 639 m 1
 13 695 l 1
 513 695 l 1
 513 639 l 1
 295 639 l 1
 295 0 l 1
 233 0 l 1
 233 639 l 1
 13 639 l 1
EndSplineSet
Position2: "'cpsp' Capital Spacing in Lateinisch lookup 0 subtable" dx=5 dy=0 dh=10 dv=0
EndChar

StartChar: U
Encoding: 85 85 110
Width: 642
Flags: MW
HStem: -10 56<263 374.5 263 394.5>
VStem: 83 61<204 695> 497 62<204 695>
LayerCount: 2
Fore
SplineSet
144 204 m 2
 144 89 209 46 317 46 c 0
 432 46 497 88 497 204 c 2
 497 695 l 1
 559 695 l 1
 559 204 l 2
 559 49 472 -10 317 -10 c 0
 170 -10 83 49 83 204 c 2
 83 695 l 1
 144 695 l 1
 144 204 l 2
EndSplineSet
Position2: "'cpsp' Capital Spacing in Lateinisch lookup 0 subtable" dx=5 dy=0 dh=10 dv=0
EndChar

StartChar: Uacute
Encoding: 218 218 111
Width: 642
Flags: MW
HStem: -10 56<263 374.5 263 394.5>
VStem: 83 61<204 695> 497 62<204 695>
LayerCount: 2
Fore
SplineSet
144 204 m 2
 144 89 209 46 317 46 c 0
 432 46 497 88 497 204 c 2
 497 695 l 1
 559 695 l 1
 559 204 l 2
 559 49 472 -10 317 -10 c 0
 170 -10 83 49 83 204 c 2
 83 695 l 1
 144 695 l 1
 144 204 l 2
205 829 m 1
 412 928 l 1
 434 874 l 1
 225 786 l 1
 205 829 l 1
EndSplineSet
Position2: "'cpsp' Capital Spacing in Lateinisch lookup 0 subtable" dx=5 dy=0 dh=10 dv=0
EndChar

StartChar: Ubreve
Encoding: 364 364 112
Width: 642
Flags: MW
HStem: -10 56<263 374.5 263 394.5> 793 48<297 347.5 297 365>
VStem: 83 61<204 695> 497 62<204 695>
LayerCount: 2
Fore
SplineSet
144 204 m 2
 144 89 209 46 317 46 c 0
 432 46 497 88 497 204 c 2
 497 695 l 1
 559 695 l 1
 559 204 l 2
 559 49 472 -10 317 -10 c 0
 170 -10 83 49 83 204 c 2
 83 695 l 1
 144 695 l 1
 144 204 l 2
172 920 m 1
 229 920 l 1
 230 871 272 841 322 841 c 0
 373 841 415 871 416 920 c 1
 472 920 l 1
 470 844 408 793 322 793 c 0
 236 793 175 844 172 920 c 1
EndSplineSet
Position2: "'cpsp' Capital Spacing in Lateinisch lookup 0 subtable" dx=5 dy=0 dh=10 dv=0
EndChar

StartChar: Ucircumflex
Encoding: 219 219 113
Width: 642
Flags: MW
HStem: -10 56<263 374.5 263 394.5> 798 131<160 346 294 411 294 480>
VStem: 83 61<204 695> 497 62<204 695>
LayerCount: 2
Fore
SplineSet
144 204 m 2
 144 89 209 46 317 46 c 0
 432 46 497 88 497 204 c 2
 497 695 l 1
 559 695 l 1
 559 204 l 2
 559 49 472 -10 317 -10 c 0
 170 -10 83 49 83 204 c 2
 83 695 l 1
 144 695 l 1
 144 204 l 2
160 798 m 1
 294 929 l 1
 346 929 l 1
 480 798 l 1
 411 798 l 1
 321 884 l 1
 230 798 l 1
 160 798 l 1
EndSplineSet
Position2: "'cpsp' Capital Spacing in Lateinisch lookup 0 subtable" dx=5 dy=0 dh=10 dv=0
EndChar

StartChar: Udieresis
Encoding: 220 220 114
Width: 642
Flags: MW
HStem: -10 56<263 374.5 263 394.5> 819 80<191 250 191 250 392 450>
VStem: 83 61<204 695> 191 59<819 899 819 899> 392 58<819 899 819 899> 497 62<204 695>
LayerCount: 2
Fore
SplineSet
144 204 m 2
 144 89 209 46 317 46 c 0
 432 46 497 88 497 204 c 2
 497 695 l 1
 559 695 l 1
 559 204 l 2
 559 49 472 -10 317 -10 c 0
 170 -10 83 49 83 204 c 2
 83 695 l 1
 144 695 l 1
 144 204 l 2
191 819 m 1
 191 899 l 1
 250 899 l 1
 250 819 l 1
 191 819 l 1
392 819 m 1
 392 899 l 1
 450 899 l 1
 450 819 l 1
 392 819 l 1
EndSplineSet
Position2: "'cpsp' Capital Spacing in Lateinisch lookup 0 subtable" dx=5 dy=0 dh=10 dv=0
EndChar

StartChar: Ugrave
Encoding: 217 217 115
Width: 642
Flags: MW
HStem: -10 56<263 374.5 263 394.5>
VStem: 83 61<204 695> 497 62<204 695>
LayerCount: 2
Fore
SplineSet
144 204 m 2
 144 89 209 46 317 46 c 0
 432 46 497 88 497 204 c 2
 497 695 l 1
 559 695 l 1
 559 204 l 2
 559 49 472 -10 317 -10 c 0
 170 -10 83 49 83 204 c 2
 83 695 l 1
 144 695 l 1
 144 204 l 2
223 928 m 1
 430 829 l 1
 410 786 l 1
 201 874 l 1
 223 928 l 1
EndSplineSet
Position2: "'cpsp' Capital Spacing in Lateinisch lookup 0 subtable" dx=5 dy=0 dh=10 dv=0
EndChar

StartChar: Uhungarumlaut
Encoding: 368 368 116
Width: 642
Flags: MW
HStem: -10 56<263 374.5 263 394.5>
VStem: 83 61<204 695> 497 62<204 695>
LayerCount: 2
Fore
SplineSet
144 204 m 2
 144 89 209 46 317 46 c 0
 432 46 497 88 497 204 c 2
 497 695 l 1
 559 695 l 1
 559 204 l 2
 559 49 472 -10 317 -10 c 0
 170 -10 83 49 83 204 c 2
 83 695 l 1
 144 695 l 1
 144 204 l 2
350 787 m 1
 510 901 l 1
 551 869 l 1
 387 755 l 1
 350 787 l 1
155 787 m 1
 316 902 l 1
 355 869 l 1
 193 756 l 1
 155 787 l 1
EndSplineSet
Position2: "'cpsp' Capital Spacing in Lateinisch lookup 0 subtable" dx=5 dy=0 dh=10 dv=0
EndChar

StartChar: Umacron
Encoding: 362 362 117
Width: 642
Flags: MW
HStem: -10 56<263 374.5 263 394.5> 819 49<171 473 171 473>
VStem: 83 61<204 695> 497 62<204 695>
LayerCount: 2
Fore
SplineSet
144 204 m 2
 144 89 209 46 317 46 c 0
 432 46 497 88 497 204 c 2
 497 695 l 1
 559 695 l 1
 559 204 l 2
 559 49 472 -10 317 -10 c 0
 170 -10 83 49 83 204 c 2
 83 695 l 1
 144 695 l 1
 144 204 l 2
171 819 m 1
 171 868 l 1
 473 868 l 1
 473 819 l 1
 171 819 l 1
EndSplineSet
Position2: "'cpsp' Capital Spacing in Lateinisch lookup 0 subtable" dx=5 dy=0 dh=10 dv=0
EndChar

StartChar: Uogonek
Encoding: 370 370 118
Width: 642
Flags: MW
HStem: -204 51<368 382> -10 56<262 320.5>
VStem: 82 61<204 695> 279 59<-120 -100> 496 62<204 695>
LayerCount: 2
Fore
SplineSet
143 204 m 2
 143 89 208 46 316 46 c 0
 431 46 496 88 496 204 c 2
 496 695 l 1
 558 695 l 1
 558 204 l 2
 558 84 506 22 412 0 c 0
 408 -4 338 -76 338 -107 c 0
 338 -133 355 -153 381 -153 c 0
 397 -153 433 -147 433 -147 c 1
 439 -195 l 1
 439 -195 398 -204 366 -204 c 0
 316 -204 279 -172 279 -119 c 0
 279 -81 319 -34 343 -9 c 1
 334 -10 325 -10 316 -10 c 0
 169 -10 82 49 82 204 c 2
 82 695 l 1
 143 695 l 1
 143 204 l 2
EndSplineSet
Position2: "'cpsp' Capital Spacing in Lateinisch lookup 0 subtable" dx=5 dy=0 dh=10 dv=0
EndChar

StartChar: Uring
Encoding: 366 366 119
Width: 642
Flags: MW
HStem: -10 56<263 374.5 263 394.5> 746 44<302.5 341.5 302.5 354> 903 44<302.5 341.5>
VStem: 83 61<204 695> 212 47<828.5 865 828.5 878.5> 385 47<828.5 865> 497 62<204 695>
LayerCount: 2
Fore
SplineSet
144 204 m 2
 144 89 209 46 317 46 c 0
 432 46 497 88 497 204 c 2
 497 695 l 1
 559 695 l 1
 559 204 l 2
 559 49 472 -10 317 -10 c 0
 170 -10 83 49 83 204 c 2
 83 695 l 1
 144 695 l 1
 144 204 l 2
432 847 m 0
 432 783 386 746 322 746 c 0
 258 746 212 783 212 847 c 0
 212 910 258 947 322 947 c 0
 386 947 432 910 432 847 c 0
259 847 m 0
 259 810 283 790 322 790 c 0
 361 790 385 810 385 847 c 0
 385 883 361 903 322 903 c 0
 283 903 259 883 259 847 c 0
EndSplineSet
Position2: "'cpsp' Capital Spacing in Lateinisch lookup 0 subtable" dx=5 dy=0 dh=10 dv=0
EndChar

StartChar: Utilde
Encoding: 360 360 120
Width: 642
Flags: MW
HStem: -10 56<263 374.5 263 394.5> 814 54<388.5 414 388.5 423.5> 871 52<232 259.5>
VStem: 83 61<204 695> 497 62<204 695>
LayerCount: 2
Fore
SplineSet
144 204 m 2
 144 89 209 46 317 46 c 0
 432 46 497 88 497 204 c 2
 497 695 l 1
 559 695 l 1
 559 204 l 2
 559 49 472 -10 317 -10 c 0
 170 -10 83 49 83 204 c 2
 83 695 l 1
 144 695 l 1
 144 204 l 2
469 914 m 1xd8
 484 869 l 1
 484 869 442 814 405 814 c 0xd8
 360 814 276 871 243 871 c 0
 221 871 173 821 173 821 c 1
 158 867 l 1
 158 867 205 923 243 923 c 0xb8
 290 923 373 868 404 868 c 0
 424 868 469 914 469 914 c 1xd8
EndSplineSet
Position2: "'cpsp' Capital Spacing in Lateinisch lookup 0 subtable" dx=5 dy=0 dh=10 dv=0
EndChar

StartChar: V
Encoding: 86 86 121
Width: 577
Flags: MW
HStem: 0 55<259 318 259 364 213 318>
VStem: 26 524<695 695>
LayerCount: 2
Fore
SplineSet
487 695 m 1
 550 695 l 1
 364 0 l 1
 213 0 l 1
 26 695 l 1
 90 695 l 1
 259 55 l 1
 318 55 l 1
 487 695 l 1
EndSplineSet
Position2: "'cpsp' Capital Spacing in Lateinisch lookup 0 subtable" dx=5 dy=0 dh=10 dv=0
EndChar

StartChar: W
Encoding: 87 87 122
Width: 874
Flags: MW
HStem: 0 55<222 255 222 300 176 255 619 652>
VStem: 33 808<695 695>
LayerCount: 2
Fore
SplineSet
33 695 m 1
 96 695 l 1
 222 55 l 1
 255 55 l 1
 401 687 l 1
 474 687 l 1
 619 55 l 1
 652 55 l 1
 778 695 l 1
 841 695 l 1
 698 0 l 1
 574 0 l 1
 437 610 l 1
 300 0 l 1
 176 0 l 1
 33 695 l 1
EndSplineSet
Position2: "'cpsp' Capital Spacing in Lateinisch lookup 0 subtable" dx=5 dy=0 dh=10 dv=0
EndChar

StartChar: Wacute
Encoding: 7810 7810 123
Width: 874
Flags: MW
HStem: 0 55<222 255 222 300 176 255 619 652>
VStem: 33 808<695 695>
LayerCount: 2
Fore
SplineSet
33 695 m 1
 96 695 l 1
 222 55 l 1
 255 55 l 1
 401 687 l 1
 474 687 l 1
 619 55 l 1
 652 55 l 1
 778 695 l 1
 841 695 l 1
 698 0 l 1
 574 0 l 1
 437 610 l 1
 300 0 l 1
 176 0 l 1
 33 695 l 1
332 829 m 1
 539 928 l 1
 561 874 l 1
 352 786 l 1
 332 829 l 1
EndSplineSet
Position2: "'cpsp' Capital Spacing in Lateinisch lookup 0 subtable" dx=5 dy=0 dh=10 dv=0
EndChar

StartChar: Wcircumflex
Encoding: 372 372 124
Width: 874
Flags: MW
HStem: 0 55<222 255 222 300 176 255 619 652> 794 131<277 463 411 528 411 597>
VStem: 33 808<695 695>
LayerCount: 2
Fore
SplineSet
33 695 m 1
 96 695 l 1
 222 55 l 1
 255 55 l 1
 401 687 l 1
 474 687 l 1
 619 55 l 1
 652 55 l 1
 778 695 l 1
 841 695 l 1
 698 0 l 1
 574 0 l 1
 437 610 l 1
 300 0 l 1
 176 0 l 1
 33 695 l 1
277 794 m 1
 411 925 l 1
 463 925 l 1
 597 794 l 1
 528 794 l 1
 438 880 l 1
 347 794 l 1
 277 794 l 1
EndSplineSet
Position2: "'cpsp' Capital Spacing in Lateinisch lookup 0 subtable" dx=5 dy=0 dh=10 dv=0
EndChar

StartChar: Wdieresis
Encoding: 7812 7812 125
Width: 874
Flags: MW
HStem: 0 55<222 255 222 300 176 255 619 652> 819 80<307 366 307 366 508 566>
VStem: 307 59<819 899 819 899> 508 58<819 899 819 899>
LayerCount: 2
Fore
SplineSet
33 695 m 1
 96 695 l 1
 222 55 l 1
 255 55 l 1
 401 687 l 1
 474 687 l 1
 619 55 l 1
 652 55 l 1
 778 695 l 1
 841 695 l 1
 698 0 l 1
 574 0 l 1
 437 610 l 1
 300 0 l 1
 176 0 l 1
 33 695 l 1
307 819 m 1
 307 899 l 1
 366 899 l 1
 366 819 l 1
 307 819 l 1
508 819 m 1
 508 899 l 1
 566 899 l 1
 566 819 l 1
 508 819 l 1
EndSplineSet
Position2: "'cpsp' Capital Spacing in Lateinisch lookup 0 subtable" dx=5 dy=0 dh=10 dv=0
EndChar

StartChar: Wgrave
Encoding: 7808 7808 126
Width: 874
Flags: MW
HStem: 0 55<222 255 222 300 176 255 619 652>
VStem: 33 808<695 695>
LayerCount: 2
Fore
SplineSet
33 695 m 1
 96 695 l 1
 222 55 l 1
 255 55 l 1
 401 687 l 1
 474 687 l 1
 619 55 l 1
 652 55 l 1
 778 695 l 1
 841 695 l 1
 698 0 l 1
 574 0 l 1
 437 610 l 1
 300 0 l 1
 176 0 l 1
 33 695 l 1
339 928 m 1
 546 829 l 1
 526 786 l 1
 317 874 l 1
 339 928 l 1
EndSplineSet
Position2: "'cpsp' Capital Spacing in Lateinisch lookup 0 subtable" dx=5 dy=0 dh=10 dv=0
EndChar

StartChar: X
Encoding: 88 88 127
Width: 555
Flags: MW
HStem: 0 21G<21 89 21 21 464 534 464 464>
VStem: 21 513<0 0>
LayerCount: 2
Fore
SplineSet
91 695 m 1
 279 388 l 1
 466 695 l 1
 534 695 l 1
 318 343 l 1
 534 0 l 1
 464 0 l 1
 278 300 l 1
 89 0 l 1
 21 0 l 1
 239 342 l 1
 21 695 l 1
 91 695 l 1
EndSplineSet
Position2: "'cpsp' Capital Spacing in Lateinisch lookup 0 subtable" dx=5 dy=0 dh=10 dv=0
EndChar

StartChar: Y
Encoding: 89 89 128
Width: 534
Flags: MW
HStem: 0 21G<236 298 236 236>
VStem: 236 62<0 294 0 294>
LayerCount: 2
Fore
SplineSet
298 294 m 1
 298 0 l 1
 236 0 l 1
 236 294 l 1
 13 695 l 1
 82 695 l 1
 267 358 l 1
 451 695 l 1
 521 695 l 1
 298 294 l 1
EndSplineSet
Position2: "'cpsp' Capital Spacing in Lateinisch lookup 0 subtable" dx=5 dy=0 dh=10 dv=0
EndChar

StartChar: Yacute
Encoding: 221 221 129
Width: 534
Flags: MW
HStem: 0 21G<236 298 236 236>
VStem: 236 62<0 294 0 294>
LayerCount: 2
Fore
SplineSet
298 294 m 1
 298 0 l 1
 236 0 l 1
 236 294 l 1
 13 695 l 1
 82 695 l 1
 267 358 l 1
 451 695 l 1
 521 695 l 1
 298 294 l 1
175 829 m 1
 382 928 l 1
 404 874 l 1
 195 786 l 1
 175 829 l 1
EndSplineSet
Position2: "'cpsp' Capital Spacing in Lateinisch lookup 0 subtable" dx=5 dy=0 dh=10 dv=0
EndChar

StartChar: Ycircumflex
Encoding: 374 374 130
Width: 534
Flags: MW
HStem: 0 21G<236 298 236 236> 798 131<107 293 241 358 241 427>
VStem: 236 62<0 294 0 294>
LayerCount: 2
Fore
SplineSet
298 294 m 1
 298 0 l 1
 236 0 l 1
 236 294 l 1
 13 695 l 1
 82 695 l 1
 267 358 l 1
 451 695 l 1
 521 695 l 1
 298 294 l 1
107 798 m 1
 241 929 l 1
 293 929 l 1
 427 798 l 1
 358 798 l 1
 268 884 l 1
 177 798 l 1
 107 798 l 1
EndSplineSet
Position2: "'cpsp' Capital Spacing in Lateinisch lookup 0 subtable" dx=5 dy=0 dh=10 dv=0
EndChar

StartChar: Ydieresis
Encoding: 376 376 131
Width: 534
Flags: MW
HStem: 0 21G<236 298 236 236> 819 80<136 195 136 195 337 395>
VStem: 136 59<819 899 819 899> 236 62<0 294 0 294> 337 58<819 899 819 899>
LayerCount: 2
Fore
SplineSet
298 294 m 1
 298 0 l 1
 236 0 l 1
 236 294 l 1
 13 695 l 1
 82 695 l 1
 267 358 l 1
 451 695 l 1
 521 695 l 1
 298 294 l 1
136 819 m 1
 136 899 l 1
 195 899 l 1
 195 819 l 1
 136 819 l 1
337 819 m 1
 337 899 l 1
 395 899 l 1
 395 819 l 1
 337 819 l 1
EndSplineSet
Position2: "'cpsp' Capital Spacing in Lateinisch lookup 0 subtable" dx=5 dy=0 dh=10 dv=0
EndChar

StartChar: Ygrave
Encoding: 7922 7922 132
Width: 534
Flags: MW
HStem: 0 21G<236 298 236 236>
VStem: 236 62<0 294 0 294>
LayerCount: 2
Fore
SplineSet
298 294 m 1
 298 0 l 1
 236 0 l 1
 236 294 l 1
 13 695 l 1
 82 695 l 1
 267 358 l 1
 451 695 l 1
 521 695 l 1
 298 294 l 1
161 928 m 1
 368 829 l 1
 348 786 l 1
 139 874 l 1
 161 928 l 1
EndSplineSet
Position2: "'cpsp' Capital Spacing in Lateinisch lookup 0 subtable" dx=5 dy=0 dh=10 dv=0
EndChar

StartChar: Z
Encoding: 90 90 133
Width: 537
Flags: MW
HStem: -1 56<112 493 112 493> 639 56<43 493 43 424>
VStem: 43 69<55 76 55 81 55 81> 424 69<617 639 639 639>
LayerCount: 2
Fore
SplineSet
43 639 m 1
 43 695 l 1
 493 695 l 1
 493 612 l 1
 112 76 l 1
 112 55 l 1
 493 55 l 1
 493 -1 l 1
 43 -1 l 1
 43 81 l 1
 424 617 l 1
 424 639 l 1
 43 639 l 1
EndSplineSet
Position2: "'cpsp' Capital Spacing in Lateinisch lookup 0 subtable" dx=5 dy=0 dh=10 dv=0
EndChar

StartChar: Zacute
Encoding: 377 377 134
Width: 537
Flags: MW
HStem: -1 56<112 493 112 493> 639 56<43 493 43 424>
VStem: 43 69<55 76 55 81 55 81> 424 69<617 639 639 639>
LayerCount: 2
Fore
SplineSet
43 639 m 1
 43 695 l 1
 493 695 l 1
 493 612 l 1
 112 76 l 1
 112 55 l 1
 493 55 l 1
 493 -1 l 1
 43 -1 l 1
 43 81 l 1
 424 617 l 1
 424 639 l 1
 43 639 l 1
161 829 m 1
 368 928 l 1
 390 874 l 1
 181 786 l 1
 161 829 l 1
EndSplineSet
Position2: "'cpsp' Capital Spacing in Lateinisch lookup 0 subtable" dx=5 dy=0 dh=10 dv=0
EndChar

StartChar: Zcaron
Encoding: 381 381 135
Width: 537
Flags: MW
HStem: -1 56<112 493 112 493> 639 56<43 493 43 424> 798 131<118 252 118 304>
VStem: 43 69<55 76 55 81 55 81> 424 69<617 639 639 639>
LayerCount: 2
Fore
SplineSet
43 639 m 1
 43 695 l 1
 493 695 l 1
 493 612 l 1
 112 76 l 1
 112 55 l 1
 493 55 l 1
 493 -1 l 1
 43 -1 l 1
 43 81 l 1
 424 617 l 1
 424 639 l 1
 43 639 l 1
252 798 m 1
 118 929 l 1
 187 929 l 1
 278 843 l 1
 368 929 l 1
 438 929 l 1
 304 798 l 1
 252 798 l 1
EndSplineSet
Position2: "'cpsp' Capital Spacing in Lateinisch lookup 0 subtable" dx=5 dy=0 dh=10 dv=0
EndChar

StartChar: Zdotaccent
Encoding: 379 379 136
Width: 537
Flags: MW
HStem: -1 56<112 493 112 493> 639 56<43 493 43 424> 809 75<238 298 238 298>
VStem: 43 69<55 76 55 81 55 81> 238 60<809 884 809 884> 424 69<617 639 639 639>
LayerCount: 2
Fore
SplineSet
43 639 m 1
 43 695 l 1
 493 695 l 1
 493 612 l 1
 112 76 l 1
 112 55 l 1
 493 55 l 1
 493 -1 l 1
 43 -1 l 1
 43 81 l 1
 424 617 l 1
 424 639 l 1
 43 639 l 1
238 809 m 1
 238 884 l 1
 298 884 l 1
 298 809 l 1
 238 809 l 1
EndSplineSet
Position2: "'cpsp' Capital Spacing in Lateinisch lookup 0 subtable" dx=5 dy=0 dh=10 dv=0
EndChar

StartChar: g
Encoding: 103 103 139
Width: 509
Flags: MW
HStem: -237 52<201 317 201 333> 13 53<293 336> 173 50<232.5 286 198 300> 448 52 460 50<198 266 185.5 286>
VStem: 53 60<-118 -57.5 -118 -52.5> 59 61<297 383.5 297 401> 109 57<95.5 119.5> 365 61<297 369.5 276.5 383.5> 419 61<-118 -38.5>
LayerCount: 2
Fore
SplineSet
261 -237 m 0xf440
 100 -237 53 -199 53 -83 c 0xf440
 53 -22 81 4 134 43 c 1
 117 54 109 80 109 111 c 0xf140
 109 128 141 189 141 189 c 1
 98 207 59 247 59 340 c 0
 59 462 131 510 240 510 c 0xea40
 292 510 345 497 345 497 c 1
 490 500 l 1
 490 447 l 1
 390 449 l 1
 411 428 426 399 426 340 c 0
 426 213 363 173 237 173 c 0
 228 173 197 175 186 177 c 1
 186 177 166 128 166 115 c 0xf180
 166 72 174 67 293 66 c 0
 429 66 480 42 480 -79 c 0
 480 -191 405 -237 261 -237 c 0xf440
289 13 m 0
 251 13 176 17 176 17 c 1
 128 -17 113 -36 113 -79 c 0
 113 -157 140 -185 262 -185 c 0
 372 -185 419 -155 419 -81 c 0
 419 4 383 13 289 13 c 0
240 223 m 0xea80
 332 223 365 254 365 340 c 0
 365 427 332 460 240 460 c 0
 156 460 120 427 120 340 c 0
 120 254 156 223 240 223 c 0xea80
EndSplineSet
EndChar

StartChar: h
Encoding: 104 104 140
Width: 533
Flags: MW
HStem: 0 21G<75 134 75 75 403 403 403 463> 456 54<257 337.5> 702 20G<75 134 134 134>
VStem: 75 59<0 422 471 722> 403 60<0 260 260 263 0 333.5>
LayerCount: 2
Fore
SplineSet
134 0 m 1
 75 0 l 1
 75 722 l 1
 134 722 l 1
 134 471 l 1
 134 471 218 510 296 510 c 0
 433 510 463 446 463 263 c 2
 463 0 l 1
 403 0 l 1
 403 260 l 2
 403 407 387 456 288 456 c 0
 210 456 134 422 134 422 c 1
 134 0 l 1
EndSplineSet
EndChar

StartChar: s
Encoding: 115 115 141
Width: 464
Flags: MW
HStem: -10 21G<194.5 285> -10 54<195.5 264 195.5 285> 455 54<195 259>
VStem: 47 61<344 404 344 422.5> 357 61<103 172>
LayerCount: 2
Fore
SplineSet
401 492 m 1x78
 399 439 l 1
 399 439 292 455 226 455 c 0
 164 455 108 438 108 370 c 0
 108 318 133 303 242 285 c 0
 370 264 418 241 418 145 c 0
 418 28 345 -10 225 -10 c 0x78
 164 -10 54 8 54 8 c 1xb8
 58 61 l 1
 58 61 170 44 221 44 c 0
 307 44 357 64 357 142 c 0
 357 202 327 215 215 232 c 0
 100 250 47 271 47 368 c 0
 47 477 137 509 224 509 c 0
 299 509 401 492 401 492 c 1x78
EndSplineSet
EndChar

StartChar: endash
Encoding: 8211 8211 143
Width: 636
Flags: MW
HStem: 241 54<68 568 68 568>
VStem: 68 500<241 295 241 295>
LayerCount: 2
Fore
SplineSet
68 295 m 1
 568 295 l 1
 568 241 l 1
 68 241 l 1
 68 295 l 1
EndSplineSet
Substitution2: "'case' Case-Sensitive Forms in Lateinisch lookup 4 subtable" endash.cap
EndChar

StartChar: dollar
Encoding: 36 36 144
Width: 560
Flags: MW
HStem: -8 21G<266 283 266 266> -8 53<273 281 281 283 266 281> -5 21G<220 220> 617 53<235.5 285 217.5 301> 666 21G<352 352>
VStem: 72 60<456.5 541.5 456.5 559.5> 430 60<138 226>
LayerCount: 2
Fore
SplineSet
475 652 m 1x4e
 471 601 l 1
 471 601 403 609 345 614 c 1
 313 363 l 1
 432 338 490 304 490 193 c 0
 490 46 413 -8 283 -8 c 2
 266 -8 l 1x4e
 251 -123 l 1
 251 -123 206 -120 206 -116 c 2
 220 -5 l 1x2e
 151 0 77 10 77 10 c 1
 84 61 l 1
 84 61 161 51 227 47 c 1
 262 315 l 1
 138 340 72 371 72 497 c 0
 72 622 154 670 281 670 c 0
 289 670 298 670 308 669 c 1x96
 324 795 l 1
 369 795 l 1
 352 666 l 1
 415 661 475 652 475 652 c 1x4e
132 501 m 0
 132 412 173 392 269 372 c 1
 301 617 l 1
 285 617 l 2x56
 186 617 132 582 132 501 c 0
430 189 m 0
 430 263 395 287 306 306 c 1
 273 45 l 1
 281 45 l 2
 380 45 430 87 430 189 c 0
EndSplineSet
EndChar

StartChar: exclam
Encoding: 33 33 145
Width: 239
Flags: MW
HStem: 0 100<87 153 87 153>
VStem: 87 66<0 100 0 100> 89.5 59.5
LayerCount: 2
Fore
SplineSet
87 0 m 1xc0
 87 100 l 1
 153 100 l 1
 153 0 l 1
 87 0 l 1xc0
91 223 m 1xa0
 88 695 l 1
 151 695 l 1
 147 223 l 1
 91 223 l 1xa0
EndSplineSet
EndChar

StartChar: summation
Encoding: 8721 8721 146
Width: 560
Flags: MW
HStem: -158 55<111 510 111 510> 696 56<111 510 111 111>
VStem: 47 64<-103 -75 -103 -67 -103 -67 672 696>
LayerCount: 2
Fore
SplineSet
321 310 m 1
 47 662 l 1
 47 752 l 1
 510 752 l 1
 510 696 l 1
 111 696 l 1
 111 672 l 1
 378 332 l 1
 378 286 l 1
 111 -75 l 1
 111 -103 l 1
 510 -103 l 1
 510 -158 l 1
 47 -158 l 1
 47 -67 l 1
 321 310 l 1
EndSplineSet
EndChar

StartChar: a
Encoding: 97 97 147
Width: 499
Flags: MW
HStem: -10 51<160.5 227> -9 48<456.5 484> 456 54<226 294>
VStem: 43 62<110 172 110 187> 360 59<83 257 257 257 304 351 83 389>
LayerCount: 2
Fore
SplineSet
419 351 m 2xb8
 419 83 l 2
 422 53 451 43 484 39 c 1x78
 481 -9 l 1
 432 -9 395 1 368 31 c 1
 368 31 274 -10 180 -10 c 0
 92 -10 43 41 43 141 c 0
 43 233 89 277 190 287 c 2
 360 304 l 1
 360 351 l 2
 360 427 326 456 262 456 c 0
 190 456 73 441 73 441 c 1
 70 489 l 1
 70 489 180 510 264 510 c 0
 373 510 419 457 419 351 c 2xb8
360 257 m 1
 197 240 l 2
 130 234 105 202 105 142 c 0
 105 78 133 41 188 41 c 0
 269 41 360 76 360 76 c 1xb8
 360 257 l 1
EndSplineSet
EndChar

StartChar: o
Encoding: 111 111 148
Width: 527
Flags: MW
HStem: -10 53<199 328.5 199 347.5> 457 53<206.5 321>
VStem: 54 62<180.5 332 180.5 345.5> 412 61<180.5 332>
LayerCount: 2
Fore
SplineSet
264 510 m 0
 418 510 473 434 473 257 c 0
 473 68 431 -10 264 -10 c 0
 96 -10 54 68 54 257 c 0
 54 434 109 510 264 510 c 0
264 43 m 0
 393 43 412 104 412 257 c 0
 412 407 378 457 264 457 c 0
 149 457 116 407 116 257 c 0
 116 104 134 43 264 43 c 0
EndSplineSet
EndChar

StartChar: n
Encoding: 110 110 149
Width: 533
Flags: MW
HStem: 0 21G<75 134 75 75 404 404 404 464> 456 54<257.5 338> 463 37<75 134>
VStem: 75 59<0 414 463 500> 404 60<0 260 260 263 0 333.5>
LayerCount: 2
Fore
SplineSet
134 0 m 1xd8
 75 0 l 1
 75 500 l 1
 134 500 l 1xb8
 134 463 l 1
 134 463 218 510 297 510 c 0
 434 510 464 446 464 263 c 2
 464 0 l 1
 404 0 l 1
 404 260 l 2
 404 407 388 456 288 456 c 0
 210 456 134 414 134 414 c 1
 134 0 l 1xd8
EndSplineSet
EndChar

StartChar: numbersign
Encoding: 35 35 150
Width: 560
Flags: MW
HStem: 0 21G<140 196 140 140 363 419 363 363> 180 52<26 140 26 140 196 363 419 533> 433 52<26 140 26 140 196 363 419 533>
VStem: 140 56<0 180 0 180 232 433 485 667> 363 56<0 180 0 180 232 433 485 667>
LayerCount: 2
Fore
SplineSet
533 180 m 1
 419 180 l 1
 419 0 l 1
 363 0 l 1
 363 180 l 1
 196 180 l 1
 196 0 l 1
 140 0 l 1
 140 180 l 1
 26 180 l 1
 26 232 l 1
 140 232 l 1
 140 433 l 1
 26 433 l 1
 26 485 l 1
 140 485 l 1
 140 667 l 1
 196 667 l 1
 196 485 l 1
 363 485 l 1
 363 667 l 1
 419 667 l 1
 419 485 l 1
 533 485 l 1
 533 433 l 1
 419 433 l 1
 419 232 l 1
 533 232 l 1
 533 180 l 1
363 232 m 1
 363 433 l 1
 196 433 l 1
 196 232 l 1
 363 232 l 1
EndSplineSet
EndChar

StartChar: at
Encoding: 64 64 151
Width: 977
Flags: MW
HStem: -202 54<369.5 525 369.5 529> -8 51<723 794 723 810.5> -7 54<441.5 497.5 441.5 504> 453 54<442.5 523 417.5 529.5> 480 17<619 679> 668 53<373 636>
VStem: 54 62<106 408 106 427.5> 292 60<157 311.5 157 329.5> 619 60<287 302 302 430 430 430 480 497> 868 62<290 305 155.5 306 155.5 431.5>
LayerCount: 2
Fore
SplineSet
930 305 m 2xd7c0
 930 290 l 2
 930 21 862 -8 759 -8 c 0xd7c0
 661 -8 646 54 646 54 c 1
 646 54 543 -7 465 -7 c 0
 388 -7 292 17 292 245 c 0xb7c0
 292 414 338 507 497 507 c 0
 549 507 619 480 619 480 c 1
 619 497 l 1
 679 497 l 1xcfc0
 679 302 l 2
 679 68 684 43 762 43 c 0
 826 43 868 59 868 290 c 2
 868 306 l 2
 868 557 768 668 504 668 c 0
 242 668 116 555 116 261 c 0
 116 -49 235 -148 504 -148 c 0
 546 -148 647 -138 647 -138 c 1
 650 -192 l 1
 650 -192 554 -202 504 -202 c 0
 208 -202 54 -100 54 261 c 0
 54 594 213 721 504 721 c 0
 806 721 930 586 930 305 c 2xd7c0
468 47 m 0xb7c0
 527 47 623 95 629 98 c 1
 627 105 619 200 619 287 c 2
 619 430 l 1
 619 430 554 453 505 453 c 0
 380 453 352 380 352 243 c 0
 352 71 415 47 468 47 c 0xb7c0
EndSplineSet
EndChar

StartChar: ydieresis
Encoding: 255 255 152
Width: 478
Flags: MW
HStem: -225 21G<176 236 176 176> 0 52<221 243 174 257> 480 20G<27 88 88 88 391 452 452 452> 627 80<110 169 110 169 307 365>
VStem: 110 59<627 707 627 707> 307 58<627 707 627 707>
LayerCount: 2
Fore
SplineSet
27 500 m 1
 88 500 l 1
 221 52 l 1
 257 52 l 1
 391 500 l 1
 452 500 l 1
 236 -225 l 1
 176 -225 l 1
 243 0 l 1
 174 0 l 1
 27 500 l 1
110 627 m 1
 110 707 l 1
 169 707 l 1
 169 627 l 1
 110 627 l 1
307 627 m 1
 307 707 l 1
 365 707 l 1
 365 627 l 1
 307 627 l 1
EndSplineSet
EndChar

StartChar: scaron
Encoding: 353 353 153
Width: 464
Flags: MW
HStem: -10 21G<194.5 285> -10 54<195.5 264 195.5 285> 455 54<195 259> 595 46<219 241 241 241 241 261> 595 137<97 219 97 261>
VStem: 47 61<344 404 344 422.5> 357 61<103 172>
LayerCount: 2
Fore
SplineSet
401 492 m 1x6e
 399 439 l 1
 399 439 292 455 226 455 c 0
 164 455 108 438 108 370 c 0
 108 318 133 303 242 285 c 0
 370 264 418 241 418 145 c 0
 418 28 345 -10 225 -10 c 0x6e
 164 -10 54 8 54 8 c 1xae
 58 61 l 1
 58 61 170 44 221 44 c 0
 307 44 357 64 357 142 c 0
 357 202 327 215 215 232 c 0
 100 250 47 271 47 368 c 0
 47 477 137 509 224 509 c 0
 299 509 401 492 401 492 c 1x6e
219 595 m 1
 97 732 l 1
 159 732 l 1x6e
 241 641 l 1x76
 322 732 l 1
 384 732 l 1
 261 595 l 1
 219 595 l 1
EndSplineSet
EndChar

StartChar: yacute
Encoding: 253 253 154
Width: 478
Flags: MW
HStem: -225 21G<176 236 176 176> 0 52<221 243 174 257> 480 20G<27 88 88 88 391 452 452 452>
VStem: 27 425<500 500>
LayerCount: 2
Fore
SplineSet
27 500 m 1
 88 500 l 1
 221 52 l 1
 257 52 l 1
 391 500 l 1
 452 500 l 1
 236 -225 l 1
 176 -225 l 1
 243 0 l 1
 174 0 l 1
 27 500 l 1
161 640 m 1
 368 737 l 1
 390 685 l 1
 180 598 l 1
 161 640 l 1
EndSplineSet
EndChar

StartChar: zcaron
Encoding: 382 382 155
Width: 455
Flags: MW
HStem: 0 54<116 413 42 42> 446 54<42 413 42 339 42 413> 595 46<207 229 229 229 229 249> 595 137<85 207 85 249>
VStem: 42 371<0 54 0 54 446 500>
LayerCount: 2
Fore
SplineSet
42 446 m 1xd8
 42 500 l 1
 413 500 l 1
 413 446 l 1
 116 54 l 1
 413 54 l 1
 413 0 l 1
 42 0 l 1
 42 54 l 1
 339 446 l 1
 42 446 l 1xd8
207 595 m 1
 85 732 l 1
 147 732 l 1xd8
 229 641 l 1xe8
 310 732 l 1
 372 732 l 1
 249 595 l 1
 207 595 l 1
EndSplineSet
EndChar

StartChar: degree
Encoding: 176 176 156
Width: 560
Flags: MW
HStem: 427 42<251 309 251 321.5> 662 43<251 309>
VStem: 140 45<536 594 536 606.5> 377 42<536 594>
LayerCount: 2
Fore
SplineSet
140 565 m 0
 140 648 197 705 280 705 c 0
 363 705 419 648 419 565 c 0
 419 482 363 427 280 427 c 0
 197 427 140 482 140 565 c 0
185 565 m 0
 185 507 222 469 280 469 c 0
 338 469 377 507 377 565 c 0
 377 623 338 662 280 662 c 0
 222 662 185 623 185 565 c 0
EndSplineSet
EndChar

StartChar: section
Encoding: 167 167 157
Width: 494
Flags: MW
HStem: -140 52<215.5 284.5 215.5 305.5> 601 53<212.5 280>
VStem: 56 60<240 295 240 296.5> 68 59<471.5 537 464 553> 371 58<-16 49.5 -31 57> 374 60<221 279.5>
LayerCount: 2
Fore
SplineSet
415 639 m 1xd8
 412 588 l 1
 412 588 304 601 256 601 c 0
 169 601 127 571 127 503 c 0
 127 425 173 411 272 394 c 0
 378 375 434 350 434 251 c 0xd4
 434 191 400 131 393 121 c 1
 417 102 429 75 429 24 c 0
 429 -86 366 -140 245 -140 c 0
 183 -140 73 -124 73 -124 c 1
 78 -73 l 1
 78 -73 188 -88 243 -88 c 0
 326 -88 371 -53 371 21 c 0
 371 93 325 102 227 118 c 0
 114 137 56 167 56 265 c 0xe8
 56 328 104 383 112 389 c 1
 83 411 68 442 68 501 c 0
 68 605 137 654 254 654 c 0
 319 654 415 639 415 639 c 1xd8
250 343 m 0
 212 350 179 356 153 367 c 0
 151 364 116 317 116 273 c 0xe8
 116 207 155 186 242 172 c 0
 285 165 321 157 347 145 c 0
 350 148 374 196 374 244 c 0
 374 315 330 329 250 343 c 0
EndSplineSet
EndChar

StartChar: copyright
Encoding: 169 169 158
Width: 646
Flags: MW
HStem: 164 39<258.5 386 258.5 398.5> 278 48<300 341.5 300 343.5> 542 48<297.5 343> 665 39<258.5 386>
VStem: 62 40<370.5 497.5 370.5 509.5> 211 50<399 469 399 483.5> 544 39<370 497.5>
LayerCount: 2
Fore
SplineSet
62 434 m 0
 62 585 172 704 323 704 c 0
 475 704 583 583 583 434 c 0
 583 283 475 164 322 164 c 0
 173 164 62 284 62 434 c 0
102 434 m 0
 102 307 195 203 322 203 c 0
 450 203 544 306 544 434 c 0
 544 561 450 665 322 665 c 0
 195 665 102 561 102 434 c 0
399 333 m 1
 401 288 l 1
 401 288 362 278 325 278 c 0
 237 278 211 332 211 434 c 0
 211 533 235 590 326 590 c 0
 366 590 401 581 401 581 c 1
 399 535 l 1
 399 535 359 542 327 542 c 0
 268 542 261 504 261 434 c 0
 261 364 273 326 327 326 c 0
 356 326 399 333 399 333 c 1
EndSplineSet
EndChar

StartChar: trademark
Encoding: 8482 8482 159
Width: 682
Flags: MW
HStem: 568 59<371 371 558 558> 584 43<94 294 94 175 222 222 222 294>
VStem: 175 47<332 584 332 584> 327 44<331 568 331 627> 558 45<331 568 568 568>
LayerCount: 2
Fore
SplineSet
94 584 m 1x78
 94 627 l 1
 294 627 l 1
 294 584 l 1
 222 584 l 1
 222 332 l 1
 175 332 l 1
 175 584 l 1
 94 584 l 1x78
327 331 m 1
 327 627 l 1
 390 627 l 1x78
 463 406 l 1
 540 627 l 1
 603 627 l 1
 603 331 l 1
 558 331 l 1
 558 568 l 1xb8
 484 344 l 1
 444 344 l 1
 371 568 l 1
 371 331 l 1
 327 331 l 1
EndSplineSet
EndChar

StartChar: registered
Encoding: 174 174 160
Width: 646
Flags: MW
HStem: 164 39<259 386 259 398.5> 394 41<264 330 264 331> 542 41<264 264 264 317> 665 39<258.5 386>
VStem: 62 40<370.5 497.5 370.5 509.5> 216 48<283 394 283 435 435 542> 386 47<469 508.5> 544 39<370 497.5>
LayerCount: 2
Fore
SplineSet
62 434 m 0
 62 585 172 704 322 704 c 0
 475 704 583 583 583 434 c 0
 583 283 475 164 322 164 c 0
 173 164 62 284 62 434 c 0
102 434 m 0
 102 307 196 203 322 203 c 0
 450 203 544 306 544 434 c 0
 544 561 450 665 322 665 c 0
 195 665 102 561 102 434 c 0
387 283 m 1
 330 394 l 1
 264 394 l 1
 264 283 l 1
 216 283 l 1
 216 583 l 1
 320 583 l 2
 393 583 433 560 433 490 c 0
 433 442 419 414 379 400 c 1
 438 283 l 1
 387 283 l 1
264 542 m 1
 264 435 l 1
 331 435 l 2
 369 435 386 449 386 489 c 0
 386 528 363 542 317 542 c 2
 264 542 l 1
EndSplineSet
EndChar

StartChar: aacute
Encoding: 225 225 161
Width: 499
Flags: MW
HStem: -10 51<160.5 227> -9 48<456.5 484> 456 54<226 294>
VStem: 43 62<110 172 110 187> 360 59<83 257 257 257 304 351 83 389>
LayerCount: 2
Fore
SplineSet
419 351 m 2xb8
 419 83 l 2
 422 53 451 43 484 39 c 1x78
 481 -9 l 1
 432 -9 395 1 368 31 c 1
 368 31 274 -10 180 -10 c 0
 92 -10 43 41 43 141 c 0
 43 233 89 277 190 287 c 2
 360 304 l 1
 360 351 l 2
 360 427 326 456 262 456 c 0
 190 456 73 441 73 441 c 1
 70 489 l 1
 70 489 180 510 264 510 c 0
 373 510 419 457 419 351 c 2xb8
360 257 m 1
 197 240 l 2
 130 234 105 202 105 142 c 0
 105 78 133 41 188 41 c 0
 269 41 360 76 360 76 c 1xb8
 360 257 l 1
123 640 m 1
 330 737 l 1
 352 685 l 1
 142 598 l 1
 123 640 l 1
EndSplineSet
EndChar

StartChar: agrave
Encoding: 224 224 162
Width: 499
Flags: MW
HStem: -10 51<160.5 227> -9 48<456.5 484> 456 54<226 294>
VStem: 43 62<110 172 110 187> 360 59<83 257 257 257 304 351 83 389>
LayerCount: 2
Fore
SplineSet
419 351 m 2xb8
 419 83 l 2
 422 53 451 43 484 39 c 1x78
 481 -9 l 1
 432 -9 395 1 368 31 c 1
 368 31 274 -10 180 -10 c 0
 92 -10 43 41 43 141 c 0
 43 233 89 277 190 287 c 2
 360 304 l 1
 360 351 l 2
 360 427 326 456 262 456 c 0
 190 456 73 441 73 441 c 1
 70 489 l 1
 70 489 180 510 264 510 c 0
 373 510 419 457 419 351 c 2xb8
360 257 m 1
 197 240 l 2
 130 234 105 202 105 142 c 0
 105 78 133 41 188 41 c 0
 269 41 360 76 360 76 c 1xb8
 360 257 l 1
147 737 m 1
 354 640 l 1
 335 598 l 1
 125 685 l 1
 147 737 l 1
EndSplineSet
EndChar

StartChar: acircumflex
Encoding: 226 226 163
Width: 499
Flags: MW
HStem: -10 51<160.5 227> -9 48<456.5 484> 456 54<226 294> 595 137<98 262 98 262 220 322 220 385> 687 45<242 242>
VStem: 43 62<110 172 110 187> 360 59<83 257 257 257 304 351 83 389>
LayerCount: 2
Fore
SplineSet
419 351 m 2xb6
 419 83 l 2
 422 53 451 43 484 39 c 1x76
 481 -9 l 1
 432 -9 395 1 368 31 c 1
 368 31 274 -10 180 -10 c 0
 92 -10 43 41 43 141 c 0
 43 233 89 277 190 287 c 2
 360 304 l 1
 360 351 l 2
 360 427 326 456 262 456 c 0
 190 456 73 441 73 441 c 1
 70 489 l 1
 70 489 180 510 264 510 c 0
 373 510 419 457 419 351 c 2xb6
360 257 m 1
 197 240 l 2
 130 234 105 202 105 142 c 0
 105 78 133 41 188 41 c 0
 269 41 360 76 360 76 c 1xb6
 360 257 l 1
98 595 m 1
 220 732 l 1
 262 732 l 1
 385 595 l 1
 322 595 l 1xb6
 242 687 l 1xae
 161 595 l 1
 98 595 l 1
EndSplineSet
EndChar

StartChar: adieresis
Encoding: 228 228 164
Width: 499
Flags: MW
HStem: -10 51<160.5 227> -9 48<456.5 484> 456 54<226 294> 627 80<115 174 115 174 312 370>
VStem: 43 62<110 172 110 187> 115 59<627 707 627 707> 312 58<627 707 627 707> 360 59<83 257 257 257 304 351 83 389>
LayerCount: 2
Fore
SplineSet
419 351 m 2xb5
 419 83 l 2
 422 53 451 43 484 39 c 1x75
 481 -9 l 1
 432 -9 395 1 368 31 c 1
 368 31 274 -10 180 -10 c 0
 92 -10 43 41 43 141 c 0xbd
 43 233 89 277 190 287 c 2
 360 304 l 1
 360 351 l 2
 360 427 326 456 262 456 c 0
 190 456 73 441 73 441 c 1
 70 489 l 1
 70 489 180 510 264 510 c 0
 373 510 419 457 419 351 c 2xb5
360 257 m 1
 197 240 l 2
 130 234 105 202 105 142 c 0
 105 78 133 41 188 41 c 0
 269 41 360 76 360 76 c 1xbd
 360 257 l 1
115 627 m 1xb6
 115 707 l 1
 174 707 l 1
 174 627 l 1
 115 627 l 1xb6
312 627 m 1
 312 707 l 1
 370 707 l 1
 370 627 l 1
 312 627 l 1
EndSplineSet
EndChar

StartChar: atilde
Encoding: 227 227 165
Width: 499
Flags: MW
HStem: -10 51<160.5 227> -9 48<456.5 484> 456 54<226 294> 619 50<296.5 322 296.5 329> 668 49<157.5 185>
VStem: 43 62<110 172 110 187> 360 59<83 257 257 257 304 351 83 389>
LayerCount: 2
Fore
SplineSet
419 351 m 2xae
 419 83 l 2
 422 53 451 43 484 39 c 1x6e
 481 -9 l 1
 432 -9 395 1 368 31 c 1
 368 31 274 -10 180 -10 c 0
 92 -10 43 41 43 141 c 0
 43 233 89 277 190 287 c 2
 360 304 l 1
 360 351 l 2
 360 427 326 456 262 456 c 0
 190 456 73 441 73 441 c 1
 70 489 l 1
 70 489 180 510 264 510 c 0
 373 510 419 457 419 351 c 2xae
360 257 m 1
 197 240 l 2
 130 234 105 202 105 142 c 0
 105 78 133 41 188 41 c 0
 269 41 360 76 360 76 c 1xb6
 360 257 l 1
378 708 m 1
 392 666 l 1
 392 666 347 619 311 619 c 0xb6
 271 619 201 668 169 668 c 0
 146 668 97 627 97 627 c 1
 82 667 l 1
 82 667 132 717 170 717 c 0xae
 210 717 281 669 312 669 c 0
 332 669 378 708 378 708 c 1
EndSplineSet
EndChar

StartChar: aring
Encoding: 229 229 166
Width: 499
Flags: MW
HStem: -10 51<160.5 227> -9 48<456.5 484> 456 54<226 294> 546 41<236.5 269 236.5 281> 705 42<236.5 269>
VStem: 43 62<110 172 110 187> 152 43<630.5 663 630.5 675> 310 43<630.5 663> 360 59<83 257 257 257 304 351 83 389>
LayerCount: 2
Fore
SplineSet
419 351 m 2xbe80
 419 83 l 2
 422 53 451 43 484 39 c 1x7e80
 481 -9 l 1
 432 -9 395 1 368 31 c 1
 368 31 274 -10 180 -10 c 0
 92 -10 43 41 43 141 c 0
 43 233 89 277 190 287 c 2
 360 304 l 1
 360 351 l 2
 360 427 326 456 262 456 c 0
 190 456 73 441 73 441 c 1
 70 489 l 1
 70 489 180 510 264 510 c 0
 373 510 419 457 419 351 c 2xbe80
360 257 m 1
 197 240 l 2
 130 234 105 202 105 142 c 0
 105 78 133 41 188 41 c 0
 269 41 360 76 360 76 c 1xbe80
 360 257 l 1
152 647 m 0
 152 703 196 747 253 747 c 0
 309 747 353 703 353 647 c 0xbf
 353 590 309 546 253 546 c 0
 196 546 152 590 152 647 c 0
195 647 m 0
 195 614 220 587 253 587 c 0
 285 587 310 614 310 647 c 0xbf
 310 679 285 705 253 705 c 0
 220 705 195 679 195 647 c 0
EndSplineSet
EndChar

StartChar: eacute
Encoding: 233 233 167
Width: 504
Flags: MW
HStem: -10 54<247 286> 225 50<114 396 114 454 114 396> 458 52<213.5 306>
VStem: 53 61<166 225 275 341.5> 396 60<275 342.5>
LayerCount: 2
Fore
SplineSet
253 44 m 0
 326 44 436 53 436 53 c 1
 438 4 l 1
 438 4 325 -10 247 -10 c 0
 98 -9 53 81 53 248 c 0
 53 441 137 510 259 510 c 0
 388 510 456 441 456 273 c 1
 454 225 l 1
 114 225 l 1
 114 107 148 44 253 44 c 0
114 275 m 1
 396 275 l 1
 396 410 353 458 259 458 c 0
 168 458 114 408 114 275 c 1
154 640 m 1
 361 737 l 1
 383 685 l 1
 173 598 l 1
 154 640 l 1
EndSplineSet
EndChar

StartChar: egrave
Encoding: 232 232 168
Width: 504
Flags: MW
HStem: -10 54<247 286> 225 50<114 396 114 454 114 396> 458 52<213.5 306>
VStem: 53 61<166 225 275 341.5> 396 60<275 342.5>
LayerCount: 2
Fore
SplineSet
253 44 m 0
 326 44 436 53 436 53 c 1
 438 4 l 1
 438 4 325 -10 247 -10 c 0
 98 -9 53 81 53 248 c 0
 53 441 137 510 259 510 c 0
 388 510 456 441 456 273 c 1
 454 225 l 1
 114 225 l 1
 114 107 148 44 253 44 c 0
114 275 m 1
 396 275 l 1
 396 410 353 458 259 458 c 0
 168 458 114 408 114 275 c 1
145 738 m 1
 352 641 l 1
 333 599 l 1
 123 686 l 1
 145 738 l 1
EndSplineSet
EndChar

StartChar: ecircumflex
Encoding: 234 234 169
Width: 504
Flags: MW
HStem: -10 54<247 286> 225 50<114 396 114 454 114 396> 458 52<213.5 306> 595 137<118 282 118 282 240 342 240 405> 687 45<262 262>
VStem: 53 61<166 225 275 341.5> 396 60<275 342.5>
LayerCount: 2
Fore
SplineSet
253 44 m 0xf6
 326 44 436 53 436 53 c 1
 438 4 l 1
 438 4 325 -10 247 -10 c 0
 98 -9 53 81 53 248 c 0
 53 441 137 510 259 510 c 0
 388 510 456 441 456 273 c 1
 454 225 l 1
 114 225 l 1
 114 107 148 44 253 44 c 0xf6
114 275 m 1
 396 275 l 1
 396 410 353 458 259 458 c 0
 168 458 114 408 114 275 c 1
118 595 m 1
 240 732 l 1
 282 732 l 1
 405 595 l 1
 342 595 l 1xf6
 262 687 l 1xee
 181 595 l 1
 118 595 l 1
EndSplineSet
EndChar

StartChar: edieresis
Encoding: 235 235 170
Width: 504
Flags: MW
HStem: -10 54<247 286> 225 50<114 396 114 454 114 396> 458 52<213.5 306> 627 80<128 187 128 187 325 383>
VStem: 53 61<166 225 275 341.5> 128 59<627 707 627 707> 325 58<627 707 627 707> 396 60<275 342.5>
LayerCount: 2
Fore
SplineSet
253 44 m 0
 326 44 436 53 436 53 c 1
 438 4 l 1
 438 4 325 -10 247 -10 c 0
 98 -9 53 81 53 248 c 0
 53 441 137 510 259 510 c 0
 388 510 456 441 456 273 c 1
 454 225 l 1xfb
 114 225 l 1
 114 107 148 44 253 44 c 0
114 275 m 1
 396 275 l 1xff
 396 410 353 458 259 458 c 0
 168 458 114 408 114 275 c 1
128 627 m 1
 128 707 l 1
 187 707 l 1
 187 627 l 1
 128 627 l 1
325 627 m 1xfa
 325 707 l 1
 383 707 l 1
 383 627 l 1
 325 627 l 1xfa
EndSplineSet
EndChar

StartChar: idieresis
Encoding: 239 239 171
Width: 209
Flags: MW
HStem: 627 80<-27 32 -27 32 170 228>
VStem: -27 59<627 707 627 707> 170 58<627 707 627 707>
LayerCount: 2
Fore
SplineSet
75 500 m 1
 75 0 l 1
 134 0 l 1
 134 500 l 1
 75 500 l 1
-27 627 m 1
 -27 707 l 1
 32 707 l 1
 32 627 l 1
 -27 627 l 1
170 627 m 1
 170 707 l 1
 228 707 l 1
 228 627 l 1
 170 627 l 1
EndSplineSet
EndChar

StartChar: ntilde
Encoding: 241 241 172
Width: 533
Flags: MW
HStem: 619 50<335.5 361 335.5 368> 668 49<196.5 224>
VStem: 134 270<0 260 0 414 0 414 0 500 0 500>
LayerCount: 2
Fore
SplineSet
75 0 m 1x60
 134 0 l 1
 134 414 l 1
 134 414 210 456 288 456 c 0
 388 456 404 407 404 260 c 2
 404 0 l 1
 464 0 l 1
 464 263 l 2
 464 446 434 510 297 510 c 0
 218 510 134 463 134 463 c 1
 134 500 l 1
 75 500 l 1xa0
 75 0 l 1x60
417 708 m 1
 431 666 l 1
 431 666 386 619 350 619 c 0xa0
 310 619 240 668 208 668 c 0
 185 668 136 627 136 627 c 1
 121 667 l 1
 121 667 171 717 209 717 c 0x60
 249 717 320 669 351 669 c 0
 371 669 417 708 417 708 c 1
EndSplineSet
EndChar

StartChar: oacute
Encoding: 243 243 173
Width: 527
Flags: MW
HStem: -10 747<180 370>
VStem: 54 419<162.5 345.5> 116 296<180.5 332>
LayerCount: 2
Fore
SplineSet
264 510 m 0xc0
 109 510 54 434 54 257 c 0
 54 68 96 -10 264 -10 c 0
 431 -10 473 68 473 257 c 0
 473 434 418 510 264 510 c 0xc0
264 43 m 0xa0
 134 43 116 104 116 257 c 0
 116 407 149 457 264 457 c 0
 378 457 412 407 412 257 c 0
 412 104 393 43 264 43 c 0xa0
163 640 m 1
 370 737 l 1
 392 685 l 1
 182 598 l 1
 163 640 l 1
EndSplineSet
EndChar

StartChar: ograve
Encoding: 242 242 174
Width: 527
Flags: MW
HStem: -10 53<199 328.5 199 347.5> 457 53<206.5 321>
VStem: 54 62<180.5 332 180.5 345.5> 412 61<180.5 332>
LayerCount: 2
Fore
SplineSet
264 510 m 0
 418 510 473 434 473 257 c 0
 473 68 431 -10 264 -10 c 0
 96 -10 54 68 54 257 c 0
 54 434 109 510 264 510 c 0
264 43 m 0
 393 43 412 104 412 257 c 0
 412 407 378 457 264 457 c 0
 149 457 116 407 116 257 c 0
 116 104 134 43 264 43 c 0
168 737 m 1
 375 640 l 1
 356 598 l 1
 146 685 l 1
 168 737 l 1
EndSplineSet
EndChar

StartChar: ocircumflex
Encoding: 244 244 175
Width: 527
Flags: MW
HStem: 510 222<241 283 241 341> 595 137<119 283 119 283 241 343 241 406> 687 45<263 263>
VStem: 116 296<180.5 332>
LayerCount: 2
Fore
SplineSet
264 510 m 0x90
 109 510 54 434 54 257 c 0
 54 68 96 -10 264 -10 c 0
 431 -10 473 68 473 257 c 0
 473 434 418 510 264 510 c 0x90
264 43 m 0
 134 43 116 104 116 257 c 0
 116 407 149 457 264 457 c 0
 378 457 412 407 412 257 c 0
 412 104 393 43 264 43 c 0
119 595 m 1x50
 241 732 l 1
 283 732 l 1
 406 595 l 1
 343 595 l 1x50
 263 687 l 1x30
 182 595 l 1
 119 595 l 1x50
EndSplineSet
EndChar

StartChar: odieresis
Encoding: 246 246 176
Width: 527
Flags: MW
HStem: 627 80<132 191 132 191 329 387>
VStem: 116 296<180.5 332> 132 59<627 707 627 707> 329 58<627 707 627 707>
LayerCount: 2
Fore
SplineSet
264 510 m 0xb0
 109 510 54 434 54 257 c 0
 54 68 96 -10 264 -10 c 0
 431 -10 473 68 473 257 c 0
 473 434 418 510 264 510 c 0xb0
264 43 m 0xc0
 134 43 116 104 116 257 c 0
 116 407 149 457 264 457 c 0
 378 457 412 407 412 257 c 0
 412 104 393 43 264 43 c 0xc0
132 627 m 1xb0
 132 707 l 1
 191 707 l 1
 191 627 l 1
 132 627 l 1xb0
329 627 m 1
 329 707 l 1
 387 707 l 1
 387 627 l 1
 329 627 l 1
EndSplineSet
EndChar

StartChar: otilde
Encoding: 245 245 177
Width: 527
Flags: MW
HStem: 619 50<322.5 348 322.5 355> 668 49<183.5 211>
VStem: 116 296<180.5 332>
LayerCount: 2
Fore
SplineSet
264 510 m 0xa0
 109 510 54 434 54 257 c 0
 54 68 96 -10 264 -10 c 0
 431 -10 473 68 473 257 c 0
 473 434 418 510 264 510 c 0xa0
264 43 m 0
 134 43 116 104 116 257 c 0
 116 407 149 457 264 457 c 0
 378 457 412 407 412 257 c 0
 412 104 393 43 264 43 c 0
404 708 m 1
 418 666 l 1
 418 666 373 619 337 619 c 0xa0
 297 619 227 668 195 668 c 0
 172 668 123 627 123 627 c 1
 108 667 l 1
 108 667 158 717 196 717 c 0x60
 236 717 307 669 338 669 c 0
 358 669 404 708 404 708 c 1
EndSplineSet
EndChar

StartChar: uacute
Encoding: 250 250 178
Width: 525
Flags: MW
HStem: -10 747<167.5 368>
VStem: 129 262<240 500>
LayerCount: 2
Fore
SplineSet
450 500 m 1
 391 500 l 1
 391 86 l 1
 391 86 323 44 244 44 c 0
 144 44 129 91 129 240 c 2
 129 500 l 1
 70 500 l 1
 70 239 l 2
 70 52 98 -10 237 -10 c 0
 314 -10 391 37 391 37 c 1
 391 0 l 1
 450 0 l 1
 450 500 l 1
161 640 m 1
 368 737 l 1
 390 685 l 1
 180 598 l 1
 161 640 l 1
EndSplineSet
EndChar

StartChar: ugrave
Encoding: 249 249 179
Width: 525
Flags: MW
HStem: -10 54<194 275.5> 0 21G<391 450 391 391> 480 20G<70 129 129 129 391 450 450 450>
VStem: 70 59<239 240 240 500> 391 59<0 37 37 37 86 500 0 500>
LayerCount: 2
Fore
SplineSet
391 500 m 1xb8
 450 500 l 1
 450 0 l 1
 391 0 l 1x78
 391 37 l 1
 391 37 314 -10 237 -10 c 0
 98 -10 70 52 70 239 c 2
 70 500 l 1
 129 500 l 1
 129 240 l 2
 129 91 144 44 244 44 c 0
 323 44 391 86 391 86 c 1
 391 500 l 1xb8
140 737 m 1
 347 640 l 1
 328 598 l 1
 118 685 l 1
 140 737 l 1
EndSplineSet
EndChar

StartChar: ucircumflex
Encoding: 251 251 180
Width: 525
Flags: MW
HStem: 595 137<111 275 111 275 233 335 233 398> 687 45<255 255>
VStem: 129 262<240 500>
LayerCount: 2
Fore
SplineSet
450 500 m 1xa0
 391 500 l 1
 391 86 l 1
 391 86 323 44 244 44 c 0
 144 44 129 91 129 240 c 2
 129 500 l 1
 70 500 l 1
 70 239 l 2
 70 52 98 -10 237 -10 c 0
 314 -10 391 37 391 37 c 1
 391 0 l 1
 450 0 l 1
 450 500 l 1xa0
111 595 m 1
 233 732 l 1
 275 732 l 1
 398 595 l 1
 335 595 l 1xa0
 255 687 l 1x60
 174 595 l 1
 111 595 l 1
EndSplineSet
EndChar

StartChar: udieresis
Encoding: 252 252 181
Width: 525
Flags: MW
HStem: 627 80<138 197 138 197 335 393>
VStem: 129 262<240 500> 138 59<627 707 627 707> 335 58<627 707 627 707>
LayerCount: 2
Fore
SplineSet
450 500 m 1xb0
 391 500 l 1
 391 86 l 1
 391 86 323 44 244 44 c 0
 144 44 129 91 129 240 c 2
 129 500 l 1
 70 500 l 1
 70 239 l 2xc0
 70 52 98 -10 237 -10 c 0
 314 -10 391 37 391 37 c 1
 391 0 l 1
 450 0 l 1
 450 500 l 1xb0
138 627 m 1xb0
 138 707 l 1
 197 707 l 1
 197 627 l 1
 138 627 l 1xb0
335 627 m 1
 335 707 l 1
 393 707 l 1
 393 627 l 1
 335 627 l 1
EndSplineSet
EndChar

StartChar: minus
Encoding: 8722 8722 182
Width: 560
Flags: MW
HStem: 223 56<67 493 67 493>
VStem: 67 426<223 279 223 279>
LayerCount: 2
Fore
SplineSet
67 223 m 1
 67 279 l 1
 493 279 l 1
 493 223 l 1
 67 223 l 1
EndSplineSet
EndChar

StartChar: multiply
Encoding: 215 215 183
Width: 560
Flags: MW
HStem: 45 411<114 446>
VStem: 75 410<85 85 85 416>
LayerCount: 2
Fore
SplineSet
114 456 m 1
 280 288 l 1
 446 456 l 1
 485 417 l 1
 317 251 l 1
 485 85 l 1
 446 45 l 1
 280 213 l 1
 114 46 l 1
 75 85 l 1
 242 251 l 1
 75 416 l 1
 114 456 l 1
EndSplineSet
EndChar

StartChar: dotlessi
Encoding: 305 305 184
Width: 209
Flags: MW
HStem: 0 21G<75 75 75 134> 480 20G<75 134 134 134>
VStem: 75 59<0 500 0 500>
LayerCount: 2
Fore
SplineSet
75 0 m 1
 75 500 l 1
 134 500 l 1
 134 0 l 1
 75 0 l 1
EndSplineSet
EndChar

StartChar: iacute
Encoding: 237 237 185
Width: 209
Flags: MW
HStem: 0 737<75 247 134 247>
VStem: 40 229<640 685>
LayerCount: 2
Fore
SplineSet
40 640 m 1
 247 737 l 1
 269 685 l 1
 59 598 l 1
 40 640 l 1
75 500 m 1
 75 0 l 1
 134 0 l 1
 134 500 l 1
 75 500 l 1
EndSplineSet
EndChar

StartChar: igrave
Encoding: 236 236 186
Width: 209
Flags: MW
HStem: 0 21G<75 75 75 134> 480 20G<75 134 134 134>
VStem: 75 59<0 500 0 500>
LayerCount: 2
Fore
SplineSet
75 0 m 1
 75 500 l 1
 134 500 l 1
 134 0 l 1
 75 0 l 1
-38 737 m 1
 169 640 l 1
 150 598 l 1
 -60 685 l 1
 -38 737 l 1
EndSplineSet
EndChar

StartChar: icircumflex
Encoding: 238 238 187
Width: 209
Flags: MW
HStem: 500 232<75 124 82 124 82 134> 595 137<-40 124 -40 124 82 184 82 247> 687 45<104 104>
VStem: -40 287<595 595>
LayerCount: 2
Fore
SplineSet
75 500 m 1x90
 75 0 l 1
 134 0 l 1
 134 500 l 1
 75 500 l 1x90
-40 595 m 1x50
 82 732 l 1
 124 732 l 1
 247 595 l 1
 184 595 l 1x50
 104 687 l 1x30
 23 595 l 1
 -40 595 l 1x50
EndSplineSet
EndChar

StartChar: germandbls
Encoding: 223 223 188
Width: 564
Flags: MW
HStem: -10 55<304 376.5 304 399> 0 21G<75 134 75 75> 677 55<216 307.5>
VStem: 75 59<0 541> 246 62<401 422 401 431.5> 383 63<565 620.5> 463 63<130 203>
LayerCount: 2
Fore
SplineSet
134 0 m 1x7e
 75 0 l 1
 75 551 l 2
 75 688 130 732 261 732 c 0
 396 732 446 690 446 591 c 0x7e
 446 520 423 486 368 462 c 0
 321 440 308 432 308 412 c 0
 308 390 326 378 395 343 c 0
 491 295 526 263 526 180 c 0
 526 45 472 -10 326 -10 c 0
 279 -10 201 3 201 3 c 1
 204 55 l 1
 204 55 286 45 322 45 c 0
 431 45 463 88 463 172 c 0xba
 463 234 439 255 350 299 c 0
 269 339 246 360 246 408 c 0
 246 455 274 474 323 496 c 0
 371 518 383 542 383 588 c 0
 383 653 354 677 261 677 c 0
 171 677 134 652 134 541 c 2
 134 0 l 1x7e
EndSplineSet
EndChar

StartChar: ccedilla
Encoding: 231 231 189
Width: 433
Flags: MW
HStem: -211 43<244 269 240 292.5> -90 38<246 255> -10 54<246 260 246 246> -7 21G<208 208> 456 54<211 282.5 186.5 290>
VStem: 54 62<180.5 331 180.5 350.5> 208 38<-52 -10 -52 -7 -52 -7> 300 55<-142.5 -113.5>
LayerCount: 2
Fore
SplineSet
355 -127 m 0xef
 355 -186 319 -211 266 -211 c 0
 222 -211 182 -205 182 -205 c 1
 184 -165 l 1
 184 -165 225 -168 255 -168 c 0
 283 -168 300 -158 300 -127 c 0
 300 -100 283 -90 255 -90 c 2
 208 -90 l 1
 208 -7 l 1xdf
 88 8 54 85 54 259 c 0
 54 442 112 510 261 510 c 0
 304 510 391 497 391 497 c 1
 388 446 l 1
 388 446 309 456 271 456 c 0
 151 456 116 403 116 259 c 0
 116 102 140 44 271 44 c 0
 309 44 390 53 390 53 c 1
 392 2 l 1
 392 2 303 -10 260 -10 c 2
 246 -10 l 1
 246 -52 l 1
 319 -52 355 -66 355 -127 c 0xef
EndSplineSet
EndChar

StartChar: lslash
Encoding: 322 322 190
Width: 292
Flags: MW
HStem: 0 21G<113 113 113 173> 702 20G<113 173 173 173>
VStem: 113 60<0 294 294 294 400 722>
LayerCount: 2
Fore
SplineSet
113 0 m 1
 113 294 l 1
 42 244 l 1
 11 287 l 1
 113 358 l 1
 113 722 l 1
 173 722 l 1
 173 400 l 1
 249 454 l 1
 280 411 l 1
 173 336 l 1
 173 0 l 1
 113 0 l 1
EndSplineSet
EndChar

StartChar: eth
Encoding: 240 240 191
Width: 543
Flags: MW
HStem: -9 55<211.5 321 211.5 343> 373 55<206.5 288.5 185 290> 704 21G<409 409> 712 20G<113 113>
VStem: 43 63<160.5 259.5 160.5 278> 426 62<334 334>
LayerCount: 2
Fore
SplineSet
156 534 m 1xdc
 127 573 l 1
 227 640 l 1
 190 657 148 672 99 685 c 1
 113 732 l 1
 176 717 231 698 278 675 c 1
 380 743 l 1xdc
 409 704 l 1
 326 648 l 1xec
 433 581 488 484 488 353 c 0
 488 89 423 -9 263 -9 c 0
 125 -9 43 69 43 214 c 0
 43 342 119 428 251 428 c 0
 326 428 425 389 425 389 c 1
 421 474 379 553 276 614 c 1
 156 534 l 1xdc
254 373 m 0
 159 373 106 305 106 214 c 0
 106 107 160 46 263 46 c 0
 379 46 424 115 426 334 c 1
 426 334 326 373 254 373 c 0
EndSplineSet
EndChar

StartChar: Thorn
Encoding: 222 222 192
Width: 600
Flags: MW
HStem: 0 185<87 341 87 341> 126 59<149 341 149 341> 523 58<149 341 149 341>
VStem: 87 62<0 126 185 523 581 697> 494 63<308.5 418>
LayerCount: 2
Fore
SplineSet
341 185 m 2x78
 449 185 494 254 494 363 c 0
 494 473 449 523 341 523 c 2
 149 523 l 1
 149 185 l 1
 341 185 l 2x78
341 126 m 2
 149 126 l 1x78
 149 0 l 1
 87 0 l 1xb8
 87 697 l 1
 149 697 l 1
 149 581 l 1
 341 581 l 2
 490 581 557 512 557 363 c 0
 557 215 490 126 341 126 c 2
EndSplineSet
Position2: "'cpsp' Capital Spacing in Lateinisch lookup 0 subtable" dx=5 dy=0 dh=10 dv=0
EndChar

StartChar: oslash
Encoding: 248 248 193
Width: 527
Flags: MW
HStem: -10 53<252.5 328.5 252.5 347.5> -2 21G<185 185> 457 53<206.5 275> 481 20G<342 342>
VStem: 54 62<206.5 332 206.5 345.5> 412 61<180.5 303>
LayerCount: 2
Fore
SplineSet
264 510 m 0xac
 294 510 320 507 342 501 c 1
 385 605 l 1
 428 590 l 1
 384 485 l 1
 448 450 473 376 473 257 c 0
 473 68 431 -10 264 -10 c 0x9c
 233 -10 207 -7 185 -2 c 1x6c
 140 -113 l 1
 98 -98 l 1
 142 13 l 1
 74 48 54 126 54 257 c 0
 54 434 109 510 264 510 c 0xac
264 457 m 0
 149 457 116 407 116 257 c 0
 116 156 123 94 166 65 c 1
 322 450 l 1
 306 455 286 457 264 457 c 0
264 43 m 0
 393 43 412 104 412 257 c 0
 412 349 399 404 362 432 c 1
 205 49 l 1
 221 45 241 43 264 43 c 0
EndSplineSet
EndChar

StartChar: zero.pnum
Encoding: 65540 -1 194
Width: 531
Flags: MW
HStem: -9 52<221 313 221 326.5> 456 53<220.5 312.5>
VStem: 56 57<163.5 331 163.5 344.5> 416 58<162.5 330>
LayerCount: 2
Fore
SplineSet
264 509 m 0
 396 509 474 453 474 241 c 0
 474 46 388 -9 265 -9 c 0
 147 -9 56 46 56 243 c 0
 56 446 140 509 264 509 c 0
265 456 m 0
 176 456 113 418 113 244 c 0
 113 83 176 43 266 43 c 0
 360 43 416 83 416 242 c 0
 416 418 360 456 265 456 c 0
EndSplineSet
Substitution2: "'frac' Diagonal Fractions in Lateinisch lookup 1 subtable" zerosuperior
EndChar

StartChar: one.pnum
Encoding: 65541 -1 195
Width: 343
Flags: MW
HStem: 0 21G<207 265 207 207> 480 20G<212 265 265 265>
VStem: 207 58<0 435 435 435>
LayerCount: 2
Fore
SplineSet
29 388 m 1
 212 500 l 1
 265 500 l 1
 265 0 l 1
 207 0 l 1
 207 435 l 1
 54 342 l 1
 29 388 l 1
EndSplineSet
Substitution2: "'frac' Diagonal Fractions in Lateinisch lookup 1 subtable" onesuperior
EndChar

StartChar: two.pnum
Encoding: 65542 -1 196
Width: 469
Flags: MW
HStem: 0 53<130 418 130 418> 455 54<194.5 263>
VStem: 344 60<333 396.5>
LayerCount: 2
Fore
SplineSet
418 0 m 1
 54 0 l 1
 54 51 l 1
 237 205 l 2
 309 264 344 303 344 363 c 0
 344 430 307 455 219 455 c 0
 167 455 59 437 59 436 c 2
 54 488 l 1
 54 488 158 509 231 509 c 0
 340 509 404 467 404 367 c 0
 404 285 362 241 297 189 c 2
 130 53 l 1
 418 53 l 1
 418 0 l 1
EndSplineSet
Substitution2: "'frac' Diagonal Fractions in Lateinisch lookup 1 subtable" twosuperior
EndChar

StartChar: three.pnum
Encoding: 65543 -1 197
Width: 483
Flags: MW
HStem: -9 21G<202.5 300> -9 55<203.5 244 203.5 300> 237 51<123 247 123 248 123 247> 456 54<199 276>
VStem: 356 57<344 406.5> 371 57<108 179>
LayerCount: 2
Fore
SplineSet
60 492 m 1x74
 60 492 161 510 237 510 c 0
 348 510 413 477 413 384 c 0x78
 413 295 333 271 324 267 c 1
 375 251 428 225 428 139 c 0
 428 38 356 -9 244 -9 c 0x74
 161 -9 53 10 53 10 c 1xb4
 61 62 l 1
 61 62 163 46 244 46 c 0
 327 47 371 75 371 141 c 0x74
 371 217 308 234 248 237 c 2
 123 237 l 1
 123 288 l 1
 247 288 l 2
 299 290 356 312 356 376 c 0x78
 356 437 314 456 238 456 c 0
 159 456 66 440 66 440 c 1
 60 492 l 1x74
EndSplineSet
Substitution2: "'frac' Diagonal Fractions in Lateinisch lookup 1 subtable" threesuperior
EndChar

StartChar: four.pnum
Encoding: 65544 -1 198
Width: 470
Flags: MW
HStem: 96 54<101 320 101 320 378 434> 480 20G<201 261 261 261>
VStem: 320 58<-25 96 -25 96 150 289>
LayerCount: 2
Fore
SplineSet
320 -25 m 1
 320 96 l 1
 37 96 l 1
 37 142 l 1
 201 500 l 1
 261 500 l 1
 101 150 l 1
 320 150 l 1
 320 289 l 1
 378 289 l 1
 378 150 l 1
 434 150 l 1
 434 96 l 1
 378 96 l 1
 378 -25 l 1
 320 -25 l 1
EndSplineSet
Substitution2: "'frac' Diagonal Fractions in Lateinisch lookup 1 subtable" foursuperior
EndChar

StartChar: five.pnum
Encoding: 65545 -1 199
Width: 486
Flags: MW
HStem: -9 21G -9 54<217.5 290.5 217.5 310.5> 262 53<226 290> 445 57<132 416 132 132>
VStem: 72 53.5 375 61<121.5 199>
LayerCount: 2
Fore
SplineSet
81 502 m 1x7c
 416 502 l 1
 416 445 l 1
 132 445 l 1
 119 281 l 1
 119 281 193 315 259 315 c 0
 366 315 436 271 436 164 c 0
 436 50 366 -9 255 -9 c 0x7c
 175 -9 59 12 59 12 c 1xbc
 65 65 l 1
 65 65 182 45 253 45 c 0
 328 45 375 81 375 162 c 0
 375 236 327 262 253 262 c 0
 192 262 106 224 106 224 c 1
 63 234 l 1
 81 502 l 1x7c
EndSplineSet
Substitution2: "'frac' Diagonal Fractions in Lateinisch lookup 1 subtable" fivesuperior
EndChar

StartChar: six.pnum
Encoding: 65546 -1 200
Width: 488
Flags: MW
HStem: -10 51<203 291.5 203 307.5> 262 54<240.5 301.5> 457 52<216.5 293>
VStem: 56 57<226 226 276 345.5> 383 57<117 193.5>
LayerCount: 2
Fore
SplineSet
412 494 m 1
 408 445 l 1
 408 445 325 457 261 457 c 0
 172 457 113 415 113 276 c 1
 154 295 217 316 264 316 c 0
 379 316 440 264 440 157 c 0
 440 49 370 -10 245 -10 c 0
 123 -10 56 70 56 254 c 0
 56 444 139 509 261 509 c 0
 333 509 412 494 412 494 c 1
257 262 m 0
 195 262 113 226 113 226 c 1
 115 103 158 41 248 41 c 0
 335 41 383 77 383 157 c 0
 383 230 346 262 257 262 c 0
EndSplineSet
Substitution2: "'frac' Diagonal Fractions in Lateinisch lookup 1 subtable" sixsuperior
EndChar

StartChar: seven.pnum
Encoding: 65547 -1 201
Width: 408
Flags: MW
HStem: -9 21G<156 156> 449 52<37 374 37 318>
VStem: 318 56<430 449 449 449>
LayerCount: 2
Fore
SplineSet
37 449 m 1
 37 501 l 1
 374 501 l 1
 374 428 l 1
 156 -9 l 1
 106 6 l 1
 318 430 l 1
 318 449 l 1
 37 449 l 1
EndSplineSet
Substitution2: "'frac' Diagonal Fractions in Lateinisch lookup 1 subtable" sevensuperior
EndChar

StartChar: eight.pnum
Encoding: 65548 -1 202
Width: 509
Flags: MW
HStem: -10 51<212 296.5 212 312.5> 236 48<206 295 206 295> 458 51<210.5 295.5>
VStem: 56 58<95 164 95 170> 65 58<349 407 349 426> 387 58<348.5 406.5> 395 58<97.5 171.5>
LayerCount: 2
Fore
SplineSet
253 509 m 0xec
 370 509 445 472 445 379 c 0xf4
 445 314 409 282 349 262 c 1
 407 242 453 215 453 134 c 0
 453 22 372 -10 253 -10 c 0
 137 -10 56 25 56 128 c 0xf2
 56 212 99 238 154 262 c 1
 102 282 65 313 65 380 c 0
 65 472 135 509 253 509 c 0xec
253 41 m 0xf2
 340 41 395 58 395 137 c 0
 395 206 353 221 295 236 c 1
 206 236 l 1
 147 221 114 197 114 131 c 0
 114 59 171 41 253 41 c 0xf2
253 458 m 0xec
 168 458 123 438 123 376 c 0
 123 322 150 301 206 284 c 1
 295 284 l 1
 355 299 387 321 387 376 c 0
 387 437 338 458 253 458 c 0xec
EndSplineSet
Substitution2: "'frac' Diagonal Fractions in Lateinisch lookup 1 subtable" eightsuperior
EndChar

StartChar: nine.pnum
Encoding: 65549 -1 203
Width: 486
Flags: MW
HStem: -9 52<189 268 189 285> 189 51<187.5 259> 458 52<192 280.5>
VStem: 49 58<310.5 383 310.5 395.5> 371 59<157.5 226>
LayerCount: 2
Fore
SplineSet
69 8 m 1
 74 57 l 1
 74 57 155 43 223 43 c 0
 313 43 371 89 371 226 c 1
 371 226 292 189 226 189 c 0
 109 189 49 245 49 343 c 0
 49 448 121 510 235 510 c 0
 363 510 430 426 430 251 c 0
 430 58 347 -9 223 -9 c 0
 150 -9 69 8 69 8 c 1
229 240 m 0
 295 240 370 277 370 277 c 1
 367 398 327 458 234 458 c 0
 150 458 107 422 107 344 c 0
 107 277 146 240 229 240 c 0
EndSplineSet
Substitution2: "'frac' Diagonal Fractions in Lateinisch lookup 1 subtable" ninesuperior
EndChar

StartChar: brokenbar
Encoding: 166 166 204
Width: 225
Flags: MW
HStem: -225 21G<82 142 82 82> 702 20G<82 142 142 142>
VStem: 82 60<-225 152 -225 152 347 722>
LayerCount: 2
Fore
SplineSet
82 722 m 1
 142 722 l 1
 142 347 l 1
 82 347 l 1
 82 722 l 1
82 152 m 1
 142 152 l 1
 142 -225 l 1
 82 -225 l 1
 82 152 l 1
EndSplineSet
EndChar

StartChar: plusminus
Encoding: 177 177 205
Width: 560
Flags: MW
HStem: 42 56<57 503 57 503> 298 56<57 250 57 250 307 503>
VStem: 250 57<165 298 165 298 354 484>
LayerCount: 2
Fore
SplineSet
57 298 m 1
 57 354 l 1
 250 354 l 1
 250 484 l 1
 307 484 l 1
 307 354 l 1
 503 354 l 1
 503 298 l 1
 307 298 l 1
 307 165 l 1
 250 165 l 1
 250 298 l 1
 57 298 l 1
57 98 m 1
 503 98 l 1
 503 42 l 1
 57 42 l 1
 57 98 l 1
EndSplineSet
EndChar

StartChar: pi
Encoding: 960 960 206
Width: 560
Flags: MW
HStem: -3 53<484 520 484 520> 0 21G<105 166 105 105> 447 53<136 394 194 369 194 194>
VStem: 369 59<154 447 447 447>
LayerCount: 2
Fore
SplineSet
369 154 m 2xb0
 369 447 l 1
 194 447 l 1
 166 0 l 1
 105 0 l 1x70
 136 447 l 1
 63 446 23 434 23 434 c 1
 23 486 l 1
 23 486 81 500 163 500 c 2
 394 500 l 2
 471 500 530 515 530 515 c 1
 530 463 l 1
 530 463 501 451 428 449 c 1
 428 154 l 2
 428 68 448 50 520 50 c 1
 520 -3 l 1
 399 -3 369 27 369 154 c 2xb0
EndSplineSet
EndChar

StartChar: bullet
Encoding: 8226 8226 207
Width: 478
Flags: MW
HStem: 107 288<114 364 114 364>
VStem: 114 250<107 395 107 395>
LayerCount: 2
Fore
SplineSet
114 107 m 1
 114 395 l 1
 364 395 l 1
 364 107 l 1
 114 107 l 1
EndSplineSet
EndChar

StartChar: ordfeminine
Encoding: 170 170 208
Width: 378
Flags: MW
HStem: 368 45<136 163.5> 501.5 39.5 613 46<170 205>
VStem: 57 53<440.5 469.5 440.5 481.5> 238 52<431 504 504 504 544 564 428 566 428 583.5>
LayerCount: 2
Fore
SplineSet
290 564 m 2
 290 428 l 1
 297 418 311 412 322 409 c 1
 320 368 l 1
 277 368 264 376 248 392 c 1
 248 392 190 368 137 368 c 0
 88 368 57 402 57 455 c 0
 57 508 85 534 145 538 c 2
 238 544 l 1
 238 566 l 2
 238 601 222 613 188 613 c 0
 152 613 77 606 77 606 c 1
 75 646 l 1
 75 646 144 659 190 659 c 0
 256 659 290 635 290 564 c 2
238 504 m 1
 154 499 l 2
 123 497 110 484 110 455 c 0
 110 426 124 413 148 413 c 0
 187 413 238 431 238 431 c 1
 238 504 l 1
EndSplineSet
EndChar

StartChar: ordmasculine
Encoding: 186 186 209
Width: 370
Flags: MW
HStem: 368 50<159 211.5 159 227.5> 609 50<159 211.5>
VStem: 56 56<480.5 549 480.5 565> 257 55<480.5 549>
LayerCount: 2
Fore
SplineSet
185 659 m 0
 270 659 312 615 312 515 c 0
 312 415 270 368 185 368 c 0
 100 368 56 415 56 515 c 0
 56 615 100 659 185 659 c 0
185 418 m 0
 238 418 257 446 257 515 c 0
 257 583 238 609 185 609 c 0
 133 609 112 583 112 515 c 0
 112 446 133 418 185 418 c 0
EndSplineSet
EndChar

StartChar: quotedblleft
Encoding: 8220 8220 210
Width: 355
Flags: MW
HStem: 504 211<113 119 55 161 259 265 113 201>
VStem: 55 252<504 715>
LayerCount: 2
Fore
SplineSet
307 715 m 1
 265 504 l 1
 201 504 l 1
 259 715 l 1
 307 715 l 1
161 715 m 1
 119 504 l 1
 55 504 l 1
 113 715 l 1
 161 715 l 1
EndSplineSet
EndChar

StartChar: asciitilde
Encoding: 126 126 211
Width: 560
Flags: MW
HStem: 201 56<359.5 400 359.5 408> 267 56<163.5 204>
VStem: 68 426<255 269>
LayerCount: 2
Fore
SplineSet
484 305 m 1
 494 255 l 1
 494 255 434 201 382 201 c 0xa0
 325 201 225 267 183 267 c 0
 144 267 79 218 79 218 c 1
 68 269 l 1
 68 269 131 323 183 323 c 0xe0
 239 323 337 257 382 257 c 0
 418 257 484 305 484 305 c 1
EndSplineSet
EndChar

StartChar: emdash
Encoding: 8212 8212 212
Width: 1136
Flags: MW
HStem: 241 54<68 1068 68 1068>
VStem: 68 1000<241 295 241 295>
LayerCount: 2
Fore
SplineSet
68 295 m 1
 1068 295 l 1
 1068 241 l 1
 68 241 l 1
 68 295 l 1
EndSplineSet
Substitution2: "'case' Case-Sensitive Forms in Lateinisch lookup 4 subtable" emdash.cap
EndChar

StartChar: six
Encoding: 54 54 213
Width: 560
Flags: MW
HStem: -10 56<224 338.5 224 358.5> 355 55<254 339> 614 56<247 349>
VStem: 54 64<367.5 448 367.5 452.5> 449 64<155.5 258>
LayerCount: 2
Fore
SplineSet
484 655 m 1
 478 604 l 1
 478 604 391 614 307 614 c 0
 187 614 118 528 118 368 c 0
 118 367 215 410 293 410 c 0
 438 410 513 344 513 208 c 0
 513 70 432 -10 285 -10 c 0
 124 -10 54 120 54 334 c 0
 54 571 153 670 307 670 c 0
 391 670 484 655 484 655 c 1
289 355 m 0
 207 355 117 312 117 312 c 1
 119 159 163 46 285 46 c 0
 392 46 449 103 449 208 c 0
 449 308 389 355 289 355 c 0
EndSplineSet
Substitution2: "'frac' Diagonal Fractions in Lateinisch lookup 1 subtable" sixsuperior
EndChar

StartChar: nine
Encoding: 57 57 214
Width: 560
Flags: MW
HStem: -10 56<205 311 205 328> 252 55<212 297> 614 56<220 332>
VStem: 44 64<400.5 501 400.5 518> 441 64<292 292.5>
LayerCount: 2
Fore
SplineSet
70 6 m 1
 76 57 l 1
 76 57 163 46 247 46 c 0
 375 46 439 122 441 292 c 0
 441 293 336 252 258 252 c 0
 120 252 44 313 44 451 c 0
 44 585 133 670 270 670 c 0
 434 670 505 536 505 326 c 0
 505 72 409 -10 247 -10 c 0
 163 -10 70 6 70 6 c 1
262 307 m 0
 335 307 442 347 442 347 c 1
 439 504 394 614 270 614 c 0
 170 614 108 551 108 451 c 0
 108 350 162 307 262 307 c 0
EndSplineSet
Substitution2: "'frac' Diagonal Fractions in Lateinisch lookup 1 subtable" ninesuperior
EndChar

StartChar: yen
Encoding: 165 165 215
Width: 560
Flags: MW
HStem: 0 21G<250 312 250 250> 170 53<58 250 58 250 312 503> 321 53<57 208 57 208 57 241 354 502>
VStem: 250 62<0 170 0 170 223 301>
LayerCount: 2
Fore
SplineSet
57 321 m 1
 57 374 l 1
 208 374 l 1
 27 660 l 1
 96 660 l 1
 281 375 l 1
 463 660 l 1
 533 660 l 1
 354 374 l 1
 502 374 l 1
 502 321 l 1
 322 321 l 1
 312 301 l 1
 312 223 l 1
 503 223 l 1
 503 170 l 1
 312 170 l 1
 312 0 l 1
 250 0 l 1
 250 170 l 1
 58 170 l 1
 58 223 l 1
 250 223 l 1
 250 301 l 1
 241 321 l 1
 57 321 l 1
EndSplineSet
EndChar

StartChar: less
Encoding: 60 60 216
Width: 560
Flags: MW
HStem: 14 472<479 479>
VStem: 59 420<14 278 14 278>
LayerCount: 2
Fore
SplineSet
479 423 m 1
 120 252 l 1
 479 78 l 1
 479 14 l 1
 59 224 l 1
 59 278 l 1
 479 486 l 1
 479 423 l 1
EndSplineSet
EndChar

StartChar: greater
Encoding: 62 62 217
Width: 560
Flags: MW
HStem: 14 472<80 80>
VStem: 80 420<14 278 78 278 224 486 224 486>
LayerCount: 2
Fore
SplineSet
439 252 m 1
 80 423 l 1
 80 486 l 1
 500 278 l 1
 500 224 l 1
 80 14 l 1
 80 78 l 1
 439 252 l 1
EndSplineSet
EndChar

StartChar: bracketleft
Encoding: 91 91 218
Width: 322
Flags: MW
HStem: -123 54<142 281 142 281> 695 54<142 281 142 142>
VStem: 81 61<-69 695 -69 749 -69 749>
LayerCount: 2
Fore
SplineSet
281 749 m 1
 281 695 l 1
 142 695 l 1
 142 -69 l 1
 281 -69 l 1
 281 -123 l 1
 81 -123 l 1
 81 749 l 1
 281 749 l 1
EndSplineSet
Substitution2: "'case' Case-Sensitive Forms in Lateinisch lookup 4 subtable" bracketleft.cap
EndChar

StartChar: backslash
Encoding: 92 92 219
Width: 421
Flags: MW
HStem: -9 21G<335 335>
VStem: 30 360
LayerCount: 2
Fore
SplineSet
390 14 m 1
 335 -9 l 1
 30 681 l 1
 84 705 l 1
 390 14 l 1
EndSplineSet
EndChar

StartChar: bracketright
Encoding: 93 93 220
Width: 322
Flags: MW
HStem: -123 54<41 180 41 241 41 180> 695 54<41 241 41 180>
VStem: 180 61<-69 695 695 695>
LayerCount: 2
Fore
SplineSet
41 695 m 1
 41 749 l 1
 241 749 l 1
 241 -123 l 1
 41 -123 l 1
 41 -69 l 1
 180 -69 l 1
 180 695 l 1
 41 695 l 1
EndSplineSet
Substitution2: "'case' Case-Sensitive Forms in Lateinisch lookup 4 subtable" bracketright.cap
EndChar

StartChar: bar
Encoding: 124 124 221
Width: 221
Flags: MW
HStem: -225 21G<80 80 80 140> 702 20G<80 140 140 140>
VStem: 80 60<-225 722 -225 722>
LayerCount: 2
Fore
SplineSet
80 -225 m 1
 80 722 l 1
 140 722 l 1
 140 -225 l 1
 80 -225 l 1
EndSplineSet
EndChar

StartChar: notequal
Encoding: 8800 8800 222
Width: 560
Flags: MW
HStem: -1 21G<147 147> 133 56<65 205 65 230 288 494 65 264> 312 56<65 308 65 283 65 342 366 494> 484 20G<426 426>
VStem: 65 429<133 189 133 189 312 368 133 368>
LayerCount: 2
Fore
SplineSet
65 312 m 1
 65 368 l 1
 308 368 l 1
 376 524 l 1
 426 504 l 1
 366 368 l 1
 494 368 l 1
 494 312 l 1
 342 312 l 1
 288 189 l 1
 494 189 l 1
 494 133 l 1
 264 133 l 1
 197 -21 l 1
 147 -1 l 1
 205 133 l 1
 65 133 l 1
 65 189 l 1
 230 189 l 1
 283 312 l 1
 65 312 l 1
EndSplineSet
EndChar

StartChar: mu
Encoding: 181 181 223
Width: 560
Flags: MW
HStem: -225 21G<89 148 89 89> -10 54<231.5 294.5> 0 21G<410 469 410 410> 480 20G<89 148 148 148 410 469 469 469>
VStem: 89 59<-225 15 165.5 240 240 500> 410 59<0 37 37 37 86 500 0 500>
LayerCount: 2
Fore
SplineSet
410 500 m 1xdc
 469 500 l 1
 469 0 l 1
 410 0 l 1xbc
 410 37 l 1
 410 37 333 -10 256 -10 c 0
 207 -10 173 -2 148 15 c 1
 148 -225 l 1
 89 -225 l 1
 89 500 l 1
 148 500 l 1
 148 240 l 2
 148 91 163 44 263 44 c 0
 342 44 410 86 410 86 c 1
 410 500 l 1xdc
EndSplineSet
EndChar

StartChar: ae
Encoding: 230 230 224
Width: 809
Flags: MW
HStem: -10 55<518.5 592> 225 50<419 701 419 759 419 701> 246.5 51 452 57<227 294.5> 456 53<530.5 611.5>
VStem: 43 62<109.5 173.5 109.5 197> 358 61<225 225 225 254> 701 61<275 341>
LayerCount: 2
Fore
SplineSet
559 45 m 0xd7
 632 45 741 54 741 54 c 1
 743 4 l 1
 743 4 631 -10 553 -10 c 0
 484 -10 437 10 407 46 c 1
 373 31 l 2
 364 27 279 -10 176 -10 c 0
 89 -10 43 42 43 141 c 0
 43 253 99 277 225 291 c 2
 360 304 l 1xb7
 360 349 l 2
 360 422 325 452 264 452 c 0
 190 452 74 442 74 442 c 1
 72 496 l 1
 72 496 188 509 266 509 c 0
 338 509 383 483 402 428 c 1
 438 487 496 509 565 509 c 0
 694 509 762 441 762 273 c 1
 759 225 l 1
 419 225 l 1
 420 107 454 45 559 45 c 0xd7
183 43 m 0
 263 43 368 80 381 85 c 1
 363 128 358 184 358 254 c 1
 197 239 l 2xb7
 133 233 105 205 105 142 c 0
 105 77 134 43 183 43 c 0
419 275 m 1
 701 275 l 1
 701 407 658 456 565 456 c 0xcf
 473 456 419 404 419 275 c 1
EndSplineSet
EndChar

StartChar: florin
Encoding: 402 402 225
Width: 560
Flags: MW
HStem: -237 55<113.5 157.5 113.5 181.5> -230 21G<37 37> 360 53<146 211 146 211 271 422> 628 55<325.5 364 283.5 372.5>
VStem: 211 60<-56 360 413 474 474 501>
LayerCount: 2
Fore
SplineSet
271 -57 m 2xb8
 271 -193 230 -237 133 -237 c 0xb8
 94 -237 37 -230 37 -230 c 1x78
 39 -178 l 1
 39 -178 98 -182 129 -182 c 0
 186 -182 211 -151 211 -56 c 2
 211 360 l 1
 146 360 l 1
 146 413 l 1
 211 413 l 1
 211 474 l 2
 211 578 224 683 343 683 c 0
 385 683 440 675 440 675 c 1
 439 624 l 1
 439 624 393 628 352 628 c 0
 299 628 271 589 271 501 c 2
 271 413 l 1
 422 413 l 1
 422 360 l 1
 271 360 l 1
 271 -57 l 2xb8
EndSplineSet
EndChar

StartChar: oe
Encoding: 339 339 226
Width: 863
Flags: MW
HStem: -10 54<200.5 313.5> 225 50<473 755 473 813 473 755> 455 54<208 310.5 188 316>
VStem: 54 62<182 332.5 182 346.5> 412 61<185.5 225 275 328.5> 755 60<275 341>
LayerCount: 2
Fore
SplineSet
612 45 m 0
 685 45 795 54 795 54 c 1
 797 4 l 1
 797 4 684 -10 606 -10 c 0
 519 -10 469 23 441 87 c 1
 414 19 362 -10 265 -10 c 0
 97 -10 54 69 54 258 c 0
 54 435 111 509 265 509 c 0
 356 509 414 478 444 399 c 1
 478 482 541 509 618 509 c 0
 747 509 815 441 815 273 c 1
 813 225 l 1
 473 225 l 1
 473 107 507 45 612 45 c 0
265 44 m 0
 394 44 412 114 412 257 c 0
 412 400 367 455 265 455 c 0
 151 455 116 407 116 258 c 0
 116 106 136 44 265 44 c 0
473 275 m 1
 755 275 l 1
 755 407 712 456 618 456 c 0
 527 456 473 404 473 275 c 1
EndSplineSet
EndChar

StartChar: daggerdbl
Encoding: 8225 8225 227
Width: 523
Flags: MW
HStem: 118 52<58 232 58 232 291 465> 446 54<58 232 58 232 291 465>
VStem: 232 59<-77 118 -77 118 170 446 500 695>
LayerCount: 2
Fore
SplineSet
232 -77 m 1
 232 118 l 1
 58 118 l 1
 58 170 l 1
 232 170 l 1
 232 446 l 1
 58 446 l 1
 58 500 l 1
 232 500 l 1
 232 695 l 1
 291 695 l 1
 291 500 l 1
 465 500 l 1
 465 446 l 1
 291 446 l 1
 291 170 l 1
 465 170 l 1
 465 118 l 1
 291 118 l 1
 291 -77 l 1
 232 -77 l 1
EndSplineSet
EndChar

StartChar: quotedbl
Encoding: 34 34 228
Width: 364
Flags: MW
HStem: 477 218<73 127 73 73 236 291 236 236>
VStem: 71 58 234.5 58.5
LayerCount: 2
Fore
SplineSet
291 477 m 1
 236 477 l 1
 233 695 l 1
 295 695 l 1
 291 477 l 1
127 477 m 1
 73 477 l 1
 69 695 l 1
 131 695 l 1
 127 477 l 1
EndSplineSet
EndChar

StartChar: quotesingle
Encoding: 39 39 229
Width: 200
Flags: MW
HStem: 477 218<72 72 72 126>
VStem: 70.5 58.5
LayerCount: 2
Fore
SplineSet
72 477 m 1
 69 695 l 1
 132 695 l 1
 126 477 l 1
 72 477 l 1
EndSplineSet
EndChar

StartChar: parenleft
Encoding: 40 40 230
Width: 252
Flags: MW
HStem: -125 875<155 213 155 213>
VStem: 54 64<206.5 396.5 206.5 406>
LayerCount: 2
Fore
SplineSet
155 750 m 1
 213 750 l 1
 213 750 118 492 118 301 c 0
 118 112 213 -125 213 -125 c 1
 155 -125 l 1
 155 -125 54 91 54 301 c 0
 54 511 155 750 155 750 c 1
EndSplineSet
Substitution2: "'case' Case-Sensitive Forms in Lateinisch lookup 4 subtable" parenleft.cap
EndChar

StartChar: parenright
Encoding: 41 41 231
Width: 252
Flags: MW
HStem: -125 875<40 98 40 98>
VStem: 135 64<206.5 396.5>
LayerCount: 2
Fore
SplineSet
40 750 m 1
 98 750 l 1
 98 750 199 511 199 301 c 0
 199 91 98 -125 98 -125 c 1
 40 -125 l 1
 40 -125 135 112 135 301 c 0
 135 492 40 750 40 750 c 1
EndSplineSet
Substitution2: "'case' Case-Sensitive Forms in Lateinisch lookup 4 subtable" parenright.cap
EndChar

StartChar: comma
Encoding: 44 44 232
Width: 213
Flags: MW
HStem: -123 222<38 149 82 88>
VStem: 38 111
LayerCount: 2
Fore
SplineSet
38 -123 m 1
 82 99 l 1
 149 99 l 1
 88 -123 l 1
 38 -123 l 1
EndSplineSet
EndChar

StartChar: hyphen
Encoding: 45 45 233
Width: 445
Flags: MW
HStem: 249 56<71 375 71 375>
VStem: 71 304<249 305 249 305>
LayerCount: 2
Fore
SplineSet
71 249 m 1
 71 305 l 1
 375 305 l 1
 375 249 l 1
 71 249 l 1
EndSplineSet
EndChar

StartChar: period
Encoding: 46 46 234
Width: 206
Flags: MW
HStem: 0 101<70 136 70 136>
VStem: 70 66<0 101 0 101>
LayerCount: 2
Fore
SplineSet
70 0 m 1
 70 101 l 1
 136 101 l 1
 136 0 l 1
 70 0 l 1
EndSplineSet
EndChar

StartChar: colon
Encoding: 58 58 235
Width: 207
Flags: MW
HStem: 0 101<70 136 70 136> 330 102<70 136 70 136>
VStem: 70 66<0 101 0 101 330 432>
LayerCount: 2
Fore
SplineSet
70 330 m 1
 70 432 l 1
 136 432 l 1
 136 330 l 1
 70 330 l 1
70 0 m 1
 70 101 l 1
 136 101 l 1
 136 0 l 1
 70 0 l 1
EndSplineSet
EndChar

StartChar: semicolon
Encoding: 59 59 236
Width: 241
Flags: MW
HStem: 330 102<92 158 92 158>
VStem: 92 66<330 432 330 432>
LayerCount: 2
Fore
SplineSet
96 99 m 1
 53 -123 l 1
 103 -123 l 1
 165 99 l 1
 96 99 l 1
92 330 m 1
 92 432 l 1
 158 432 l 1
 158 330 l 1
 92 330 l 1
EndSplineSet
EndChar

StartChar: equal
Encoding: 61 61 237
Width: 560
Flags: MW
HStem: 133 56<65 494 65 494> 312 56<65 494 65 494>
VStem: 65 429<133 189 133 189 312 368 133 368>
LayerCount: 2
Fore
SplineSet
65 312 m 1
 65 368 l 1
 494 368 l 1
 494 312 l 1
 65 312 l 1
65 133 m 1
 65 189 l 1
 494 189 l 1
 494 133 l 1
 65 133 l 1
EndSplineSet
EndChar

StartChar: question
Encoding: 63 63 238
Width: 449
Flags: MW
HStem: 1 100<158 224 158 224> 650 55<174.5 248.5>
VStem: 157 61<197 277.5> 158 66<1 101 1 101> 345 61<510.5 581.5>
LayerCount: 2
Fore
SplineSet
406 545 m 0xd8
 406 461 390 432 310 364 c 0
 254 317 218 282 218 233 c 2
 218 197 l 1
 166 197 l 1
 166 197 157 222 157 250 c 0xe8
 157 305 203 348 255 394 c 0
 327 456 345 480 345 541 c 0
 345 622 297 650 200 650 c 0
 148 650 44 625 44 625 c 1
 38 676 l 1
 38 676 144 705 205 705 c 0
 336 705 406 662 406 545 c 0xd8
158 1 m 1
 158 101 l 1
 224 101 l 1
 224 1 l 1
 158 1 l 1
EndSplineSet
EndChar

StartChar: underscore
Encoding: 95 95 239
Width: 635
Flags: MW
HStem: -150 54<103 531 103 531>
VStem: 103 428<-150 -96 -150 -96>
LayerCount: 2
Fore
SplineSet
103 -96 m 1
 531 -96 l 1
 531 -150 l 1
 103 -150 l 1
 103 -96 l 1
EndSplineSet
EndChar

StartChar: braceleft
Encoding: 123 123 240
Width: 350
Flags: MW
HStem: -127 53<307 309> 701 52<308 309>
VStem: 125 58<558.5 613 557.5 637.5>
LayerCount: 2
Fore
SplineSet
191 170 m 0
 189 133 184 91 184 53 c 0
 184 -23 208 -69 309 -74 c 1
 307 -127 l 1
 174 -122 125 -70 125 49 c 0
 125 88 132 147 132 172 c 0
 132 231 102 264 26 286 c 1
 26 336 l 1
 103 354 132 389 132 449 c 0
 132 477 125 540 125 577 c 0
 125 698 175 748 308 753 c 1
 309 701 l 1
 208 696 183 652 183 574 c 0
 183 541 190 482 190 453 c 0
 190 367 167 336 87 312 c 1
 167 288 191 253 191 170 c 0
EndSplineSet
Substitution2: "'case' Case-Sensitive Forms in Lateinisch lookup 4 subtable" braceleft.cap
EndChar

StartChar: braceright
Encoding: 125 125 241
Width: 350
Flags: MW
HStem: -127 53<41 43> 701 52<41 42>
VStem: 167 58<558.5 613>
LayerCount: 2
Fore
SplineSet
159 170 m 0
 159 253 183 288 263 312 c 1
 183 336 160 367 160 453 c 0
 160 482 167 541 167 574 c 0
 167 652 142 696 41 701 c 1
 42 753 l 1
 175 748 225 698 225 577 c 0
 225 540 218 477 218 449 c 0
 218 389 247 354 324 336 c 1
 324 286 l 1
 248 264 218 231 218 172 c 0
 218 147 225 88 225 49 c 0
 225 -70 176 -122 43 -127 c 1
 41 -74 l 1
 142 -69 166 -23 166 53 c 0
 166 91 161 133 159 170 c 0
EndSplineSet
Substitution2: "'case' Case-Sensitive Forms in Lateinisch lookup 4 subtable" braceright.cap
EndChar

StartChar: cent
Encoding: 162 162 242
Width: 560
Flags: MW
HStem: 49 44 408 178<280 331.5>
VStem: 104 64<189 305.5 189 322> 280 53<463 586 461 586>
LayerCount: 2
Fore
SplineSet
280 -83 m 1
 280 38 l 1
 160 43 104 89 104 248 c 0
 104 396 160 458 280 463 c 1
 280 586 l 1
 333 586 l 1
 333 461 l 1
 377 460 440 449 440 449 c 1
 438 399 l 1
 438 399 358 408 305 408 c 0
 203 408 168 363 168 248 c 0
 168 130 199 93 313 93 c 0
 366 93 439 100 439 100 c 1
 442 49 l 1
 442 49 376 41 334 39 c 1
 334 -83 l 1
 280 -83 l 1
EndSplineSet
EndChar

StartChar: quoteleft
Encoding: 8216 8216 243
Width: 209
Flags: MW
HStem: 504 211<113 119 55 161>
VStem: 55 106
LayerCount: 2
Fore
SplineSet
161 715 m 1
 119 504 l 1
 55 504 l 1
 113 715 l 1
 161 715 l 1
EndSplineSet
EndChar

StartChar: quoteright
Encoding: 8217 8217 244
Width: 207
Flags: MW
HStem: 503 211<57 163 99 105>
VStem: 57 106
LayerCount: 2
Fore
SplineSet
57 503 m 1
 99 714 l 1
 163 714 l 1
 105 503 l 1
 57 503 l 1
EndSplineSet
EndChar

StartChar: divide
Encoding: 247 247 245
Width: 560
Flags: MW
HStem: 33 93<249 310 249 310> 263 59<97 463 97 463> 335 90<208 352 208 352>
VStem: 208 144<335 425 335 425> 249 61<33 126 33 126>
LayerCount: 2
Fore
SplineSet
97 263 m 1xc8
 97 322 l 1
 463 322 l 1
 463 263 l 1
 97 263 l 1xc8
208 335 m 1xf0
 208 425 l 1
 352 425 l 1
 352 335 l 1
 208 335 l 1xf0
249 33 m 1xc8
 249 126 l 1
 310 126 l 1
 310 33 l 1
 249 33 l 1xc8
EndSplineSet
EndChar

StartChar: Euro
Encoding: 8364 8364 246
Width: 560
Flags: MW
HStem: -10 54<273 363> 230 51<30 93 30 96 30 93 156 456 156 156> 383 51<30 96 30 93 157 456> 617 53<273 363>
VStem: 93 61<281 281> 96 60<230 230>
LayerCount: 2
Fore
SplineSet
30 383 m 1xf8
 30 434 l 1
 96 434 l 1xf8
 110 585 166 670 332 670 c 0
 398 670 467 659 510 650 c 1
 507 599 l 1
 466 607 390 617 336 617 c 0
 210 617 169 553 157 434 c 1xf4
 456 434 l 1
 456 383 l 1
 154 383 l 1
 153 365 153 347 153 328 c 0
 153 311 153 296 154 281 c 1xf8
 456 281 l 1
 456 230 l 1
 156 230 l 1xf4
 167 107 209 44 337 44 c 0
 392 44 461 53 507 62 c 1
 510 10 l 1
 464 1 394 -10 332 -10 c 0
 167 -10 110 76 96 230 c 1
 30 230 l 1
 30 281 l 1
 93 281 l 1
 92 296 92 312 92 328 c 0
 92 347 92 365 93 383 c 1
 30 383 l 1xf8
EndSplineSet
EndChar

StartChar: ampersand
Encoding: 38 38 247
Width: 685
Flags: MW
HStem: -10 55<216.5 321 216.5 332.5> 646 52<279 350.5>
VStem: 44 60<155.5 254.5 155.5 265.5> 147 60<525.5 578.5 525.5 596> 418 61<507.5 577.5> 516 59<369 370>
LayerCount: 2
Fore
SplineSet
313 698 m 0
 427 698 479 639 479 549 c 0
 479 452 431 408 321 362 c 1
 485 199 l 1
 498 234 513 318 516 370 c 1
 575 369 l 1
 568 300 549 207 530 160 c 1
 663 33 l 1
 626 -8 l 1
 501 111 l 1
 455 28 381 -10 284 -10 c 0
 101 -10 44 72 44 205 c 0
 44 326 94 373 202 406 c 1
 153 461 147 496 147 553 c 0
 147 639 205 698 313 698 c 0
281 45 m 0
 361 45 424 77 459 148 c 1
 238 367 l 1
 142 339 104 301 104 208 c 0
 104 103 152 45 281 45 c 0
207 545 m 0
 207 506 215 468 252 431 c 2
 283 399 l 1
 380 437 418 469 418 546 c 0
 418 609 388 646 313 646 c 0
 245 646 207 612 207 545 c 0
EndSplineSet
EndChar

StartChar: asterisk
Encoding: 42 42 248
Width: 419
Flags: MW
HStem: 514 44<237 369 237 369 235 369>
VStem: 58 311<458 514>
LayerCount: 2
Fore
SplineSet
369 514 m 1
 235 514 l 1
 276 387 l 1
 234 374 l 1
 192 502 l 1
 84 423 l 1
 58 458 l 1
 167 537 l 1
 59 616 l 1
 86 652 l 1
 194 573 l 1
 235 700 l 1
 278 686 l 1
 237 558 l 1
 369 558 l 1
 369 514 l 1
EndSplineSet
EndChar

StartChar: sterling
Encoding: 163 163 249
Width: 560
Flags: MW
HStem: 0 54<81 168 228 389 81 168> 360 53<101 168 101 168 228 402> 615 54<282 336.5 261.5 337.5>
VStem: 168 60<54 360 54 360 413 462>
LayerCount: 2
Fore
SplineSet
441 654 m 1
 440 604 l 1
 440 604 358 615 317 615 c 0
 247 615 228 585 228 462 c 2
 228 413 l 1
 402 413 l 1
 402 360 l 1
 228 360 l 1
 228 54 l 1
 389 54 l 1
 468 70 l 1
 478 18 l 1
 397 0 l 1
 81 0 l 1
 81 54 l 1
 168 54 l 1
 168 360 l 1
 101 360 l 1
 101 413 l 1
 168 413 l 1
 168 466 l 2
 168 633 210 669 313 669 c 0
 360 669 441 654 441 654 c 1
EndSplineSet
EndChar

StartChar: paragraph
Encoding: 182 182 250
Width: 591
Flags: MW
HStem: 0 21G<230 285 230 230 415 470 415 415> 642 53<285 415 285 285 470 470 470 552>
VStem: 230 55<0 334 334 334> 415 55<0 642 0 642>
LayerCount: 2
Fore
SplineSet
415 0 m 1
 415 642 l 1
 285 642 l 1
 285 0 l 1
 230 0 l 1
 230 334 l 1
 223 334 l 2
 117 334 37 406 37 513 c 0
 37 621 118 695 223 695 c 2
 552 695 l 1
 552 642 l 1
 470 642 l 1
 470 0 l 1
 415 0 l 1
EndSplineSet
EndChar

StartChar: dagger
Encoding: 8224 8224 251
Width: 478
Flags: MW
HStem: 446 54<35 209 35 209 269 442>
VStem: 210.5 56.5
LayerCount: 2
Fore
SplineSet
35 446 m 1
 35 500 l 1
 209 500 l 1
 209 695 l 1
 269 695 l 1
 269 500 l 1
 442 500 l 1
 442 446 l 1
 269 446 l 1
 265 -77 l 1
 212 -77 l 1
 209 446 l 1
 35 446 l 1
EndSplineSet
EndChar

StartChar: percent
Encoding: 37 37 252
Width: 560
Flags: MW
HStem: -10 44<400.5 442 400.5 453.5> -3 21G<162 162> 223 44<400.5 442> 393 44<118.5 160 118.5 171> 626 44<118.5 160> 663 21G<402 402>
VStem: 32 51<502.5 564.5 502.5 581.5> 196 50<501.5 564> 314 51<99.5 162 99.5 178.5> 478 51<99 161.5>
LayerCount: 2
Fore
SplineSet
162 -3 m 1x77c0
 360 676 l 1
 402 663 l 1
 204 -15 l 1
 162 -3 l 1x77c0
139 670 m 0xbbc0
 204 670 246 629 246 533 c 0
 246 437 203 393 139 393 c 0
 74 393 32 437 32 534 c 0
 32 629 73 670 139 670 c 0xbbc0
83 534 m 0
 83 471 98 437 139 437 c 0
 181 437 196 470 196 533 c 0
 196 595 181 626 139 626 c 0
 98 626 83 595 83 534 c 0
421 267 m 0
 486 267 529 226 529 130 c 0
 529 34 486 -10 421 -10 c 0
 356 -10 314 34 314 131 c 0
 314 226 356 267 421 267 c 0
365 131 m 0
 365 68 380 34 421 34 c 0
 463 34 478 68 478 130 c 0
 478 193 463 223 421 223 c 0
 380 223 365 193 365 131 c 0
EndSplineSet
EndChar

StartChar: plus
Encoding: 43 43 253
Width: 560
Flags: MW
HStem: 223 56<57 250 57 250 307 503>
VStem: 250 57<20 223 20 223 279 480>
LayerCount: 2
Fore
SplineSet
57 223 m 1
 57 279 l 1
 250 279 l 1
 250 480 l 1
 307 480 l 1
 307 279 l 1
 503 279 l 1
 503 223 l 1
 307 223 l 1
 307 20 l 1
 250 20 l 1
 250 223 l 1
 57 223 l 1
EndSplineSet
EndChar

StartChar: asciicircum
Encoding: 94 94 254
Width: 560
Flags: MW
HStem: 320 340<67 306 67 306 250 496 250 431>
VStem: 67 429<320 320>
LayerCount: 2
Fore
SplineSet
431 320 m 1
 278 600 l 1
 132 320 l 1
 67 320 l 1
 250 660 l 1
 306 660 l 1
 496 320 l 1
 431 320 l 1
EndSplineSet
EndChar

StartChar: quotedblright
Encoding: 8221 8221 255
Width: 361
Flags: MW
HStem: 504 211<57 163 99 105 253 259 99 211>
VStem: 57 260<504 715>
LayerCount: 2
Fore
SplineSet
57 504 m 1
 99 715 l 1
 163 715 l 1
 105 504 l 1
 57 504 l 1
211 504 m 1
 253 715 l 1
 317 715 l 1
 259 504 l 1
 211 504 l 1
EndSplineSet
EndChar

StartChar: zerosuperior
Encoding: 8304 8304 256
Width: 280
Flags: MW
HStem: 468 49<120.5 159.5 120.5 175.5> 751 48<118.5 160.5>
VStem: 24 53<589 677 589 697> 202 53<589.5 676.5>
LayerCount: 2
Fore
SplineSet
139 799 m 0
 213 799 255 758 255 634 c 0
 255 508 211 468 140 468 c 0
 69 468 24 508 24 635 c 0
 24 759 68 799 139 799 c 0
139 751 m 0
 98 751 77 720 77 634 c 0
 77 544 101 517 140 517 c 0
 179 517 202 544 202 635 c 0
 202 718 182 751 139 751 c 0
EndSplineSet
Substitution2: "Single Substitution lookup 5 subtable" zeroinferior
EndChar

StartChar: onesuperior
Encoding: 185 185 257
Width: 280
Flags: MW
HStem: 478 312<138 188 138 188 135 188>
VStem: 135 53<478 731 731 731>
LayerCount: 2
Fore
SplineSet
37 721 m 1
 138 790 l 1
 188 790 l 1
 188 478 l 1
 135 478 l 1
 135 731 l 1
 62 681 l 1
 37 721 l 1
EndSplineSet
Substitution2: "Single Substitution lookup 5 subtable" oneinferior
EndChar

StartChar: twosuperior
Encoding: 178 178 258
Width: 280
Flags: MW
HStem: 478 48<99 235 99 235> 750 49<112.5 139>
VStem: 176 54<690 722>
LayerCount: 2
Fore
SplineSet
235 478 m 1
 32 478 l 1
 32 524 l 1
 124 619 l 2
 154 649 176 673 176 707 c 0
 176 737 154 750 124 750 c 0
 93 750 37 741 37 741 c 1
 35 787 l 1
 35 787 91 799 134 799 c 0
 200 799 230 771 230 711 c 0
 230 664 211 637 168 596 c 2
 99 526 l 1
 235 526 l 1
 235 478 l 1
EndSplineSet
Substitution2: "Single Substitution lookup 5 subtable" twoinferior
EndChar

StartChar: threesuperior
Encoding: 179 179 259
Width: 280
Flags: MW
HStem: 468 49<118.5 157 115 176> 615 46<76 140 140 141 76 140> 751 48<115 151.5>
VStem: 184 54<697.5 724.5> 192 54<551 584>
LayerCount: 2
Fore
SplineSet
37 789 m 1xe8
 37 789 93 799 137 799 c 0
 206 799 238 774 238 717 c 0xf0
 238 665 203 646 196 643 c 1
 228 633 246 617 246 564 c 0
 246 498 209 468 143 468 c 0
 94 468 33 479 33 479 c 1
 36 525 l 1
 36 525 92 517 138 517 c 0
 176 517 192 537 192 565 c 0
 192 603 171 615 141 615 c 2xe8
 76 615 l 1
 76 661 l 1
 140 661 l 2
 160 661 184 683 184 712 c 0
 184 737 170 751 133 751 c 0xf0
 90 751 40 743 40 743 c 1
 37 789 l 1xe8
EndSplineSet
Substitution2: "Single Substitution lookup 5 subtable" threeinferior
EndChar

StartChar: foursuperior
Encoding: 8308 8308 260
Width: 280
Flags: MW
HStem: 529 49<83 169 83 169 222 253>
VStem: 171 51
LayerCount: 2
Fore
SplineSet
169 478 m 1
 169 529 l 1
 27 529 l 1
 27 575 l 1
 103 790 l 1
 161 790 l 1
 83 578 l 1
 169 578 l 1
 173 666 l 1
 222 666 l 1
 222 578 l 1
 253 578 l 1
 253 529 l 1
 222 529 l 1
 222 478 l 1
 169 478 l 1
EndSplineSet
Substitution2: "Single Substitution lookup 5 subtable" fourinferior
EndChar

StartChar: fivesuperior
Encoding: 8309 8309 261
Width: 280
Flags: MW
HStem: 469 48<122.5 159.5 121 179.5> 628 47<140 160.5> 743 47<100 238 100 100>
VStem: 51 46 194 54<556.5 596>
LayerCount: 2
Fore
SplineSet
56 790 m 1
 238 790 l 1
 238 743 l 1
 100 743 l 1
 94 658 l 1
 94 658 124 675 156 675 c 0
 209 675 248 652 248 577 c 0
 248 505 213 469 146 469 c 0
 99 469 41 482 41 482 c 1
 46 526 l 1
 46 526 100 517 142 517 c 0
 177 517 194 537 194 576 c 0
 194 616 173 628 148 628 c 0
 116 628 89 610 89 610 c 1
 46 615 l 1
 56 790 l 1
EndSplineSet
Substitution2: "Single Substitution lookup 5 subtable" fiveinferior
EndChar

StartChar: sixsuperior
Encoding: 8310 8310 262
Width: 280
Flags: MW
HStem: 468 48<122.5 163.5 122.5 178> 636 46<136 164> 751 48<130.5 170.5 111 171>
VStem: 32 53<617 617.5 617 690> 199 53<561.5 599.5>
LayerCount: 2
Fore
SplineSet
238 790 m 1
 235 745 l 1
 235 745 189 751 153 751 c 0
 108 751 86 726 86 665 c 0
 86 664 121 682 151 682 c 0
 221 682 252 645 252 580 c 0
 252 511 211 468 145 468 c 0
 68 468 32 524 32 630 c 0
 32 750 70 799 152 799 c 0
 189 799 238 790 238 790 c 1
145 636 m 0
 114 636 85 618 85 617 c 0
 87 553 102 516 143 516 c 0
 184 516 199 544 199 579 c 0
 199 620 183 636 145 636 c 0
EndSplineSet
Substitution2: "Single Substitution lookup 5 subtable" sixinferior
EndChar

StartChar: sevensuperior
Encoding: 8311 8311 263
Width: 280
Flags: MW
HStem: 738 52<30 231 30 173>
VStem: 173 58<719 738 738 738>
LayerCount: 2
Fore
SplineSet
30 738 m 1
 30 790 l 1
 231 790 l 1
 231 719 l 1
 124 469 l 1
 68 481 l 1
 173 716 l 1
 173 738 l 1
 30 738 l 1
EndSplineSet
Substitution2: "Single Substitution lookup 5 subtable" seveninferior
EndChar

StartChar: eightsuperior
Encoding: 8312 8312 264
Width: 280
Flags: MW
HStem: 468 46<121 160 121 175.5> 621 42<125 155 125 155> 753 46<119.5 160.5>
VStem: 25 53<546 580 546 586.5> 30 52<698 725.5 698 744.5> 198 52<697.5 725> 202 53<547 580.5>
LayerCount: 2
Fore
SplineSet
140 799 m 0xec
 213 799 250 773 250 715 c 0xf4
 250 672 235 653 203 643 c 1
 233 634 255 614 255 565 c 0
 255 495 211 468 140 468 c 0
 72 468 25 491 25 561 c 0xf2
 25 612 48 631 77 643 c 1
 48 654 30 671 30 716 c 0
 30 773 66 799 140 799 c 0xec
140 514 m 0xf2
 180 514 202 529 202 565 c 0
 202 596 187 612 155 621 c 1
 125 621 l 1
 95 612 78 597 78 563 c 0
 78 529 102 514 140 514 c 0xf2
140 753 m 0xec
 99 753 82 739 82 712 c 0
 82 684 95 673 125 663 c 1
 155 663 l 1
 186 673 198 684 198 711 c 0
 198 739 181 753 140 753 c 0xec
EndSplineSet
Substitution2: "Single Substitution lookup 5 subtable" eightinferior
EndChar

StartChar: ninesuperior
Encoding: 8313 8313 265
Width: 280
Flags: MW
HStem: 468 49<109.5 150.5 107 171> 588 44<118 144.5> 751 48<120.5 159.5>
VStem: 28 53<675 711.5 675 726.5> 198 53<647 647>
LayerCount: 2
Fore
SplineSet
41 479 m 1
 45 524 l 1
 45 524 88 517 126 517 c 0
 175 517 196 547 197 601 c 0
 197 602 160 588 129 588 c 0
 65 588 28 626 28 692 c 0
 28 761 73 799 136 799 c 0
 214 799 251 745 251 632 c 0
 251 519 213 468 129 468 c 0
 90 468 41 479 41 479 c 1
135 632 m 0
 162 632 198 647 198 647 c 1
 197 717 181 751 138 751 c 0
 103 751 81 731 81 692 c 0
 81 658 101 632 135 632 c 0
EndSplineSet
Substitution2: "Single Substitution lookup 5 subtable" nineinferior
EndChar

StartChar: questiondown
Encoding: 191 191 266
Width: 443
Flags: MW
HStem: -204 55<197.5 271.5> 400 100<222 288 222 288>
VStem: 40 61<-80.5 -9.5 -80.5 -2> 222 66<400 500 400 500> 228 61<223.5 304 223.5 304>
LayerCount: 2
Fore
SplineSet
40 -44 m 0xf0
 40 40 56 69 136 137 c 0
 192 184 228 219 228 268 c 2
 228 304 l 1
 280 304 l 1
 280 304 289 279 289 251 c 0xe8
 289 196 243 153 191 107 c 0
 119 45 101 21 101 -40 c 0
 101 -121 149 -149 246 -149 c 0
 298 -149 402 -124 402 -124 c 1
 408 -175 l 1
 408 -175 302 -204 241 -204 c 0
 110 -204 40 -161 40 -44 c 0xf0
288 500 m 1
 288 400 l 1
 222 400 l 1
 222 500 l 1
 288 500 l 1
EndSplineSet
Substitution2: "'case' Case-Sensitive Forms in Lateinisch lookup 4 subtable" questiondown.cap
EndChar

StartChar: questiondown.cap
Encoding: 65550 -1 267
Width: 441
Flags: MW
HStem: -9 55<196.5 270.5> 595 100<221 287 221 287>
VStem: 39 61<114.5 185.5 114.5 193> 221 66<595 695 595 695> 227 61<418.5 499 418.5 499>
LayerCount: 2
Fore
SplineSet
39 151 m 0xf0
 39 235 55 264 135 332 c 0
 191 379 227 414 227 463 c 2
 227 499 l 1
 279 499 l 1
 279 499 288 474 288 446 c 0xe8
 288 391 242 348 190 302 c 0
 118 240 100 216 100 155 c 0
 100 74 148 46 245 46 c 0
 297 46 401 71 401 71 c 1
 407 20 l 1
 407 20 301 -9 240 -9 c 0
 109 -9 39 34 39 151 c 0xf0
287 695 m 1
 287 595 l 1
 221 595 l 1
 221 695 l 1
 287 695 l 1
EndSplineSet
EndChar

StartChar: ellipsis
Encoding: 8230 8230 268
Width: 715
Flags: MW
HStem: 0 101<70 136 70 136 324 390 579 645>
VStem: 70 66<0 101 0 101> 324 66<0 101 0 101> 579 66<0 101 0 101>
LayerCount: 2
Fore
SplineSet
70 0 m 1
 70 101 l 1
 136 101 l 1
 136 0 l 1
 70 0 l 1
324 0 m 1
 324 101 l 1
 390 101 l 1
 390 0 l 1
 324 0 l 1
579 0 m 1
 579 101 l 1
 645 101 l 1
 645 0 l 1
 579 0 l 1
EndSplineSet
EndChar

StartChar: endash.cap
Encoding: 65551 -1 269
Width: 637
Flags: MW
HStem: 271 54<68 568 68 568>
VStem: 68 500<271 325 271 325>
LayerCount: 2
Fore
SplineSet
68 325 m 1
 568 325 l 1
 568 271 l 1
 68 271 l 1
 68 325 l 1
EndSplineSet
Position2: "'cpsp' Capital Spacing in Lateinisch lookup 0 subtable" dx=5 dy=0 dh=10 dv=0
EndChar

StartChar: emdash.cap
Encoding: 65552 -1 270
Width: 1137
Flags: MW
HStem: 271 54<68 1068 68 1068>
VStem: 68 1000<271 325 271 325>
LayerCount: 2
Fore
SplineSet
68 325 m 1
 1068 325 l 1
 1068 271 l 1
 68 271 l 1
 68 325 l 1
EndSplineSet
Position2: "'cpsp' Capital Spacing in Lateinisch lookup 0 subtable" dx=5 dy=0 dh=10 dv=0
EndChar

StartChar: periodcentered
Encoding: 183 183 271
Width: 207
Flags: MW
HStem: 244 101<71 137 71 137>
VStem: 71 66<244 345 244 345>
LayerCount: 2
Fore
SplineSet
71 244 m 1
 71 345 l 1
 137 345 l 1
 137 244 l 1
 71 244 l 1
EndSplineSet
Substitution2: "'case' Case-Sensitive Forms in Lateinisch lookup 4 subtable" periodcentered.cap
EndChar

StartChar: periodcentered.cap
Encoding: 65553 -1 272
Width: 206
Flags: MW
HStem: 286 101<70 136 70 136>
VStem: 70 66<286 387 286 387>
LayerCount: 2
Fore
SplineSet
70 286 m 1
 70 387 l 1
 136 387 l 1
 136 286 l 1
 70 286 l 1
EndSplineSet
Position2: "'cpsp' Capital Spacing in Lateinisch lookup 0 subtable" dx=5 dy=0 dh=10 dv=0
EndChar

StartChar: currency
Encoding: 164 164 273
Width: 560
Flags: MW
HStem: 75 55<260.5 299> 374 55<260.5 299 260.5 313>
VStem: 103 55<232.5 271> 402 55<232.5 271 232.5 285>
LayerCount: 2
Fore
SplineSet
452 37 m 1
 382 107 l 1
 353 87 318 75 280 75 c 0
 241 75 206 87 177 107 c 1
 108 37 l 1
 65 80 l 1
 135 149 l 1
 115 178 103 213 103 252 c 0
 103 290 115 325 135 354 c 1
 65 424 l 1
 108 467 l 1
 177 396 l 1
 206 416 241 429 280 429 c 0
 318 429 353 416 382 396 c 1
 452 467 l 1
 495 424 l 1
 424 354 l 1
 444 325 457 290 457 252 c 0
 457 213 444 178 424 149 c 1
 495 80 l 1
 452 37 l 1
280 130 m 0
 346 130 402 185 402 252 c 0
 402 318 346 374 280 374 c 0
 213 374 158 318 158 252 c 0
 158 185 213 130 280 130 c 0
EndSplineSet
EndChar

StartChar: perthousand
Encoding: 8240 8240 274
Width: 832
Flags: MW
HStem: -10 44<409 451 409 462 666.5 708> -3 21G<171 171> 223 44<409 451 666.5 708> 437 189<126.5 168> 663 21G<410 410> 670 21G<114.5 179.5>
VStem: 91 113<502.5 564 501.5 564.5> 322 51<99.5 162 99.5 178.5> 486 51<99 161.5> 580 51<99.5 162 99.5 178.5> 744 51<99 161.5>
LayerCount: 2
Fore
SplineSet
147 626 m 0xb7e0
 189 626 204 595 204 533 c 0
 204 470 189 437 147 437 c 0
 106 437 91 471 91 534 c 0
 91 595 106 626 147 626 c 0xb7e0
171 -3 m 1x4a
 368 676 l 1
 410 663 l 1
 212 -15 l 1
 171 -3 l 1x4a
40 534 m 0
 40 437 82 393 147 393 c 0
 212 393 255 437 255 533 c 0
 255 629 212 670 147 670 c 0x06
 82 670 40 629 40 534 c 0
322 131 m 0xa1e0
 322 226 364 267 430 267 c 0
 495 267 537 226 537 130 c 0
 537 34 494 -10 430 -10 c 0
 365 -10 322 34 322 131 c 0xa1e0
373 131 m 0
 373 68 388 34 430 34 c 0
 472 34 486 68 486 130 c 0
 486 193 472 223 430 223 c 0
 388 223 373 193 373 131 c 0
580 131 m 0
 580 226 622 267 687 267 c 0
 752 267 795 226 795 130 c 0
 795 34 752 -10 687 -10 c 0
 622 -10 580 34 580 131 c 0
631 131 m 0
 631 68 646 34 687 34 c 0
 729 34 744 68 744 130 c 0
 744 193 729 223 687 223 c 0
 646 223 631 193 631 131 c 0
EndSplineSet
EndChar

StartChar: lessequal
Encoding: 8804 8804 275
Width: 560
Flags: MW
HStem: 23 55<65 488 65 488>
VStem: 65 423<23 78 23 78 23 342 23 342>
LayerCount: 2
Fore
SplineSet
488 431 m 1
 137 316 l 1
 488 191 l 1
 488 130 l 1
 65 286 l 1
 65 342 l 1
 488 493 l 1
 488 431 l 1
65 23 m 1
 65 78 l 1
 488 78 l 1
 488 23 l 1
 65 23 l 1
EndSplineSet
EndChar

StartChar: greaterequal
Encoding: 8805 8805 276
Width: 560
Flags: MW
HStem: 23 55<71 494 71 494>
VStem: 71 423<23 78 23 78 23 191 23 191 23 493 23 493>
LayerCount: 2
Fore
SplineSet
422 316 m 1
 71 431 l 1
 71 493 l 1
 494 342 l 1
 494 286 l 1
 71 130 l 1
 71 191 l 1
 422 316 l 1
494 78 m 1
 494 23 l 1
 71 23 l 1
 71 78 l 1
 494 78 l 1
EndSplineSet
EndChar

StartChar: logicalnot
Encoding: 172 172 277
Width: 560
Flags: MW
HStem: 283 55<67 436 67 493>
VStem: 436 57<120 283 283 283>
LayerCount: 2
Fore
SplineSet
67 338 m 1
 493 338 l 1
 493 120 l 1
 436 120 l 1
 436 283 l 1
 67 283 l 1
 67 338 l 1
EndSplineSet
EndChar

StartChar: Delta
Encoding: 8710 8710 278
Width: 560
Flags: MW
HStem: 0 54<118 439 118 504> 606 54<266 292 266 266>
VStem: 55 449<0 45 0 45>
LayerCount: 2
Fore
SplineSet
55 45 m 1
 223 660 l 1
 336 660 l 1
 503 45 l 1
 504 0 l 1
 55 0 l 1
 55 45 l 1
292 606 m 1
 266 606 l 1
 118 54 l 1
 439 54 l 1
 292 606 l 1
EndSplineSet
EndChar

StartChar: Omega
Encoding: 8486 8486 279
Width: 560
Flags: MW
HStem: -9 54<44 177 44 237 44 177 382 516> 615 55<212.5 346.5>
VStem: 63 64<304.5 443 301 471.5> 433 64<304.5 443>
LayerCount: 2
Fore
SplineSet
44 45 m 1
 177 45 l 1
 177 45 63 235 63 374 c 0
 63 569 107 670 280 670 c 0
 453 670 497 569 497 374 c 0
 497 235 382 45 382 45 c 1
 516 45 l 1
 516 -9 l 1
 322 -9 l 1
 322 37 l 1
 322 37 433 245 433 357 c 0
 433 529 413 615 280 615 c 0
 145 615 127 529 127 357 c 0
 127 245 237 37 237 37 c 1
 237 -9 l 1
 44 -9 l 1
 44 45 l 1
EndSplineSet
EndChar

StartChar: oslashacute
Encoding: 511 511 280
Width: 527
Flags: MW
HStem: -113 850<140 356>
VStem: 54 419<191.5 316.5 162.5 345.5>
LayerCount: 2
Fore
SplineSet
264 510 m 0
 109 510 54 434 54 257 c 0
 54 126 74 48 142 13 c 1
 98 -98 l 1
 140 -113 l 1
 185 -2 l 1
 207 -7 233 -10 264 -10 c 0
 431 -10 473 68 473 257 c 0
 473 376 448 450 384 485 c 1
 428 590 l 1
 385 605 l 1
 342 501 l 1
 320 507 294 510 264 510 c 0
264 457 m 0
 286 457 306 455 322 450 c 1
 166 65 l 1
 123 94 116 156 116 257 c 0
 116 407 149 457 264 457 c 0
264 43 m 0
 241 43 221 45 205 49 c 1
 362 432 l 1
 399 404 412 349 412 257 c 0
 412 104 393 43 264 43 c 0
149 640 m 1
 356 737 l 1
 378 685 l 1
 168 598 l 1
 149 640 l 1
EndSplineSet
EndChar

StartChar: exclamdown
Encoding: 161 161 281
Width: 219
Flags: MW
HStem: 400 100<75 141 75 141>
VStem: 75 66<400 500 400 500> 79 59.5
LayerCount: 2
Fore
SplineSet
141 500 m 1xc0
 141 400 l 1
 75 400 l 1
 75 500 l 1
 141 500 l 1xc0
137 277 m 1xa0
 140 -195 l 1
 77 -195 l 1
 81 277 l 1
 137 277 l 1xa0
EndSplineSet
Substitution2: "'case' Case-Sensitive Forms in Lateinisch lookup 4 subtable" exclamdown.cap
EndChar

StartChar: exclamdown.cap
Encoding: 65554 -1 282
Width: 239
Flags: MW
HStem: -1 21G<88 151 88 88> 594 100<86 152 86 152>
VStem: 86 66<594 694 594 694> 90 59.5
LayerCount: 2
Fore
SplineSet
152 694 m 1xe0
 152 594 l 1
 86 594 l 1
 86 694 l 1
 152 694 l 1xe0
148 471 m 1xd0
 151 -1 l 1
 88 -1 l 1
 92 471 l 1
 148 471 l 1xd0
EndSplineSet
EndChar

StartChar: quotesinglbase
Encoding: 8218 8218 283
Width: 208
Flags: MW
HStem: -49 105<81 84 52 105>
VStem: 52 53
LayerCount: 2
Fore
SplineSet
105 56 m 1
 84 -49 l 1
 52 -49 l 1
 81 56 l 1
 105 56 l 1
EndSplineSet
EndChar

StartChar: parenleft.cap
Encoding: 65555 -1 284
Width: 252
Flags: MW
HStem: -95 875<155 213 155 213>
VStem: 54 64<236.5 426.5 236.5 436>
LayerCount: 2
Fore
SplineSet
155 780 m 1
 213 780 l 1
 213 780 118 522 118 331 c 0
 118 142 213 -95 213 -95 c 1
 155 -95 l 1
 155 -95 54 121 54 331 c 0
 54 541 155 780 155 780 c 1
EndSplineSet
Position2: "'cpsp' Capital Spacing in Lateinisch lookup 0 subtable" dx=5 dy=0 dh=10 dv=0
EndChar

StartChar: parenright.cap
Encoding: 65556 -1 285
Width: 252
Flags: MW
HStem: -90 875<40 98 40 98>
VStem: 135 64<263.5 453.5>
LayerCount: 2
Fore
SplineSet
98 -90 m 1
 40 -90 l 1
 40 -90 135 168 135 359 c 0
 135 548 40 785 40 785 c 1
 98 785 l 1
 98 785 199 569 199 359 c 0
 199 149 98 -90 98 -90 c 1
EndSplineSet
Position2: "'cpsp' Capital Spacing in Lateinisch lookup 0 subtable" dx=5 dy=0 dh=10 dv=0
EndChar

StartChar: bracketleft.cap
Encoding: 65557 -1 286
Width: 322
Flags: MW
HStem: -93 54<142 281 142 281> 725 54<142 281 142 142>
VStem: 81 61<-39 725 -39 779 -39 779>
LayerCount: 2
Fore
SplineSet
281 779 m 1
 281 725 l 1
 142 725 l 1
 142 -39 l 1
 281 -39 l 1
 281 -93 l 1
 81 -93 l 1
 81 779 l 1
 281 779 l 1
EndSplineSet
Position2: "'cpsp' Capital Spacing in Lateinisch lookup 0 subtable" dx=5 dy=0 dh=10 dv=0
EndChar

StartChar: bracketright.cap
Encoding: 65558 -1 287
Width: 322
Flags: MW
HStem: -93 54<41 180 41 241 41 180> 725 54<41 241 41 180>
VStem: 180 61<-39 725 725 725>
LayerCount: 2
Fore
SplineSet
41 725 m 1
 41 779 l 1
 241 779 l 1
 241 -93 l 1
 41 -93 l 1
 41 -39 l 1
 180 -39 l 1
 180 725 l 1
 41 725 l 1
EndSplineSet
Position2: "'cpsp' Capital Spacing in Lateinisch lookup 0 subtable" dx=5 dy=0 dh=10 dv=0
EndChar

StartChar: braceleft.cap
Encoding: 65559 -1 288
Width: 350
Flags: MW
HStem: -97 53<308 310> 731 52<309 310>
VStem: 126 58<588.5 643 587.5 667.5>
LayerCount: 2
Fore
SplineSet
192 200 m 0
 190 163 185 121 185 83 c 0
 185 7 209 -39 310 -44 c 1
 308 -97 l 1
 175 -92 126 -40 126 79 c 0
 126 118 133 177 133 202 c 0
 133 261 103 294 27 316 c 1
 27 366 l 1
 104 384 133 419 133 479 c 0
 133 507 126 570 126 607 c 0
 126 728 176 778 309 783 c 1
 310 731 l 1
 209 726 184 682 184 604 c 0
 184 571 191 512 191 483 c 0
 191 397 168 366 88 342 c 1
 168 318 192 283 192 200 c 0
EndSplineSet
Position2: "'cpsp' Capital Spacing in Lateinisch lookup 0 subtable" dx=5 dy=0 dh=10 dv=0
EndChar

StartChar: braceright.cap
Encoding: 65560 -1 289
Width: 349
Flags: MW
HStem: -97 52<40 41> 730 53<40 42>
VStem: 166 58<43 97.5 18.5 98.5>
LayerCount: 2
Fore
SplineSet
158 486 m 0
 160 523 165 565 165 603 c 0
 165 679 141 725 40 730 c 1
 42 783 l 1
 175 778 224 726 224 607 c 0
 224 568 217 509 217 484 c 0
 217 425 247 392 323 370 c 1
 323 320 l 1
 246 302 217 267 217 207 c 0
 217 179 224 116 224 79 c 0
 224 -42 174 -92 41 -97 c 1
 40 -45 l 1
 141 -40 166 4 166 82 c 0
 166 115 159 174 159 203 c 0
 159 289 182 320 262 344 c 1
 182 368 158 403 158 486 c 0
EndSplineSet
Position2: "'cpsp' Capital Spacing in Lateinisch lookup 0 subtable" dx=5 dy=0 dh=10 dv=0
EndChar

StartChar: grave.cap
Encoding: 65561 -1 290
Width: 228
Flags: MW
HStem: 786 142
VStem: 10 229<829 874>
LayerCount: 2
Fore
SplineSet
32 928 m 1
 239 829 l 1
 219 786 l 1
 10 874 l 1
 32 928 l 1
EndSplineSet
EndChar

StartChar: acute.cap
Encoding: 65562 -1 291
Width: 228
Flags: MW
HStem: 786 142
VStem: 15 229<829 874>
LayerCount: 2
Fore
SplineSet
15 829 m 1
 222 928 l 1
 244 874 l 1
 35 786 l 1
 15 829 l 1
EndSplineSet
EndChar

StartChar: circumflex.cap
Encoding: 65563 -1 292
Width: 456
Flags: MW
HStem: 798 131<61 247 195 312 195 381>
VStem: 61 320<798 798>
LayerCount: 2
Fore
SplineSet
61 798 m 1
 195 929 l 1
 247 929 l 1
 381 798 l 1
 312 798 l 1
 222 884 l 1
 131 798 l 1
 61 798 l 1
EndSplineSet
EndChar

StartChar: caron.cap
Encoding: 65564 -1 293
Width: 228
Flags: MW
HStem: 798 131<-32 102 -32 154>
VStem: -32 320<929 929>
LayerCount: 2
Fore
SplineSet
102 798 m 1
 -32 929 l 1
 37 929 l 1
 128 843 l 1
 218 929 l 1
 288 929 l 1
 154 798 l 1
 102 798 l 1
EndSplineSet
EndChar

StartChar: tilde.cap
Encoding: 65565 -1 294
Width: 228
Flags: MW
HStem: 814 54<203.5 229 203.5 238.5> 871 52<47 74.5>
VStem: -27 326<867 869>
LayerCount: 2
Fore
SplineSet
284 914 m 1
 299 869 l 1
 299 869 257 814 220 814 c 0xa0
 175 814 91 871 58 871 c 0
 36 871 -12 821 -12 821 c 1
 -27 867 l 1
 -27 867 20 923 58 923 c 0x60
 105 923 188 868 219 868 c 0
 239 868 284 914 284 914 c 1
EndSplineSet
EndChar

StartChar: dieresis.cap
Encoding: 65566 -1 295
Width: 228
Flags: MW
HStem: 819 80<-17 42 -17 42 184 242>
VStem: -17 59<819 899 819 899> 184 58<819 899 819 899>
LayerCount: 2
Fore
SplineSet
-17 819 m 1
 -17 899 l 1
 42 899 l 1
 42 819 l 1
 -17 819 l 1
184 819 m 1
 184 899 l 1
 242 899 l 1
 242 819 l 1
 184 819 l 1
EndSplineSet
EndChar

StartChar: macron.cap
Encoding: 65567 -1 296
Width: 228
Flags: MW
HStem: 819 49<-21 281 -21 281>
VStem: -21 302<819 868 819 868>
LayerCount: 2
Fore
SplineSet
-21 819 m 1
 -21 868 l 1
 281 868 l 1
 281 819 l 1
 -21 819 l 1
EndSplineSet
EndChar

StartChar: breve.cap
Encoding: 65568 -1 297
Width: 228
Flags: MW
HStem: 793 48<106 156.5 106 174>
VStem: -19 300<920 920>
LayerCount: 2
Fore
SplineSet
-19 920 m 1
 38 920 l 1
 39 871 81 841 131 841 c 0
 182 841 224 871 225 920 c 1
 281 920 l 1
 279 844 217 793 131 793 c 0
 45 793 -16 844 -19 920 c 1
EndSplineSet
EndChar

StartChar: ring.cap
Encoding: 65569 -1 298
Width: 228
Flags: MW
HStem: 696 44<107.5 146.5 107.5 159> 853 44<107.5 146.5>
VStem: 17 47<778.5 815 778.5 828.5> 190 47<778.5 815>
LayerCount: 2
Fore
SplineSet
237 797 m 0
 237 733 191 696 127 696 c 0
 63 696 17 733 17 797 c 0
 17 860 63 897 127 897 c 0
 191 897 237 860 237 797 c 0
64 797 m 0
 64 760 88 740 127 740 c 0
 166 740 190 760 190 797 c 0
 190 833 166 853 127 853 c 0
 88 853 64 833 64 797 c 0
EndSplineSet
EndChar

StartChar: hungarumlaut.cap
Encoding: 65570 -1 299
Width: 228
Flags: MW
HStem: 755 147<116 187>
VStem: -45 396<787 869>
LayerCount: 2
Fore
SplineSet
150 787 m 1
 310 901 l 1
 351 869 l 1
 187 755 l 1
 150 787 l 1
-45 787 m 1
 116 902 l 1
 155 869 l 1
 -7 756 l 1
 -45 787 l 1
EndSplineSet
EndChar

StartChar: dotaccent.cap
Encoding: 65571 -1 300
Width: 228
Flags: MW
HStem: 809 75<84 144 84 144>
VStem: 84 60<809 884 809 884>
LayerCount: 2
Fore
SplineSet
84 809 m 1
 84 884 l 1
 144 884 l 1
 144 809 l 1
 84 809 l 1
EndSplineSet
EndChar

StartChar: Aringacute
Encoding: 506 506 301
Width: 594
Flags: MW
HStem: 0 21G<25 87 25 25 508 569 508 508> 192 55<157 437 157 452 142 437> 641 54<270 316.5 277.5 316.5 277.5 324> 808 44<277.5 316.5>
VStem: 187 47<735.5 770 733.5 783.5> 360 47<735.5 770>
LayerCount: 2
Fore
SplineSet
407 752 m 0
 407 719 395 694 375 677 c 1
 569 0 l 1
 508 0 l 1
 452 192 l 1
 142 192 l 1
 87 0 l 1
 25 0 l 1
 219 676 l 1
 199 693 187 719 187 752 c 0
 187 815 233 852 297 852 c 0
 361 852 407 815 407 752 c 0
270 641 m 1
 157 247 l 1
 437 247 l 1
 324 641 l 1
 270 641 l 1
178 921 m 1
 385 1020 l 1
 407 966 l 1
 198 878 l 1
 178 921 l 1
234 752 m 0
 234 715 258 695 297 695 c 0
 336 695 360 715 360 752 c 0
 360 788 336 808 297 808 c 0
 258 808 234 788 234 752 c 0
EndSplineSet
Position2: "'cpsp' Capital Spacing in Lateinisch lookup 0 subtable" dx=5 dy=0 dh=10 dv=0
EndChar

StartChar: Eng
Encoding: 330 330 302
Width: 672
Flags: MW
HStem: -183 55<401 451 401 465> 0 55<464 523 500 523 500 523> 639 56<149 171 149 149>
VStem: 87 62<0 639 0 695 0 695> 523 61<-9 0 0 0 55 695>
LayerCount: 2
Fore
SplineSet
87 0 m 1
 87 695 l 1
 209 695 l 1
 500 55 l 1
 523 55 l 1
 523 695 l 1
 584 695 l 1
 584 -22 l 2
 584 -172 529 -183 401 -183 c 1
 401 -128 l 1
 501 -128 523 -123 523 -9 c 2
 523 0 l 1
 464 0 l 1
 171 639 l 1
 149 639 l 1
 149 0 l 1
 87 0 l 1
EndSplineSet
Position2: "'cpsp' Capital Spacing in Lateinisch lookup 0 subtable" dx=5 dy=0 dh=10 dv=0
EndChar

StartChar: amacron
Encoding: 257 257 303
Width: 499
Flags: MW
HStem: -10 51<160.5 227> -9 48<456.5 484> 456 54<226 294> 631 49<113 385 113 385>
VStem: 43 62<110 172 110 187> 360 59<83 257 257 257 304 351 83 389>
LayerCount: 2
Fore
SplineSet
419 351 m 2xbc
 419 83 l 2
 422 53 451 43 484 39 c 1x7c
 481 -9 l 1
 432 -9 395 1 368 31 c 1
 368 31 274 -10 180 -10 c 0
 92 -10 43 41 43 141 c 0
 43 233 89 277 190 287 c 2
 360 304 l 1
 360 351 l 2
 360 427 326 456 262 456 c 0
 190 456 73 441 73 441 c 1
 70 489 l 1
 70 489 180 510 264 510 c 0
 373 510 419 457 419 351 c 2xbc
360 257 m 1
 197 240 l 2
 130 234 105 202 105 142 c 0
 105 78 133 41 188 41 c 0
 269 41 360 76 360 76 c 1xbc
 360 257 l 1
113 631 m 1
 113 680 l 1
 385 680 l 1
 385 631 l 1
 113 631 l 1
EndSplineSet
EndChar

StartChar: abreve
Encoding: 259 259 304
Width: 501
Flags: MW
HStem: 43 203.5 592 54<223.5 280.5 223.5 299> 592 137<100 299>
VStem: 43 441<43 187> 105 255<110 169.5>
LayerCount: 2
Fore
SplineSet
419 88 m 2x30
 419 349 l 2
 419 459 370 509 266 509 c 0
 188 509 70 490 70 490 c 1
 74 437 l 1
 74 437 191 452 264 452 c 0
 326 452 360 421 360 349 c 2
 360 304 l 1
 190 287 l 2
 88 278 43 233 43 141 c 0
 43 43 92 -10 176 -10 c 0
 278 -10 368 29 368 29 c 1
 393 1 427 -9 481 -9 c 1
 484 43 l 1
 451 47 422 57 419 88 c 2x30
197 239 m 2xa8
 360 254 l 1
 360 77 l 1
 360 77 268 43 183 43 c 0
 134 43 105 78 105 142 c 0
 105 197 130 233 197 239 c 2xa8
100 729 m 1
 161 729 l 1x28
 162 680 195 646 252 646 c 0x48
 309 646 342 680 343 729 c 1
 404 729 l 1
 402 650 346 592 252 592 c 0
 158 592 103 650 100 729 c 1
EndSplineSet
EndChar

StartChar: aringacute
Encoding: 507 507 305
Width: 499
Flags: MW
HStem: -10 51<160.5 227> -9 48<456.5 484> 456 54<226 294> 546 41<227.5 260 227.5 272> 705 42<227.5 260>
VStem: 43 62<110 172 110 187> 143 43<630.5 663 630.5 675> 301 43<630.5 663> 360 59<83 257 257 257 304 351 83 389>
LayerCount: 2
Fore
SplineSet
419 351 m 2xbe80
 419 83 l 2
 422 53 451 43 484 39 c 1x7e80
 481 -9 l 1
 432 -9 395 1 368 31 c 1
 368 31 274 -10 180 -10 c 0
 92 -10 43 41 43 141 c 0
 43 233 89 277 190 287 c 2
 360 304 l 1
 360 351 l 2
 360 427 326 456 262 456 c 0
 190 456 73 441 73 441 c 1
 70 489 l 1
 70 489 180 510 264 510 c 0
 373 510 419 457 419 351 c 2xbe80
360 257 m 1
 197 240 l 2
 130 234 105 202 105 142 c 0
 105 78 133 41 188 41 c 0
 269 41 360 76 360 76 c 1xbe80
 360 257 l 1
143 647 m 0
 143 703 187 747 244 747 c 0
 300 747 344 703 344 647 c 0xbf80
 344 590 300 546 244 546 c 0
 187 546 143 590 143 647 c 0
186 647 m 0
 186 614 211 587 244 587 c 0
 276 587 301 614 301 647 c 0xbf80
 301 679 276 705 244 705 c 0
 211 705 186 679 186 647 c 0
138 818 m 1
 345 915 l 1
 367 863 l 1
 157 776 l 1
 138 818 l 1
EndSplineSet
EndChar

StartChar: aogonek
Encoding: 261 261 306
Width: 498
Flags: MW
HStem: -204 51<412 426> -10 51<160.5 227> -9 48<475 484> -7 21G 456 54<226 294>
VStem: 43 62<110 172 110 187> 323 59<-120 -94.5> 360 59<83 257 257 257 304 351 83 389>
LayerCount: 2
Fore
SplineSet
419 351 m 2xcd
 419 83 l 2
 422 53 451 43 484 39 c 1xad
 481 -9 l 1xcd
 469 -9 458 -8 448 -7 c 1x9e
 430 -27 382 -81 382 -107 c 0
 382 -133 399 -153 425 -153 c 0
 441 -153 477 -147 477 -147 c 1
 483 -195 l 1
 483 -195 442 -204 410 -204 c 0
 360 -204 323 -172 323 -119 c 0
 323 -70 390 -6 402 5 c 1
 389 11 378 19 368 31 c 1xce
 368 31 274 -10 180 -10 c 0
 92 -10 43 41 43 141 c 0
 43 233 89 277 190 287 c 2
 360 304 l 1
 360 351 l 2
 360 427 326 456 262 456 c 0
 190 456 73 441 73 441 c 1
 70 489 l 1
 70 489 180 510 264 510 c 0
 373 510 419 457 419 351 c 2xcd
360 257 m 1
 197 240 l 2
 130 234 105 202 105 142 c 0
 105 78 133 41 188 41 c 0
 269 41 360 76 360 76 c 1xcd
 360 257 l 1
EndSplineSet
EndChar

StartChar: aeacute
Encoding: 509 509 307
Width: 809
Flags: MW
HStem: -10 55<518.5 592> 225 50<419 701 419 759 419 701> 246.5 51 452 57<227 294.5> 456 53<530.5 611.5>
VStem: 43 62<109.5 173.5 109.5 197> 358 61<225 225 225 254> 701 61<275 341>
LayerCount: 2
Fore
SplineSet
559 45 m 0xd7
 632 45 741 54 741 54 c 1
 743 4 l 1
 743 4 631 -10 553 -10 c 0
 484 -10 437 10 407 46 c 1
 373 31 l 2
 364 27 279 -10 176 -10 c 0
 89 -10 43 42 43 141 c 0
 43 253 99 277 225 291 c 2
 360 304 l 1xb7
 360 349 l 2
 360 422 325 452 264 452 c 0
 190 452 74 442 74 442 c 1
 72 496 l 1
 72 496 188 509 266 509 c 0
 338 509 383 483 402 428 c 1
 438 487 496 509 565 509 c 0
 694 509 762 441 762 273 c 1
 759 225 l 1
 419 225 l 1
 420 107 454 45 559 45 c 0xd7
183 43 m 0
 263 43 368 80 381 85 c 1
 363 128 358 184 358 254 c 1
 197 239 l 2xb7
 133 233 105 205 105 142 c 0
 105 77 134 43 183 43 c 0
419 275 m 1
 701 275 l 1
 701 407 658 456 565 456 c 0xcf
 473 456 419 404 419 275 c 1
298 640 m 1
 505 737 l 1
 527 685 l 1
 317 598 l 1
 298 640 l 1
EndSplineSet
EndChar

StartChar: cacute
Encoding: 263 263 308
Width: 433
Flags: MW
HStem: -10 54<205.5 281.5> 456 54<211 282.5 186.5 290>
VStem: 54 62<180.5 331 180.5 350.5>
LayerCount: 2
Fore
SplineSet
261 510 m 0
 304 510 391 497 391 497 c 1
 388 446 l 1
 388 446 309 456 271 456 c 0
 151 456 116 403 116 259 c 0
 116 102 140 44 271 44 c 0
 309 44 390 53 390 53 c 1
 392 2 l 1
 392 2 303 -10 260 -10 c 0
 98 -10 54 62 54 259 c 0
 54 442 112 510 261 510 c 0
133 640 m 1
 340 737 l 1
 362 685 l 1
 152 598 l 1
 133 640 l 1
EndSplineSet
EndChar

StartChar: ccircumflex
Encoding: 265 265 309
Width: 433
Flags: MW
HStem: -10 54<205.5 281.5> 456 54<211 282.5 186.5 290> 595 137<91 255 91 255 213 315 213 378> 687 45<235 235>
VStem: 54 62<180.5 331 180.5 350.5>
LayerCount: 2
Fore
SplineSet
261 510 m 0xe8
 304 510 391 497 391 497 c 1
 388 446 l 1
 388 446 309 456 271 456 c 0
 151 456 116 403 116 259 c 0
 116 102 140 44 271 44 c 0
 309 44 390 53 390 53 c 1
 392 2 l 1
 392 2 303 -10 260 -10 c 0
 98 -10 54 62 54 259 c 0
 54 442 112 510 261 510 c 0xe8
91 595 m 1
 213 732 l 1
 255 732 l 1
 378 595 l 1
 315 595 l 1xe8
 235 687 l 1xd8
 154 595 l 1
 91 595 l 1
EndSplineSet
EndChar

StartChar: ccaron
Encoding: 269 269 310
Width: 433
Flags: MW
HStem: -10 54<205.5 281.5> 456 54<211 282.5 186.5 290> 595 46<218 240 240 240 240 260> 595 137<96 218 96 260>
VStem: 54 62<180.5 331 180.5 350.5>
LayerCount: 2
Fore
SplineSet
261 510 m 0xd8
 304 510 391 497 391 497 c 1
 388 446 l 1
 388 446 309 456 271 456 c 0
 151 456 116 403 116 259 c 0
 116 102 140 44 271 44 c 0
 309 44 390 53 390 53 c 1
 392 2 l 1
 392 2 303 -10 260 -10 c 0
 98 -10 54 62 54 259 c 0
 54 442 112 510 261 510 c 0xd8
218 595 m 1
 96 732 l 1
 158 732 l 1xd8
 240 641 l 1xe8
 321 732 l 1
 383 732 l 1
 260 595 l 1
 218 595 l 1
EndSplineSet
EndChar

StartChar: cdotaccent
Encoding: 267 267 311
Width: 433
Flags: MW
HStem: -10 54<205.5 281.5> 456 54<211 282.5 186.5 290> 623 75<219 279 219 279>
VStem: 54 62<180.5 331 180.5 350.5> 219 60<623 698 623 698>
LayerCount: 2
Fore
SplineSet
261 510 m 0
 304 510 391 497 391 497 c 1
 388 446 l 1
 388 446 309 456 271 456 c 0
 151 456 116 403 116 259 c 0
 116 102 140 44 271 44 c 0
 309 44 390 53 390 53 c 1
 392 2 l 1
 392 2 303 -10 260 -10 c 0
 98 -10 54 62 54 259 c 0
 54 442 112 510 261 510 c 0
219 623 m 1
 219 698 l 1
 279 698 l 1
 279 623 l 1
 219 623 l 1
EndSplineSet
EndChar

StartChar: dcaron
Encoding: 271 271 312
Width: 552
Flags: MW
HStem: -10 54<206 269.5> 0 21G<389 449 389 389> 457 53<205.5 285> 702 20G<389 449 449 449>
VStem: 53 62<155.5 312.5 155.5 331.5> 389 60<0 37 37 37 87 445 445 445 497 722 0 722>
LayerCount: 2
Fore
SplineSet
550 685 m 1xbc
 511 484 l 1
 562 484 l 1
 610 685 l 1
 550 685 l 1xbc
449 722 m 1
 449 0 l 1
 389 0 l 1x7c
 389 37 l 1
 389 37 310 -10 229 -10 c 0
 145 -10 53 18 53 244 c 0
 53 419 106 510 263 510 c 0
 307 510 370 500 389 497 c 1
 389 722 l 1
 449 722 l 1
235 44 m 0xbc
 311 44 389 87 389 87 c 1
 389 445 l 1
 369 448 305 457 265 457 c 0
 146 457 115 381 115 244 c 0
 115 67 177 44 235 44 c 0xbc
EndSplineSet
EndChar

StartChar: dcroat
Encoding: 273 273 313
Width: 523
Flags: MW
HStem: -10 54<206 269.5> 0 21G<389 449 389 389> 457 53<205.5 285> 622 53<203 389 203 389 449 485> 622 100<203 449 389 485 389 449>
VStem: 53 62<155.5 312.5 155.5 331.5> 389 60<0 37 37 37 87 445 445 445 497 622 0 622 675 722>
LayerCount: 2
Fore
SplineSet
449 722 m 1xae
 449 675 l 1
 485 675 l 1xb6
 485 622 l 1
 449 622 l 1
 449 0 l 1
 389 0 l 1x6e
 389 37 l 1
 389 37 310 -10 229 -10 c 0
 145 -10 53 18 53 244 c 0
 53 419 106 510 263 510 c 0
 307 510 370 500 389 497 c 1
 389 622 l 1
 203 622 l 1xae
 203 675 l 1
 389 675 l 1xb6
 389 722 l 1
 449 722 l 1xae
235 44 m 0
 311 44 389 87 389 87 c 1
 389 445 l 1
 369 448 305 457 265 457 c 0
 146 457 115 381 115 244 c 0
 115 67 177 44 235 44 c 0
EndSplineSet
EndChar

StartChar: ecaron
Encoding: 283 283 314
Width: 504
Flags: MW
HStem: -10 54<247 286> 225 50<114 396 114 454 114 396> 458 52<213.5 306> 595 46<230 252 252 252 252 272> 595 137<108 230 108 272>
VStem: 53 61<166 225 275 341.5> 396 60<275 342.5>
LayerCount: 2
Fore
SplineSet
253 44 m 0xee
 326 44 436 53 436 53 c 1
 438 4 l 1
 438 4 325 -10 247 -10 c 0
 98 -9 53 81 53 248 c 0
 53 441 137 510 259 510 c 0
 388 510 456 441 456 273 c 1
 454 225 l 1
 114 225 l 1
 114 107 148 44 253 44 c 0xee
114 275 m 1
 396 275 l 1
 396 410 353 458 259 458 c 0
 168 458 114 408 114 275 c 1
230 595 m 1
 108 732 l 1
 170 732 l 1xee
 252 641 l 1xf6
 333 732 l 1
 395 732 l 1
 272 595 l 1
 230 595 l 1
EndSplineSet
EndChar

StartChar: emacron
Encoding: 275 275 315
Width: 504
Flags: MW
HStem: -10 54<247 286> 225 50<114 396 114 454 114 396> 458 52<213.5 306> 631 49<126 398 126 398>
VStem: 53 61<166 225 275 341.5> 396 60<275 342.5>
LayerCount: 2
Fore
SplineSet
253 44 m 0
 326 44 436 53 436 53 c 1
 438 4 l 1
 438 4 325 -10 247 -10 c 0
 98 -9 53 81 53 248 c 0
 53 441 137 510 259 510 c 0
 388 510 456 441 456 273 c 1
 454 225 l 1
 114 225 l 1
 114 107 148 44 253 44 c 0
114 275 m 1
 396 275 l 1
 396 410 353 458 259 458 c 0
 168 458 114 408 114 275 c 1
126 631 m 1
 126 680 l 1
 398 680 l 1
 398 631 l 1
 126 631 l 1
EndSplineSet
EndChar

StartChar: ebreve
Encoding: 277 277 316
Width: 504
Flags: MW
HStem: -10 54<247 286> 225 50<114 396 114 454 114 396> 458 52<213.5 306> 589 47<226 284 226 299> 705 20G<111 162 162 162 348 400 400 400>
VStem: 53 61<166 225 275 341.5> 396 60<275 342.5>
LayerCount: 2
Fore
SplineSet
253 44 m 0
 326 44 436 53 436 53 c 1
 438 4 l 1
 438 4 325 -10 247 -10 c 0
 98 -9 53 81 53 248 c 0
 53 441 137 510 259 510 c 0
 388 510 456 441 456 273 c 1
 454 225 l 1
 114 225 l 1
 114 107 148 44 253 44 c 0
114 275 m 1
 396 275 l 1
 396 410 353 458 259 458 c 0
 168 458 114 408 114 275 c 1
111 725 m 1
 162 725 l 1
 163 673 197 636 255 636 c 0
 313 636 347 674 348 725 c 1
 400 725 l 1
 397 649 343 589 255 589 c 0
 167 589 113 649 111 725 c 1
EndSplineSet
EndChar

StartChar: edotaccent
Encoding: 279 279 317
Width: 504
Flags: MW
HStem: -10 54<247 286> 225 50<114 396 114 454 114 396> 458 52<213.5 306> 623 75<223 283 223 283>
VStem: 53 61<166 225 275 341.5> 223 60<623 698 623 698> 396 60<275 342.5>
LayerCount: 2
Fore
SplineSet
253 44 m 0
 326 44 436 53 436 53 c 1
 438 4 l 1
 438 4 325 -10 247 -10 c 0
 98 -9 53 81 53 248 c 0
 53 441 137 510 259 510 c 0
 388 510 456 441 456 273 c 1
 454 225 l 1
 114 225 l 1
 114 107 148 44 253 44 c 0
114 275 m 1
 396 275 l 1
 396 410 353 458 259 458 c 0
 168 458 114 408 114 275 c 1
223 623 m 1
 223 698 l 1
 283 698 l 1
 283 623 l 1
 223 623 l 1
EndSplineSet
EndChar

StartChar: eogonek
Encoding: 281 281 318
Width: 504
Flags: MW
HStem: -204 51<371 385> -10 54<247 263.5> 4 40 225 50<114 396 114 454 114 396> 458 52<213.5 306>
VStem: 53 61<166 225 275 341.5> 282 59<-120 -98.5> 396 60<275 342.5> 416 21<1 1>
LayerCount: 2
Fore
SplineSet
416 1 m 1xbe80
 416 1 341 -75 341 -107 c 0
 341 -133 358 -153 384 -153 c 0
 400 -153 436 -147 436 -147 c 1
 442 -195 l 1
 442 -195 401 -204 369 -204 c 0
 319 -204 282 -172 282 -119 c 0
 282 -78 328 -27 351 -4 c 1
 317 -7 280 -10 247 -10 c 0
 98 -9 53 81 53 248 c 0
 53 441 137 510 259 510 c 0
 388 510 456 441 456 273 c 1
 454 225 l 1xdf
 114 225 l 1
 114 107 148 44 253 44 c 0
 326 44 436 53 436 53 c 1xde80
 438 4 l 1
 438 4 427 3 413 1 c 2
 416 1 l 1xbe80
114 275 m 1xdf
 396 275 l 1
 396 410 353 458 259 458 c 0
 168 458 114 408 114 275 c 1xdf
EndSplineSet
EndChar

StartChar: gcircumflex
Encoding: 285 285 319
Width: 509
Flags: MW
HStem: -237 52<201 317 201 333> 13 53<293 336> 173 50<232.5 286 198 300> 448 52 460 50<198 266 185.5 286> 595 137<116 280 116 280 238 340 238 403> 687 45<260 260>
VStem: 53 60<-118 -57.5 -118 -52.5> 59 61<297 383.5 297 401> 109 57<95.5 119.5> 365 61<297 369.5 276.5 383.5> 419 61<-118 -38.5>
LayerCount: 2
Fore
SplineSet
261 -237 m 0xf510
 100 -237 53 -199 53 -83 c 0xf510
 53 -22 81 4 134 43 c 1
 117 54 109 80 109 111 c 0xf450
 109 128 141 189 141 189 c 1
 98 207 59 247 59 340 c 0
 59 462 131 510 240 510 c 0xec90
 292 510 345 497 345 497 c 1
 490 500 l 1
 490 447 l 1
 390 449 l 1
 411 428 426 399 426 340 c 0
 426 213 363 173 237 173 c 0
 228 173 197 175 186 177 c 1
 186 177 166 128 166 115 c 0xf460
 166 72 174 67 293 66 c 0
 429 66 480 42 480 -79 c 0
 480 -191 405 -237 261 -237 c 0xf510
289 13 m 0
 251 13 176 17 176 17 c 1
 128 -17 113 -36 113 -79 c 0
 113 -157 140 -185 262 -185 c 0
 372 -185 419 -155 419 -81 c 0
 419 4 383 13 289 13 c 0
240 223 m 0xeca0
 332 223 365 254 365 340 c 0
 365 427 332 460 240 460 c 0
 156 460 120 427 120 340 c 0
 120 254 156 223 240 223 c 0xeca0
116 595 m 1
 238 732 l 1
 280 732 l 1
 403 595 l 1
 340 595 l 1xf490
 260 687 l 1xf290
 179 595 l 1
 116 595 l 1
EndSplineSet
EndChar

StartChar: gbreve
Encoding: 287 287 320
Width: 509
Flags: MW
HStem: -237 52<201 317 201 333> 13 53<293 336> 173 50<232.5 286 198 300> 448 52 460 50<198 266 185.5 286> 589 47<230 288 230 303> 705 20G<115 166 166 166 352 404 404 404>
VStem: 53 60<-118 -57.5 -118 -52.5> 59 61<297 383.5 297 401> 109 57<95.5 119.5> 365 61<297 369.5 276.5 383.5> 419 61<-118 -38.5>
LayerCount: 2
Fore
SplineSet
261 -237 m 0xf710
 100 -237 53 -199 53 -83 c 0xf710
 53 -22 81 4 134 43 c 1
 117 54 109 80 109 111 c 0xf650
 109 128 141 189 141 189 c 1
 98 207 59 247 59 340 c 0
 59 462 131 510 240 510 c 0xee90
 292 510 345 497 345 497 c 1
 490 500 l 1
 490 447 l 1
 390 449 l 1
 411 428 426 399 426 340 c 0
 426 213 363 173 237 173 c 0
 228 173 197 175 186 177 c 1
 186 177 166 128 166 115 c 0xf660
 166 72 174 67 293 66 c 0
 429 66 480 42 480 -79 c 0
 480 -191 405 -237 261 -237 c 0xf710
289 13 m 0
 251 13 176 17 176 17 c 1
 128 -17 113 -36 113 -79 c 0
 113 -157 140 -185 262 -185 c 0
 372 -185 419 -155 419 -81 c 0
 419 4 383 13 289 13 c 0
240 223 m 0xeea0
 332 223 365 254 365 340 c 0
 365 427 332 460 240 460 c 0
 156 460 120 427 120 340 c 0
 120 254 156 223 240 223 c 0xeea0
115 725 m 1
 166 725 l 1
 167 673 201 636 259 636 c 0
 317 636 351 674 352 725 c 1
 404 725 l 1
 401 649 347 589 259 589 c 0
 171 589 117 649 115 725 c 1
EndSplineSet
EndChar

StartChar: gdotaccent
Encoding: 289 289 321
Width: 509
Flags: MW
HStem: -237 52<201 317 201 333> 13 53<293 336> 173 50<232.5 286 198 300> 448 52 460 50<198 266 185.5 286> 623 75<228 288 228 288>
VStem: 53 60<-118 -57.5 -118 -52.5> 59 61<297 383.5 297 401> 109 57<95.5 119.5> 228 60<623 698 623 698> 365 61<297 369.5 276.5 383.5> 419 61<-118 -38.5>
LayerCount: 2
Fore
SplineSet
261 -237 m 0xf650
 100 -237 53 -199 53 -83 c 0xf650
 53 -22 81 4 134 43 c 1
 117 54 109 80 109 111 c 0xf4d0
 109 128 141 189 141 189 c 1
 98 207 59 247 59 340 c 0
 59 462 131 510 240 510 c 0xed50
 292 510 345 497 345 497 c 1
 490 500 l 1
 490 447 l 1
 390 449 l 1
 411 428 426 399 426 340 c 0
 426 213 363 173 237 173 c 0
 228 173 197 175 186 177 c 1
 186 177 166 128 166 115 c 0xf4e0
 166 72 174 67 293 66 c 0
 429 66 480 42 480 -79 c 0
 480 -191 405 -237 261 -237 c 0xf650
289 13 m 0
 251 13 176 17 176 17 c 1
 128 -17 113 -36 113 -79 c 0
 113 -157 140 -185 262 -185 c 0
 372 -185 419 -155 419 -81 c 0
 419 4 383 13 289 13 c 0
240 223 m 0xed60
 332 223 365 254 365 340 c 0
 365 427 332 460 240 460 c 0
 156 460 120 427 120 340 c 0
 120 254 156 223 240 223 c 0xed60
228 623 m 1
 228 698 l 1
 288 698 l 1
 288 623 l 1
 228 623 l 1
EndSplineSet
EndChar

StartChar: gcommaaccent
Encoding: 291 291 322
Width: 509
Flags: MW
HStem: -237 52<201 317 201 333> 13 53<293 336> 173 50<232.5 286 198 300> 448 52 460 50<198 266 185.5 286> 590 201<246 258 198 297>
VStem: 53 60<-118 -57.5 -118 -52.5> 59 61<297 383.5 297 401> 109 57<95.5 119.5> 365 61<297 369.5 276.5 383.5> 419 61<-118 -38.5>
LayerCount: 2
Fore
SplineSet
297 791 m 1xf520
 258 590 l 1
 198 590 l 1
 246 791 l 1
 297 791 l 1xf520
261 -237 m 0xf620
 100 -237 53 -199 53 -83 c 0xf620
 53 -22 81 4 134 43 c 1
 117 54 109 80 109 111 c 0xf4a0
 109 128 141 189 141 189 c 1
 98 207 59 247 59 340 c 0
 59 462 131 510 240 510 c 0xed20
 292 510 345 497 345 497 c 1
 490 500 l 1
 490 447 l 1
 390 449 l 1
 411 428 426 399 426 340 c 0
 426 213 363 173 237 173 c 0
 228 173 197 175 186 177 c 1
 186 177 166 128 166 115 c 0xf4c0
 166 72 174 67 293 66 c 0
 429 66 480 42 480 -79 c 0
 480 -191 405 -237 261 -237 c 0xf620
289 13 m 0
 251 13 176 17 176 17 c 1
 128 -17 113 -36 113 -79 c 0
 113 -157 140 -185 262 -185 c 0
 372 -185 419 -155 419 -81 c 0
 419 4 383 13 289 13 c 0
240 223 m 0xed40
 332 223 365 254 365 340 c 0
 365 427 332 460 240 460 c 0
 156 460 120 427 120 340 c 0
 120 254 156 223 240 223 c 0xed40
EndSplineSet
EndChar

StartChar: hcircumflex
Encoding: 293 293 323
Width: 533
Flags: MW
HStem: 0 21G<75 134 75 75 403 403 403 463> 456 54<257 337.5> 702 20G<75 134 134 134> 780 137<121 285 121 285 243 345 243 408>
VStem: 75 59<0 422 471 722> 403 60<0 260 260 263 0 333.5>
LayerCount: 2
Fore
SplineSet
134 0 m 1
 75 0 l 1
 75 722 l 1
 134 722 l 1
 134 471 l 1
 134 471 218 510 296 510 c 0
 433 510 463 446 463 263 c 2
 463 0 l 1
 403 0 l 1
 403 260 l 2
 403 407 387 456 288 456 c 0
 210 456 134 422 134 422 c 1
 134 0 l 1
121 780 m 1
 243 917 l 1
 285 917 l 1
 408 780 l 1
 345 780 l 1
 265 872 l 1
 184 780 l 1
 121 780 l 1
EndSplineSet
EndChar

StartChar: hbar
Encoding: 295 295 324
Width: 533
Flags: MW
HStem: 0 21G<75 134 75 75 403 463 403 403> 456 54<257 337.5> 592 53<9 75 9 75 134 291> 592 130<9 134 9 134 75 134 75 291>
VStem: 75 59<0 422 471 592 645 722> 403 60<0 260 260 263 0 333.5>
LayerCount: 2
Fore
SplineSet
9 592 m 1xdc
 9 645 l 1
 75 645 l 1xec
 75 722 l 1
 134 722 l 1xdc
 134 645 l 1
 291 645 l 1xec
 291 592 l 1
 134 592 l 1
 134 471 l 1
 134 471 218 510 296 510 c 0
 433 510 463 446 463 263 c 2
 463 0 l 1
 403 0 l 1
 403 260 l 2
 403 407 387 456 288 456 c 0
 210 456 134 422 134 422 c 1
 134 0 l 1
 75 0 l 1
 75 592 l 1
 9 592 l 1xdc
EndSplineSet
EndChar

StartChar: itilde
Encoding: 297 297 325
Width: 209
Flags: MW
HStem: 619 50<164.5 190 164.5 197> 668 49<25.5 53>
VStem: -50 310<666 667>
LayerCount: 2
Fore
SplineSet
75 500 m 1x60
 75 0 l 1
 134 0 l 1
 134 500 l 1
 75 500 l 1x60
246 708 m 1xa0
 260 666 l 1
 260 666 215 619 179 619 c 0xa0
 139 619 69 668 37 668 c 0
 14 668 -35 627 -35 627 c 1
 -50 667 l 1
 -50 667 0 717 38 717 c 0x60
 78 717 149 669 180 669 c 0
 200 669 246 708 246 708 c 1xa0
EndSplineSet
EndChar

StartChar: imacron
Encoding: 299 299 326
Width: 209
Flags: MW
HStem: 631 49<-31 241 -31 241>
VStem: -31 106 134 107
LayerCount: 2
Fore
SplineSet
75 500 m 1
 75 0 l 1
 134 0 l 1
 134 500 l 1
 75 500 l 1
-31 631 m 1
 -31 680 l 1
 241 680 l 1
 241 631 l 1
 -31 631 l 1
EndSplineSet
EndChar

StartChar: ibreve
Encoding: 301 301 327
Width: 209
Flags: MW
HStem: 589 47<76 134 76 149> 705 20G<-39 12 12 12 198 250 250 250>
VStem: -39 114
LayerCount: 2
Fore
SplineSet
75 500 m 1
 75 0 l 1
 134 0 l 1
 134 500 l 1
 75 500 l 1
-39 725 m 1
 12 725 l 1
 13 673 47 636 105 636 c 0
 163 636 197 674 198 725 c 1
 250 725 l 1
 247 649 193 589 105 589 c 0
 17 589 -37 649 -39 725 c 1
EndSplineSet
EndChar

StartChar: iogonek
Encoding: 303 303 328
Width: 209
Flags: MW
HStem: -204 51<87.5 101> 0 21G<75 75 75 76 134 134> 480 20G<75 134 134 134> 625 75<75 134 75 134>
VStem: -2 59<-120 -97> 75 59<0 500 0 500 625 700>
LayerCount: 2
Fore
SplineSet
75 0 m 1
 75 500 l 1
 134 500 l 1
 134 0 l 1xf4
 134 0 57 -74 57 -107 c 0
 57 -133 75 -153 100 -153 c 0
 116 -153 153 -147 153 -147 c 1
 159 -195 l 1
 159 -195 117 -204 85 -204 c 0
 35 -204 -2 -172 -2 -119 c 0xfc
 -2 -75 54 -19 76 0 c 1
 75 0 l 1
75 625 m 1
 75 700 l 1
 134 700 l 1
 134 625 l 1
 75 625 l 1
EndSplineSet
EndChar

StartChar: jcircumflex
Encoding: 309 309 329
Width: 209
Flags: MW
HStem: 480 20G<75 135 135 135> 595 137<-41 123 -41 123 81 183 81 246> 687 45<103 103>
VStem: 75 60<10 500>
LayerCount: 2
Fore
SplineSet
75 10 m 2xd0
 75 500 l 1
 135 500 l 1
 135 9 l 2
 135 -109 102 -154 -29 -221 c 1
 -53 -173 l 1
 53 -113 75 -84 75 10 c 2xd0
-41 595 m 1
 81 732 l 1
 123 732 l 1
 246 595 l 1
 183 595 l 1xd0
 103 687 l 1xb0
 22 595 l 1
 -41 595 l 1
EndSplineSet
EndChar

StartChar: kcommaaccent
Encoding: 311 311 330
Width: 470
Flags: MW
HStem: -278 200<127 227 166 178> 0 21G<75 134 75 75 380 380 380 450> 240 53 480 20G<373 442 442 442> 702 20G<75 134 134 134>
VStem: 75 59<0 239 292 722>
LayerCount: 2
Fore
SplineSet
127 -278 m 1
 166 -78 l 1
 227 -78 l 1
 178 -278 l 1
 127 -278 l 1
134 0 m 1
 75 0 l 1
 75 722 l 1
 134 722 l 1
 134 292 l 1
 219 294 l 1
 373 500 l 1
 442 500 l 1
 271 271 l 1
 450 0 l 1
 380 0 l 1
 220 241 l 1
 134 239 l 1
 134 0 l 1
EndSplineSet
EndChar

StartChar: lacute
Encoding: 314 314 331
Width: 221
Flags: MW
HStem: 0 21G<81 81 81 140> 702 20G<81 140 140 140>
VStem: 81 59<0 722 0 722>
LayerCount: 2
Fore
SplineSet
81 0 m 1
 81 722 l 1
 140 722 l 1
 140 0 l 1
 81 0 l 1
54 842 m 1
 261 939 l 1
 283 887 l 1
 73 800 l 1
 54 842 l 1
EndSplineSet
EndChar

StartChar: lcaron
Encoding: 318 318 332
Width: 243
Flags: MW
HStem: 0 21G<81 81 81 140> 702 20G<81 140 140 140>
VStem: 81 59<0 722 0 722>
LayerCount: 2
Fore
SplineSet
243 685 m 1
 204 484 l 1
 255 484 l 1
 303 685 l 1
 243 685 l 1
81 0 m 1
 81 722 l 1
 140 722 l 1
 140 0 l 1
 81 0 l 1
EndSplineSet
EndChar

StartChar: lcommaaccent
Encoding: 316 316 333
Width: 221
Flags: MW
HStem: 0 21G<81 81 81 140> 702 20G<81 140 140 140>
VStem: 81 59<0 722 0 722>
LayerCount: 2
Fore
SplineSet
81 0 m 1
 81 722 l 1
 140 722 l 1
 140 0 l 1
 81 0 l 1
75 -78 m 1
 36 -278 l 1
 87 -278 l 1
 136 -78 l 1
 75 -78 l 1
EndSplineSet
EndChar

StartChar: nacute
Encoding: 324 324 334
Width: 533
Flags: MW
HStem: 0 737<75 371 134 371 371 464 371 464>
VStem: 134 270<0 260 0 414 0 414 0 500 0 500>
LayerCount: 2
Fore
SplineSet
75 0 m 1
 134 0 l 1
 134 414 l 1
 134 414 210 456 288 456 c 0
 388 456 404 407 404 260 c 2
 404 0 l 1
 464 0 l 1
 464 263 l 2
 464 446 434 510 297 510 c 0
 218 510 134 463 134 463 c 1
 134 500 l 1
 75 500 l 1
 75 0 l 1
164 640 m 1
 371 737 l 1
 393 685 l 1
 183 598 l 1
 164 640 l 1
EndSplineSet
EndChar

StartChar: ncaron
Encoding: 328 328 335
Width: 533
Flags: MW
HStem: 0 21G<75 134 75 75 404 404 404 464> 456 54<257.5 338> 463 37<75 134> 595 46<245 267 267 267 267 287> 595 137<123 245 123 287>
VStem: 75 59<0 414 463 500> 404 60<0 260 260 263 0 333.5>
LayerCount: 2
Fore
SplineSet
134 0 m 1xce
 75 0 l 1
 75 500 l 1
 134 500 l 1xae
 134 463 l 1
 134 463 218 510 297 510 c 0
 434 510 464 446 464 263 c 2
 464 0 l 1
 404 0 l 1
 404 260 l 2
 404 407 388 456 288 456 c 0
 210 456 134 414 134 414 c 1
 134 0 l 1xce
245 595 m 1
 123 732 l 1
 185 732 l 1xce
 267 641 l 1xd6
 348 732 l 1
 410 732 l 1
 287 595 l 1
 245 595 l 1
EndSplineSet
EndChar

StartChar: ncommaaccent
Encoding: 326 326 336
Width: 533
Flags: MW
HStem: -278 200<162 261 201 213> 0 21G<75 134 75 75 404 404 404 464> 456 54<257.5 338> 463 37<75 134>
VStem: 75 59<0 414 463 500> 404 60<0 260 260 263 0 333.5>
LayerCount: 2
Fore
SplineSet
162 -278 m 1xec
 201 -78 l 1
 261 -78 l 1
 213 -278 l 1
 162 -278 l 1xec
134 0 m 1
 75 0 l 1
 75 500 l 1
 134 500 l 1xdc
 134 463 l 1
 134 463 218 510 297 510 c 0
 434 510 464 446 464 263 c 2
 464 0 l 1
 404 0 l 1
 404 260 l 2
 404 407 388 456 288 456 c 0
 210 456 134 414 134 414 c 1
 134 0 l 1
EndSplineSet
EndChar

StartChar: omacron
Encoding: 333 333 337
Width: 527
Flags: MW
HStem: 646 49<129 401 129 401>
VStem: 54 419<162.5 345.5> 116 296<180.5 332>
LayerCount: 2
Fore
SplineSet
264 510 m 0xc0
 109 510 54 434 54 257 c 0
 54 68 96 -10 264 -10 c 0
 431 -10 473 68 473 257 c 0
 473 434 418 510 264 510 c 0xc0
264 43 m 0xa0
 134 43 116 104 116 257 c 0
 116 407 149 457 264 457 c 0
 378 457 412 407 412 257 c 0
 412 104 393 43 264 43 c 0xa0
129 646 m 1
 129 695 l 1
 401 695 l 1
 401 646 l 1
 129 646 l 1
EndSplineSet
EndChar

StartChar: obreve
Encoding: 335 335 338
Width: 527
Flags: MW
HStem: 589 47<237 295 237 310> 705 20G<122 173 173 173 359 411 411 411>
VStem: 54 419<162.5 345.5> 116 296<180.5 332>
LayerCount: 2
Fore
SplineSet
264 510 m 0xe0
 109 510 54 434 54 257 c 0
 54 68 96 -10 264 -10 c 0
 431 -10 473 68 473 257 c 0
 473 434 418 510 264 510 c 0xe0
264 43 m 0xd0
 134 43 116 104 116 257 c 0
 116 407 149 457 264 457 c 0
 378 457 412 407 412 257 c 0
 412 104 393 43 264 43 c 0xd0
122 725 m 1
 173 725 l 1
 174 673 208 636 266 636 c 0
 324 636 358 674 359 725 c 1
 411 725 l 1
 408 649 354 589 266 589 c 0
 178 589 124 649 122 725 c 1
EndSplineSet
EndChar

StartChar: ohungarumlaut
Encoding: 337 337 339
Width: 527
Flags: MW
HStem: -10 759<255 255 255 347.5>
VStem: 54 431<162.5 712> 116 296<180.5 332>
LayerCount: 2
Fore
SplineSet
264 510 m 0xc0
 109 510 54 434 54 257 c 0
 54 68 96 -10 264 -10 c 0
 431 -10 473 68 473 257 c 0
 473 434 418 510 264 510 c 0xc0
264 43 m 0xa0
 134 43 116 104 116 257 c 0
 116 407 149 457 264 457 c 0
 378 457 412 407 412 257 c 0
 412 104 393 43 264 43 c 0xa0
293 623 m 1
 444 749 l 1
 485 712 l 1
 332 587 l 1
 293 623 l 1
103 623 m 1
 255 749 l 1
 295 712 l 1
 142 587 l 1
 103 623 l 1
EndSplineSet
EndChar

StartChar: racute
Encoding: 341 341 340
Width: 339
Flags: MW
HStem: 0 21G<75 75 75 134> 428 72<75 134> 490 20G<323 323>
VStem: 75 59<0 375 428 500>
LayerCount: 2
Fore
SplineSet
75 0 m 1xb0
 75 500 l 1
 134 500 l 1
 134 428 l 1xd0
 134 428 221 491 323 510 c 1
 323 450 l 1
 227 430 134 375 134 375 c 1
 134 0 l 1
 75 0 l 1xb0
71 640 m 1
 278 737 l 1
 300 685 l 1
 90 598 l 1
 71 640 l 1
EndSplineSet
EndChar

StartChar: rcommaaccent
Encoding: 343 343 341
Width: 339
Flags: MW
HStem: 0 21G<75 75 75 134> 428 72<75 134> 490 20G<323 323>
VStem: 75 59<0 375 428 500>
LayerCount: 2
Fore
SplineSet
75 -78 m 1xb0
 35 -278 l 1
 87 -278 l 1
 135 -78 l 1
 75 -78 l 1xb0
75 0 m 1
 75 500 l 1
 134 500 l 1
 134 428 l 1xd0
 134 428 221 491 323 510 c 1
 323 450 l 1
 227 430 134 375 134 375 c 1
 134 0 l 1
 75 0 l 1
EndSplineSet
EndChar

StartChar: rcaron
Encoding: 345 345 342
Width: 339
Flags: MW
HStem: 0 21G<75 75 75 134> 428 72<75 134> 490 20G<323 323> 595 46<153 175 175 175 175 195> 595 137<31 153 31 195>
VStem: 75 59<0 375 428 500>
LayerCount: 2
Fore
SplineSet
75 0 m 1xac
 75 500 l 1
 134 500 l 1
 134 428 l 1xcc
 134 428 221 491 323 510 c 1
 323 450 l 1
 227 430 134 375 134 375 c 1
 134 0 l 1
 75 0 l 1xac
153 595 m 1
 31 732 l 1
 93 732 l 1xac
 175 641 l 1xb4
 256 732 l 1
 318 732 l 1
 195 595 l 1
 153 595 l 1
EndSplineSet
EndChar

StartChar: sacute
Encoding: 347 347 343
Width: 464
Flags: MW
HStem: -10 21G<194.5 285> -10 54<195.5 264 195.5 285> 455 54<195 259>
VStem: 47 61<344 404 344 422.5> 357 61<103 172>
LayerCount: 2
Fore
SplineSet
401 492 m 1x78
 399 439 l 1
 399 439 292 455 226 455 c 0
 164 455 108 438 108 370 c 0
 108 318 133 303 242 285 c 0
 370 264 418 241 418 145 c 0
 418 28 345 -10 225 -10 c 0x78
 164 -10 54 8 54 8 c 1xb8
 58 61 l 1
 58 61 170 44 221 44 c 0
 307 44 357 64 357 142 c 0
 357 202 327 215 215 232 c 0
 100 250 47 271 47 368 c 0
 47 477 137 509 224 509 c 0
 299 509 401 492 401 492 c 1x78
119 640 m 1
 326 737 l 1
 348 685 l 1
 138 598 l 1
 119 640 l 1
EndSplineSet
EndChar

StartChar: scircumflex
Encoding: 349 349 344
Width: 464
Flags: MW
HStem: -10 21G<194.5 285> -10 54<195.5 264 195.5 285> 455 54<195 259> 595 137<90 254 90 254 212 314 212 377> 687 45<234 234>
VStem: 47 61<344 404 344 422.5> 357 61<103 172>
LayerCount: 2
Fore
SplineSet
401 492 m 1x76
 399 439 l 1
 399 439 292 455 226 455 c 0
 164 455 108 438 108 370 c 0
 108 318 133 303 242 285 c 0
 370 264 418 241 418 145 c 0
 418 28 345 -10 225 -10 c 0x76
 164 -10 54 8 54 8 c 1xb6
 58 61 l 1
 58 61 170 44 221 44 c 0
 307 44 357 64 357 142 c 0
 357 202 327 215 215 232 c 0
 100 250 47 271 47 368 c 0
 47 477 137 509 224 509 c 0
 299 509 401 492 401 492 c 1x76
90 595 m 1
 212 732 l 1
 254 732 l 1
 377 595 l 1
 314 595 l 1x76
 234 687 l 1x6e
 153 595 l 1
 90 595 l 1
EndSplineSet
EndChar

StartChar: scedilla
Encoding: 351 351 345
Width: 464
Flags: MW
HStem: -211 43<240 265 236 288.5> -90 38<242 251> -10 21G<242 242> -10 54<242 242> 455 54<195 259>
VStem: 47 61<344 404 344 422.5> 204 38<-52 -10 -52 -9 -52 -9> 296 55<-142.5 -113.5> 357 61<103 172>
LayerCount: 2
Fore
SplineSet
351 -127 m 0xdf
 351 -186 315 -211 262 -211 c 0
 218 -211 178 -205 178 -205 c 1
 180 -165 l 1
 180 -165 221 -168 251 -168 c 0
 279 -168 296 -158 296 -127 c 0
 296 -100 279 -90 251 -90 c 2
 204 -90 l 1
 204 -9 l 1xdf
 142 -6 54 8 54 8 c 1xee80
 58 61 l 1
 58 61 170 44 221 44 c 0
 307 44 357 64 357 142 c 0
 357 202 327 215 215 232 c 0
 100 250 47 271 47 368 c 0
 47 477 137 509 224 509 c 0
 299 509 401 492 401 492 c 1
 399 439 l 1
 399 439 292 455 226 455 c 0
 164 455 108 438 108 370 c 0
 108 318 133 303 242 285 c 0
 370 264 418 241 418 145 c 0xde80
 418 33 352 -6 242 -10 c 1
 242 -52 l 1
 315 -52 351 -66 351 -127 c 0xdf
EndSplineSet
Substitution2: "'locl' Localized Forms in Lateinisch lookup 0 subtable" scommaaccent
EndChar

StartChar: scommaaccent
Encoding: 537 537 346
Width: 464
Flags: MW
HStem: -10 21G<194.5 285> -10 54<195.5 264 195.5 285> 455 54<195 259>
VStem: 47 61<344 404 344 422.5> 357 61<103 172>
LayerCount: 2
Fore
SplineSet
182 -78 m 1x78
 143 -278 l 1
 194 -278 l 1
 242 -78 l 1
 182 -78 l 1x78
401 492 m 1
 399 439 l 1
 399 439 292 455 226 455 c 0
 164 455 108 438 108 370 c 0
 108 318 133 303 242 285 c 0
 370 264 418 241 418 145 c 0
 418 28 345 -10 225 -10 c 0x78
 164 -10 54 8 54 8 c 1xb8
 58 61 l 1
 58 61 170 44 221 44 c 0
 307 44 357 64 357 142 c 0
 357 202 327 215 215 232 c 0
 100 250 47 271 47 368 c 0
 47 477 137 509 224 509 c 0
 299 509 401 492 401 492 c 1
EndSplineSet
EndChar

StartChar: tcaron
Encoding: 357 357 347
Width: 418
Flags: MW
HStem: -11 56<205.5 253.5> -1 46 445 55<28 102 28 102 161 329> 470 30
VStem: 102 59<170 202 202 445 500 657> 368 58<470 697 470 697>
LayerCount: 2
Fore
SplineSet
329 445 m 1x6c
 161 445 l 1
 161 202 l 2
 161 77 170 45 241 45 c 0
 269 45 333 52 333 52 c 1x6c
 337 -1 l 1
 337 -1 271 -11 236 -11 c 0xac
 137 -11 102 26 102 170 c 2
 102 445 l 1
 28 445 l 1
 28 500 l 1
 102 500 l 1
 102 657 l 1
 161 657 l 1
 161 500 l 1
 329 500 l 1
 329 445 l 1x6c
426 697 m 1
 426 470 l 1
 368 470 l 1x5c
 368 697 l 1
 426 697 l 1
EndSplineSet
EndChar

StartChar: tcommaaccent
Encoding: 539 539 348
Width: 347
Flags: MW
HStem: -11 54<205 253.5> -1 44 447 53<27 101 27 101 161 328>
VStem: 101 60<170 200 200 447 500 657>
LayerCount: 2
Fore
SplineSet
164 -78 m 1xb0
 125 -278 l 1
 176 -278 l 1
 225 -78 l 1
 164 -78 l 1xb0
328 447 m 1
 161 447 l 1
 161 200 l 2
 161 75 169 43 241 43 c 0
 269 43 333 50 333 50 c 1x70
 337 -1 l 1
 337 -1 271 -11 236 -11 c 0
 137 -11 101 26 101 170 c 2
 101 447 l 1
 27 447 l 1
 27 500 l 1
 101 500 l 1
 101 657 l 1
 161 657 l 1
 161 500 l 1
 328 500 l 1
 328 447 l 1
EndSplineSet
EndChar

StartChar: tbar
Encoding: 359 359 349
Width: 351
Flags: MW
HStem: -11 56<208 256.5> -1 46 264 49<44 104 44 104 164 309> 445 55<30 104 30 104 164 331>
VStem: 104 60<170 202 202 264 313 445 500 657>
LayerCount: 2
Fore
SplineSet
331 445 m 1x78
 164 445 l 1
 164 313 l 1
 309 313 l 1
 309 264 l 1
 164 264 l 1
 164 202 l 2
 164 77 172 45 244 45 c 0
 272 45 336 52 336 52 c 1x78
 340 -1 l 1
 340 -1 274 -11 239 -11 c 0xb8
 140 -11 104 26 104 170 c 2
 104 264 l 1
 44 264 l 1
 44 313 l 1
 104 313 l 1
 104 445 l 1
 30 445 l 1
 30 500 l 1
 104 500 l 1
 104 657 l 1
 164 657 l 1
 164 500 l 1
 331 500 l 1
 331 445 l 1x78
EndSplineSet
EndChar

StartChar: utilde
Encoding: 361 361 350
Width: 525
Flags: MW
HStem: 619 50<321.5 347 321.5 354> 668 49<182.5 210>
VStem: 129 262<240 500>
LayerCount: 2
Fore
SplineSet
450 500 m 1x60
 391 500 l 1
 391 86 l 1
 391 86 323 44 244 44 c 0
 144 44 129 91 129 240 c 2
 129 500 l 1
 70 500 l 1
 70 239 l 2
 70 52 98 -10 237 -10 c 0
 314 -10 391 37 391 37 c 1
 391 0 l 1
 450 0 l 1
 450 500 l 1x60
403 708 m 1xa0
 417 666 l 1
 417 666 372 619 336 619 c 0xa0
 296 619 226 668 194 668 c 0
 171 668 122 627 122 627 c 1
 107 667 l 1
 107 667 157 717 195 717 c 0x60
 235 717 306 669 337 669 c 0
 357 669 403 708 403 708 c 1xa0
EndSplineSet
EndChar

StartChar: umacron
Encoding: 363 363 351
Width: 525
Flags: MW
HStem: 631 49<125 397 125 397>
VStem: 129 262<240 500>
LayerCount: 2
Fore
SplineSet
450 500 m 1
 391 500 l 1
 391 86 l 1
 391 86 323 44 244 44 c 0
 144 44 129 91 129 240 c 2
 129 500 l 1
 70 500 l 1
 70 239 l 2
 70 52 98 -10 237 -10 c 0
 314 -10 391 37 391 37 c 1
 391 0 l 1
 450 0 l 1
 450 500 l 1
125 631 m 1
 125 680 l 1
 397 680 l 1
 397 631 l 1
 125 631 l 1
EndSplineSet
EndChar

StartChar: ubreve
Encoding: 365 365 352
Width: 525
Flags: MW
HStem: 589 47<226 284 226 299> 705 20G<111 162 162 162 348 400 400 400>
VStem: 129 262<240 500>
LayerCount: 2
Fore
SplineSet
450 500 m 1
 391 500 l 1
 391 86 l 1
 391 86 323 44 244 44 c 0
 144 44 129 91 129 240 c 2
 129 500 l 1
 70 500 l 1
 70 239 l 2
 70 52 98 -10 237 -10 c 0
 314 -10 391 37 391 37 c 1
 391 0 l 1
 450 0 l 1
 450 500 l 1
111 725 m 1
 162 725 l 1
 163 673 197 636 255 636 c 0
 313 636 347 674 348 725 c 1
 400 725 l 1
 397 649 343 589 255 589 c 0
 167 589 113 649 111 725 c 1
EndSplineSet
EndChar

StartChar: uring
Encoding: 367 367 353
Width: 525
Flags: MW
HStem: 546 41<245.5 278 245.5 290> 705 42<245.5 278>
VStem: 129 262<240 500> 161 43<630.5 663 630.5 675> 319 43<630.5 663>
LayerCount: 2
Fore
SplineSet
450 500 m 1xd8
 391 500 l 1
 391 86 l 1
 391 86 323 44 244 44 c 0
 144 44 129 91 129 240 c 2
 129 500 l 1
 70 500 l 1
 70 239 l 2xe0
 70 52 98 -10 237 -10 c 0
 314 -10 391 37 391 37 c 1
 391 0 l 1
 450 0 l 1
 450 500 l 1xd8
161 647 m 0xd8
 161 703 205 747 262 747 c 0
 318 747 362 703 362 647 c 0
 362 590 318 546 262 546 c 0
 205 546 161 590 161 647 c 0xd8
204 647 m 0
 204 614 229 587 262 587 c 0
 294 587 319 614 319 647 c 0
 319 679 294 705 262 705 c 0
 229 705 204 679 204 647 c 0
EndSplineSet
EndChar

StartChar: uhungarumlaut
Encoding: 369 369 354
Width: 525
Flags: MW
HStem: -10 759<263 263 263 275.5>
VStem: 129 262<240 500>
LayerCount: 2
Fore
SplineSet
450 500 m 1
 391 500 l 1
 391 86 l 1
 391 86 323 44 244 44 c 0
 144 44 129 91 129 240 c 2
 129 500 l 1
 70 500 l 1
 70 239 l 2
 70 52 98 -10 237 -10 c 0
 314 -10 391 37 391 37 c 1
 391 0 l 1
 450 0 l 1
 450 500 l 1
301 623 m 1
 452 749 l 1
 493 712 l 1
 340 587 l 1
 301 623 l 1
111 623 m 1
 263 749 l 1
 303 712 l 1
 150 587 l 1
 111 623 l 1
EndSplineSet
EndChar

StartChar: uogonek
Encoding: 371 371 355
Width: 525
Flags: MW
HStem: -204 51<403 417> -10 54<194 275> 0 21G<391 392 391 391 450 450> 480 20G<70 129 129 129 391 450 450 450>
VStem: 70 59<239 241 241 500> 314 59<-120 -97> 391 59<0 35 35 35 86 500 0 500>
LayerCount: 2
Fore
SplineSet
391 500 m 1xda
 450 500 l 1
 450 0 l 1xba
 450 0 373 -72 373 -107 c 0
 373 -133 390 -153 416 -153 c 0
 432 -153 468 -147 468 -147 c 1
 474 -195 l 1
 474 -195 433 -204 401 -204 c 0
 351 -204 314 -172 314 -119 c 0xde
 314 -75 370 -19 392 0 c 1
 391 0 l 1
 391 35 l 1
 391 35 313 -10 237 -10 c 0
 98 -10 70 51 70 239 c 2
 70 500 l 1
 129 500 l 1
 129 241 l 2
 129 91 144 44 244 44 c 0
 319 44 391 86 391 86 c 1
 391 500 l 1xda
EndSplineSet
EndChar

StartChar: wgrave
Encoding: 7809 7809 356
Width: 760
Flags: MW
HStem: 0 52<204 218 204 261 158 218 541 556> 480 20G<33 94 94 94 666 727 727 727>
VStem: 33 694<500 500>
LayerCount: 2
Fore
SplineSet
33 500 m 1
 94 500 l 1
 204 52 l 1
 218 52 l 1
 348 490 l 1
 411 490 l 1
 541 52 l 1
 556 52 l 1
 666 500 l 1
 727 500 l 1
 602 0 l 1
 498 0 l 1
 380 412 l 1
 261 0 l 1
 158 0 l 1
 33 500 l 1
265 737 m 1
 472 640 l 1
 453 598 l 1
 243 685 l 1
 265 737 l 1
EndSplineSet
EndChar

